<svg width="50" height="53" viewBox="0 0 50 53" fill="none" xmlns="http://www.w3.org/2000/svg">
<g clip-path="url(#clip0_68_3535)">
<path fill-rule="evenodd" clip-rule="evenodd" d="M27.7294 20.2191L27.7294 20.2192C27.8283 20.3942 27.9266 20.5681 28.02 20.7421C28.12 20.7393 28.2191 20.7114 28.3184 20.6835L28.3185 20.6835C28.4177 20.6556 28.5169 20.6277 28.6169 20.6248C28.6097 20.3749 28.6281 20.1493 28.6466 19.9237C28.6651 19.698 28.6836 19.4724 28.6763 19.2225C28.3317 14.2304 27.9871 9.23828 27.4426 4.25195C27.2905 2.4556 26.5705 1.77615 25.6738 1.90215C24.7771 2.02816 24.2034 2.94515 24.4525 4.63865C25.0854 9.22225 25.9154 13.7001 26.8481 18.275C27.0242 18.9714 27.3805 19.6019 27.7294 20.2191ZM25.7807 49.9838C25.9473 50.3164 26.1293 50.6798 26.2979 51.1047C26.4788 50.8156 26.6392 50.5943 26.7578 50.4307C26.8901 50.2482 26.9702 50.1375 26.9687 50.0849L27.0084 49.8152C27.2453 48.2069 27.4703 46.6792 27.4237 45.0696C27.3959 41.8061 27.2806 38.5896 27.1649 35.3583L27.1649 35.3581C27.1068 33.7369 27.0486 32.112 27.0012 30.4757C26.9896 30.0759 26.9809 29.776 26.8723 29.479C26.6463 28.5852 26.2233 27.7971 25.2209 27.7261C24.2184 27.6551 23.5361 28.2751 23.2622 29.1834C22.9884 30.0917 22.7175 31.0999 22.8435 31.9967L23.0473 33.4693L23.0473 33.4696C23.7395 38.4745 24.4411 43.5473 25.2231 48.5347C25.2982 49.0204 25.5206 49.4645 25.7807 49.9838ZM20.8345 21.3504C20.3626 21.4641 19.8909 21.584 19.4192 21.704C18.004 22.0638 16.5888 22.4237 15.1687 22.6148C11.379 23.0247 7.5835 23.2346 3.78799 23.4446L3.2882 23.459C1.58602 23.4083 0.871839 22.9287 0.845793 22.0291C0.819747 21.1295 1.51367 20.9093 3.31581 20.9572C6.59254 20.996 9.82206 20.9469 13.0666 20.8975C14.6776 20.8729 16.2923 20.8484 17.9184 20.8345L20.8172 20.7506C20.7543 20.8858 20.7805 21.0185 20.8065 21.1511C20.8196 21.2174 20.8326 21.2837 20.8345 21.3504ZM48.2759 22.1389C48.4775 22.0283 48.6756 21.9197 48.8604 21.8395C48.857 21.7223 48.8194 21.6063 48.7882 21.51C48.7661 21.4421 48.7473 21.384 48.7461 21.3426C46.3514 21.562 43.9318 21.7821 41.5121 22.0022C39.0925 22.2223 36.6728 22.4425 34.2782 22.6618C32.7817 22.8052 32.0993 23.4252 32.3224 24.2191C32.6598 25.5099 33.6595 25.4809 34.6533 25.2521C36.5828 24.835 38.4924 24.4388 40.391 24.045C42.699 23.5663 44.9906 23.0909 47.2814 22.5855C47.5923 22.5139 47.9389 22.3238 48.2759 22.1389Z" fill="black"/>
</g>
<defs>
<clipPath id="clip0_68_3535">
<rect width="48" height="51" fill="white" transform="translate(0.255432 1.6377) rotate(-1.65837)"/>
</clipPath>
</defs>
</svg>
