<svg width="70" height="82" viewBox="0 0 70 82" fill="none" xmlns="http://www.w3.org/2000/svg">
<g clip-path="url(#clip0_68_3638)">
<path d="M22.2777 65.4757C22.9428 62.9444 23.8305 60.3925 24.3661 57.918C25.2398 53.7507 24.5753 49.9496 21.7979 46.6125C19.4341 43.8661 16.9977 41.3061 14.5045 38.6165C13.7545 37.7874 12.8749 37.0151 12.1249 36.186C11.5249 35.5227 11.3134 34.6888 11.9198 33.9593C12.3241 33.473 13.1216 33.3546 13.7691 33.0704C13.8986 33.0136 14.085 33.0862 14.2713 33.1589C22.2128 34.5383 29.0035 31.7122 34.8279 26.6847C39.9527 22.3504 44.6275 17.5186 49.5091 12.9822C50.2088 12.289 50.9084 11.5958 51.6286 11.1253C52.0534 10.8616 52.944 10.7795 53.3735 11.0544C53.8031 11.3292 54.1441 12.1062 54.0193 12.7015C53.9876 13.3332 53.6038 14.0422 53.2563 14.658C52.5614 15.8897 51.8664 17.1214 51.042 18.4099C47.7805 23.4708 46.8278 29.2173 45.875 34.9638C45.5257 37.5109 46.2693 39.7329 47.883 41.6501C49.9468 44.0649 52.2853 46.0501 54.9192 47.8285C55.7782 48.3781 57.0826 48.8868 56.6308 50.3206C56.1427 51.8476 54.693 51.7117 53.5592 51.5915C48.6512 50.9657 44.3209 52.7119 40.0886 55.0328C35.7267 57.4106 31.8353 60.5086 28.6371 64.3062C26.8541 66.4016 25.1641 68.5333 23.4174 70.5355C23.0494 70.9287 22.8678 71.3945 22.4793 71.565C21.9249 71.8855 21.0185 72.2834 20.6821 72.0449C20.2526 71.7701 20.1706 70.8794 20.1091 70.2114C20.0681 69.7661 20.3429 69.3366 20.5245 68.8708C20.9968 67.6596 21.4691 66.4484 21.905 65.3304C22.0914 65.4031 22.1846 65.4394 22.2777 65.4757Z" fill="black"/>
</g>
<defs>
<clipPath id="clip0_68_3638">
<rect width="48" height="69" fill="white" transform="translate(25.0675) rotate(21.3028)"/>
</clipPath>
</defs>
</svg>
