<svg width="150" height="47" viewBox="0 0 150 47" fill="none" xmlns="http://www.w3.org/2000/svg">
<g clip-path="url(#clip0_61_532)">
<path d="M74.3164 46.14V46.0651C74.3913 45.9715 74.5224 45.9153 74.6347 45.934C75.1778 45.9153 75.7021 45.9153 76.2451 45.934C76.3575 45.934 76.4886 45.9715 76.5635 46.0651V46.14H74.3164Z" fill="white"/>
<path d="M76.5637 46.0651C75.8147 46.0463 75.0656 46.0463 74.3166 46.0651C73.2867 46.0089 72.2568 45.9714 71.2269 45.8965C68.4929 45.6906 65.7777 45.2786 63.1187 44.6606C53.9244 42.5259 45.8536 38.2377 38.8128 32.0021C38.1574 31.4216 37.5394 30.8224 36.9028 30.2232C36.753 30.0921 36.6219 29.9048 36.547 29.7176C36.4346 29.4554 36.4908 29.1745 36.6781 28.9686C36.8653 28.7626 37.1649 28.6877 37.4271 28.8C37.5956 28.8749 37.7641 28.9498 37.9139 29.0435C44.6365 33.2005 51.9769 36.2341 59.6731 38.0318C62.2573 38.631 64.8602 39.0991 67.4817 39.4362C71.2456 39.9043 75.0469 40.0729 78.8295 39.9418C80.8706 39.8856 82.893 39.6983 84.9153 39.4362C89.6342 38.837 94.2969 37.7696 98.8098 36.2716C101.188 35.4851 103.51 34.5862 105.776 33.5376C106.113 33.3503 106.525 33.2942 106.899 33.3878C107.517 33.5376 107.892 34.1743 107.742 34.7922C107.723 34.8671 107.686 34.9608 107.648 35.0357C107.498 35.3165 107.292 35.56 107.03 35.7472C104.877 37.4325 102.555 38.9119 100.102 40.1478C95.4766 42.4885 90.533 44.155 85.4396 45.1101C82.4997 45.6344 79.5411 45.9527 76.5637 46.0651ZM48.831 8.10818C49.2991 7.82729 49.786 7.52768 50.2916 7.26552C51.6024 6.5914 53.063 6.25434 54.5423 6.32924C55.6097 6.38542 56.5834 6.68503 57.3324 7.4715C58.044 8.20181 58.3062 9.10064 58.3811 10.0744C58.3998 10.2804 58.3998 10.4863 58.3998 10.711V20.4109C58.3998 21.2536 58.2874 21.3659 57.4448 21.3659H55.1603C55.0105 21.3659 54.8607 21.3659 54.7108 21.3472C54.4861 21.3285 54.2989 21.1412 54.2614 20.9165C54.224 20.7105 54.224 20.5046 54.224 20.2986V11.6286C54.2427 11.2728 54.2053 10.9358 54.1116 10.5987C53.9618 10.0182 53.4375 9.60623 52.8383 9.56878C51.7335 9.49388 50.6287 9.71858 49.6175 10.1867C49.4677 10.2242 49.374 10.374 49.3928 10.5238V20.3735C49.3928 20.5607 49.3928 20.7293 49.3553 20.9165C49.3553 21.1787 49.1493 21.3659 48.8872 21.3659C48.6063 21.3847 48.3254 21.3847 48.0258 21.3847H46.0409C45.348 21.3847 45.1982 21.2161 45.1982 20.5233V11.6661C45.1982 11.3477 45.1795 11.0107 45.1046 10.6923C44.9735 10.0556 44.4305 9.60623 43.7938 9.56878C42.6703 9.49388 41.528 9.71858 40.5168 10.2055C40.367 10.2429 40.2734 10.4114 40.3108 10.5612V20.542C40.3108 21.2349 40.161 21.3847 39.4682 21.3847H36.9589C36.3035 21.3847 36.135 21.1974 36.135 20.5607V7.56513C36.135 7.41533 36.1537 7.26552 36.1912 7.11572C36.2661 6.89101 36.4908 6.75993 36.7155 6.75993H39.0562C39.3933 6.75993 39.5993 6.96591 39.7116 7.28425C39.8052 7.54641 39.8614 7.78984 39.955 8.07073C40.1423 8.07073 40.2547 7.93965 40.3857 7.86474C41.4156 7.22807 42.5017 6.68503 43.7189 6.46032C44.6552 6.27306 45.5915 6.27306 46.5277 6.46032C47.4079 6.64758 48.1943 7.17189 48.6999 7.92092C48.7374 7.9771 48.7748 8.01455 48.8123 8.052C48.7935 8.07073 48.8123 8.07073 48.831 8.10818Z" fill="white"/>
<path d="M87.6492 17.4336C87.7616 17.0591 87.8739 16.7033 87.9863 16.3288C88.8477 13.4263 89.709 10.5425 90.5704 7.64006L90.6828 7.303C90.7764 6.96594 91.0947 6.75996 91.4318 6.75996H94.2781C94.9897 6.75996 95.1395 6.96594 94.8961 7.64006L93.7725 10.6174C92.5179 13.8757 91.2633 17.1527 90.0087 20.411C89.9712 20.5233 89.915 20.6357 89.8776 20.748C89.7465 21.1413 89.3533 21.4034 88.9413 21.366C88.1174 21.3472 87.2934 21.3472 86.4695 21.366C85.889 21.3847 85.552 21.1225 85.346 20.5982C84.8778 19.3623 84.391 18.1077 83.9228 16.8718C82.7993 13.9319 81.657 10.992 80.5335 8.0333C80.4211 7.80859 80.3462 7.54644 80.29 7.303C80.2339 6.92849 80.3649 6.74123 80.7395 6.74123C81.8068 6.72251 82.8742 6.74123 83.9228 6.74123C84.3722 6.74123 84.5782 7.04084 84.6906 7.43408C84.8966 8.14566 85.1025 8.87596 85.3272 9.58753C86.095 12.1904 86.844 14.812 87.6118 17.4149C87.593 17.4336 87.6118 17.4336 87.6492 17.4336Z" fill="white"/>
<path d="M21.1545 8.81977C21.2856 8.78232 21.3979 8.70742 21.4728 8.59507C21.8099 8.258 22.1657 7.93967 22.5402 7.64006C23.5139 6.89103 24.7311 6.51652 25.9482 6.61015C26.4351 6.62887 26.6036 6.77868 26.6411 7.24682C26.6785 7.88349 26.6598 8.53889 26.6598 9.17556C26.6785 9.43772 26.6598 9.68115 26.6224 9.94331C26.5475 10.2804 26.4164 10.4115 26.0793 10.4489C25.8172 10.4676 25.5737 10.4489 25.3116 10.4302C24.057 10.3178 22.8398 10.5613 21.6601 10.9545C21.3979 11.0481 21.3979 11.2354 21.3979 11.4414V20.4297C21.3979 20.5982 21.3979 20.748 21.3792 20.9165C21.3605 21.16 21.1732 21.3472 20.9298 21.3472C20.7987 21.366 20.6489 21.366 20.5178 21.366H18.0835C17.9524 21.366 17.8026 21.366 17.6715 21.3472C17.4281 21.3285 17.2408 21.1225 17.2221 20.8791C17.2034 20.7293 17.2034 20.5795 17.2034 20.4297V7.69624C17.2034 6.83486 17.297 6.74123 18.1584 6.74123H19.956C20.4429 6.74123 20.6676 6.90976 20.7987 7.3779C20.9298 7.84604 21.0421 8.31418 21.1545 8.81977ZM108.753 27.8076C109.989 27.845 111.206 27.9199 112.405 28.2383C112.742 28.3319 113.06 28.4443 113.378 28.5941C113.809 28.7626 114.09 29.1746 114.146 29.624C114.221 30.1483 114.24 30.6913 114.202 31.2344C113.959 34.4365 112.966 37.5262 111.318 40.2789C110.719 41.2713 109.989 42.1702 109.146 42.9566C108.978 43.1252 108.772 43.2562 108.547 43.3311C108.191 43.4248 107.967 43.2375 107.948 42.8817C107.967 42.6945 108.004 42.5072 108.079 42.32C108.734 40.5597 109.371 38.8183 109.877 37.0019C110.176 36.0094 110.382 34.9982 110.513 33.9683C110.551 33.5938 110.569 33.2193 110.532 32.8448C110.513 32.2081 110.101 31.6651 109.483 31.4778C108.903 31.2906 108.304 31.1782 107.686 31.1407C105.963 31.0658 104.24 31.1407 102.536 31.3655L100.27 31.6463C100.027 31.6651 99.8022 31.6463 99.6711 31.4216C99.5401 31.1969 99.5962 30.9722 99.7273 30.7475C99.8771 30.5415 100.064 30.3543 100.289 30.2232C101.675 29.2307 103.229 28.6315 104.877 28.2383C106.15 27.9761 107.442 27.845 108.753 27.8076Z" fill="white"/>
<path d="M100.907 14.063V20.8042C100.87 21.1787 100.701 21.3472 100.326 21.366C99.3153 21.3847 98.3228 21.3847 97.3116 21.366C96.9371 21.366 96.7686 21.1787 96.7311 20.8229C96.7124 20.7106 96.7124 20.5795 96.7124 20.4671V7.50897C96.7311 6.92848 96.8809 6.75995 97.4614 6.75995H100.158C100.738 6.75995 100.907 6.92848 100.907 7.50897V14.063Z" fill="white"/>
<path d="M28.4573 14.0255V7.37792C28.476 6.9285 28.6446 6.75997 29.094 6.74124C30.0677 6.72252 31.0414 6.72252 32.0152 6.74124C32.4459 6.74124 32.5769 6.87232 32.6144 7.30301C32.6331 7.47154 32.6331 7.62135 32.6331 7.78988V20.2612C32.6331 20.4671 32.6144 20.6731 32.5957 20.8791C32.5769 21.1225 32.3897 21.2911 32.1463 21.3098C32.0339 21.3285 31.9403 21.3285 31.8279 21.3285H29.2251C29.1314 21.3285 29.0565 21.3285 28.9629 21.3098C28.7007 21.2911 28.476 21.0851 28.4573 20.8229C28.4386 20.6731 28.4386 20.5233 28.4386 20.3735C28.4573 18.295 28.4573 16.1602 28.4573 14.0255ZM30.6295 0.0374624C30.9291 0.0187367 31.2287 0.0749137 31.5096 0.168542C32.5208 0.505604 33.0451 1.38571 32.9515 2.52797C32.8766 3.50171 32.1463 4.28818 31.1725 4.43799C30.7606 4.51289 30.3299 4.51289 29.9179 4.43799C28.8505 4.23201 28.0641 3.44553 28.139 2.09728C28.2513 0.767763 29.1314 0.0374624 30.6295 0.0374624Z" fill="white"/>
<path d="M98.8285 0.0374369C99.203 -1.43703e-05 99.5775 0.0748882 99.9333 0.224693C100.664 0.505578 101.169 1.1797 101.207 1.96618C101.356 3.67021 100.214 4.53159 98.6974 4.49414C98.4914 4.49414 98.2854 4.45669 98.0795 4.41924C96.9185 4.13835 96.3192 3.23952 96.4316 1.94745C96.5252 0.917543 97.3304 0.149791 98.4352 0.0561626C98.5663 0.0374369 98.6974 0.0187113 98.8285 0.0374369Z" fill="white"/>
<path d="M14.4319 12.49C14.357 11.5162 14.0948 10.5612 13.7016 9.68113C12.9339 8.07072 11.7541 6.89101 9.95648 6.47904C7.89666 6.02963 6.04282 6.47904 4.35751 7.73366C4.24516 7.84602 4.11408 7.93965 3.96427 8.01455C3.92682 7.99582 3.88937 7.9771 3.88937 7.95837C3.83319 7.77111 3.79574 7.58386 3.73956 7.3966C3.58976 6.92846 3.4025 6.75993 2.89691 6.75993C2.33514 6.75993 1.75464 6.77865 1.19287 6.75993C0.762185 6.7412 0.368946 6.79738 0.0693359 7.13444C0.0693359 13.6884 0.0693359 20.2611 0.0880616 26.7964C0.331495 27.1896 0.706008 27.2645 1.1367 27.2458C1.81082 27.2271 2.48494 27.2458 3.15907 27.2458C4.33878 27.2458 4.33878 27.2458 4.33878 26.0848V20.748C4.33878 20.6169 4.28261 20.4671 4.41369 20.3547C5.34997 21.0851 6.49223 21.5345 7.67195 21.6468C9.31981 21.8154 10.8179 21.4034 12.0725 20.2798C12.99 19.4372 13.6642 18.3511 14.0199 17.1527C14.5255 15.6172 14.563 14.0629 14.4319 12.49ZM9.95648 16.3662C9.8254 16.9467 9.52579 17.471 9.0951 17.8642C8.60823 18.2762 8.00901 18.5196 7.37234 18.5196C6.41733 18.5758 5.48105 18.3698 4.63839 17.9204C4.43241 17.8268 4.30133 17.6208 4.32006 17.3961V14.0068C4.32006 12.8832 4.33878 11.7597 4.32006 10.6361C4.30133 10.374 4.45114 10.1493 4.69457 10.0556C5.72448 9.56878 6.79184 9.34407 7.91538 9.56878C8.70186 9.68113 9.37598 10.1867 9.69432 10.917C9.97521 11.5162 10.1437 12.1716 10.1812 12.827C10.2935 14.0255 10.2935 15.2239 9.95648 16.3662Z" fill="white"/>
<path d="M149.893 15.4112C149.893 15.3925 149.893 15.3925 149.893 15.4112V15.4112ZM149.912 12.902V12.9769C149.837 12.902 149.8 12.7896 149.837 12.696V12.5462C149.837 12.5462 149.837 12.5274 149.856 12.5274H149.837V12.3402H149.875C149.875 12.3215 149.856 12.3215 149.856 12.3027C149.818 11.947 149.744 11.5912 149.65 11.2541C148.957 8.78232 147.403 7.15319 144.875 6.51651C143.695 6.23563 142.497 6.19818 141.298 6.38543C138.77 6.75995 136.954 8.10819 136.074 10.5051C135.212 12.7896 135.231 15.2988 136.093 17.5834C136.842 19.6619 138.34 20.9727 140.493 21.5158C141.635 21.7966 142.834 21.8715 144.013 21.703C147.946 21.2349 149.575 18.2575 149.837 15.6734H149.818V15.4112C149.8 15.2988 149.781 15.2052 149.893 15.1303V15.1678C149.893 15.149 149.912 15.1116 149.931 15.0929V12.9394C149.931 12.9207 149.912 12.9207 149.912 12.902ZM145.418 16.4598C145.306 16.8531 145.137 17.2089 144.894 17.5459C144.482 18.1264 143.826 18.5009 143.115 18.5571C142.759 18.5946 142.403 18.5946 142.047 18.5197C141.261 18.3699 140.605 17.8455 140.287 17.1152C140.006 16.5347 139.838 15.8981 139.781 15.2614C139.688 14.1566 139.669 13.0518 139.931 11.9657C140.025 11.535 140.212 11.1043 140.437 10.7298C140.849 10.0557 141.56 9.62497 142.347 9.56879C142.703 9.53134 143.058 9.53134 143.414 9.60625C144.163 9.75605 144.781 10.2429 145.118 10.9358C145.437 11.5912 145.624 12.3215 145.661 13.0518C145.68 13.3888 145.699 13.7259 145.68 14.063C145.736 14.8869 145.643 15.6921 145.418 16.4598ZM117.086 0.168518H114.483C113.772 0.168518 113.64 0.299598 113.64 1.01117V7.07828C113.64 7.20936 113.697 7.34044 113.603 7.47152C113.434 7.4528 113.341 7.34044 113.21 7.26554C111.262 6.12328 109.221 5.91729 107.161 6.8723C105.72 7.54642 104.821 8.76359 104.24 10.2055C103.678 11.5912 103.547 13.0518 103.585 14.5311C103.585 15.9168 103.903 17.2838 104.521 18.5197C105.233 19.8866 106.263 20.9353 107.761 21.3847C109.802 22.0214 111.712 21.703 113.453 20.4109C113.584 20.336 113.659 20.205 113.828 20.1675C113.921 20.3735 113.996 20.5982 114.034 20.8229C114.109 21.1225 114.371 21.3285 114.689 21.3285H115.139C115.813 21.3285 116.468 21.3472 117.123 21.3285C117.648 21.3285 117.798 21.16 117.816 20.6169V0.880093C117.798 0.299598 117.648 0.168518 117.086 0.168518ZM113.659 13.9506V17.3587C113.697 17.5834 113.566 17.7894 113.36 17.883C112.461 18.3886 111.431 18.5946 110.42 18.4448C109.558 18.3511 108.809 17.8268 108.416 17.0591C108.116 16.4598 107.948 15.8232 107.892 15.1678C107.742 13.988 107.836 12.7896 108.116 11.6473C108.21 11.329 108.322 11.0294 108.491 10.7298C108.884 9.99949 109.633 9.53134 110.457 9.47517C111.45 9.38154 112.442 9.56879 113.341 9.98076C113.566 10.0557 113.697 10.2804 113.678 10.5238C113.64 11.6848 113.659 12.8083 113.659 13.9506Z" fill="white"/>
<path d="M65.2346 15.2427C66.6391 15.5048 68.0809 15.5235 69.4854 15.2988C70.3093 15.1865 71.0958 14.9431 71.8261 14.5498C72.6687 14.0629 73.2867 13.3888 73.5488 12.4525C74.2042 10.0931 73.193 7.71495 70.74 6.83485C69.5415 6.44161 68.2682 6.31053 67.0136 6.47906C64.0549 6.81612 62.1262 8.44525 61.2461 11.2728C60.6281 13.2016 60.703 15.1678 61.2086 17.1152C61.864 19.6057 63.5119 21.0851 66.0024 21.6094C67.4255 21.9277 68.8674 21.8715 70.2906 21.6468C71.0396 21.5158 71.7886 21.3285 72.5002 21.0476C72.9309 20.8791 73.1556 20.6169 73.1369 20.1301C73.1181 19.6806 73.1369 19.2125 73.1369 18.7444C73.1369 18.1826 72.9122 18.0141 72.3691 18.1451C71.8261 18.2762 71.3018 18.3886 70.7587 18.5009C69.5977 18.7444 68.3993 18.7444 67.2383 18.5384C65.6466 18.22 64.6167 16.8531 64.7103 15.1678C64.8789 15.1865 65.0661 15.2052 65.2346 15.2427ZM64.7665 12.3776C64.8227 11.9282 64.9538 11.4975 65.1223 11.0856C65.6841 9.7186 66.8638 9.25046 68.0622 9.32536C68.3993 9.34408 68.7363 9.41899 69.0547 9.55007C69.5415 9.75605 69.8599 10.2055 69.9161 10.7298C69.9722 11.0481 69.9535 11.3852 69.8599 11.7035C69.6352 12.3776 69.0921 12.6585 68.4367 12.7896C68.0435 12.8832 67.6315 12.9207 67.2196 12.8832C66.4893 12.8832 65.7402 12.8271 65.0099 12.7147C64.729 12.6772 64.729 12.6772 64.7665 12.3776Z" fill="white"/>
<path d="M128.396 15.4299C129.482 15.355 130.568 15.149 131.542 14.6247C132.535 14.1379 133.227 13.2203 133.433 12.1342C133.564 11.4601 133.564 10.7485 133.415 10.0744C133.021 8.38909 131.954 7.34045 130.344 6.7974C129.445 6.51652 128.49 6.40417 127.554 6.44162C124.408 6.51652 122.011 8.1082 121.037 11.2541C120.382 13.3327 120.475 15.4487 121.112 17.5272C121.767 19.6619 123.265 20.954 125.4 21.5345C126.318 21.7592 127.273 21.8528 128.209 21.8154C129.576 21.7966 130.943 21.5345 132.235 21.0476C132.778 20.8416 132.909 20.6544 132.909 20.0739V18.7256C132.89 18.1826 132.666 17.9953 132.123 18.1264C131.711 18.2388 131.317 18.3324 130.905 18.426C129.651 18.7256 128.34 18.7818 127.067 18.5571C125.793 18.3137 124.932 17.5834 124.595 16.31C124.501 15.9355 124.426 15.561 124.389 15.1678C124.483 15.1678 124.576 15.1678 124.651 15.2052C125.887 15.4299 127.142 15.5236 128.396 15.4299ZM124.483 12.4338C124.614 11.7035 124.782 10.992 125.232 10.3927C125.924 9.47517 126.879 9.21301 127.966 9.32537C128.059 9.32537 128.134 9.36282 128.228 9.36282C129.538 9.5688 129.857 10.6174 129.613 11.6286C129.426 12.3776 128.808 12.6585 128.115 12.7896C127.741 12.8645 127.348 12.902 126.954 12.8832C126.187 12.8645 125.438 12.8083 124.689 12.696C124.52 12.6773 124.445 12.6024 124.483 12.4338Z" fill="white"/>
</g>
<defs>
<clipPath id="clip0_61_532">
<rect width="150" height="46.14" fill="white"/>
</clipPath>
</defs>
</svg>
