<svg width="1440" height="679" viewBox="0 0 1440 679" fill="none" xmlns="http://www.w3.org/2000/svg">
<g clip-path="url(#clip0_170_410)">
<rect width="1440" height="679" fill="#FE7735"/>
<g opacity="0.2">
<path d="M-1 762.468C28.9578 769.888 79.0844 818.952 142.797 798.084C206.511 777.215 237.312 661.372 304.823 662.299C372.333 663.227 399.338 790.942 466.848 802.536C534.359 814.129 561.363 713.775 628.873 717.949C696.384 722.122 723.388 824.424 790.899 822.569C858.409 820.714 885.413 713.682 952.924 709.045C1020.43 704.407 1047.44 802.628 1114.95 800.31C1182.46 797.991 1209.46 685.858 1276.97 697.915C1344.49 709.972 1405.24 824.795 1439 858.185" stroke="white" stroke-width="2" stroke-linecap="round"/>
<path d="M-1 695.689C28.9578 703.109 79.0844 752.173 142.797 731.305C206.511 710.436 237.312 594.593 304.823 595.521C372.333 596.448 399.338 724.163 466.848 735.757C534.359 747.35 561.363 646.996 628.873 651.17C696.384 655.344 723.388 757.645 790.899 755.791C858.409 753.936 885.413 646.903 952.924 642.266C1020.43 637.629 1047.44 735.85 1114.95 733.531C1182.46 731.212 1209.46 619.079 1276.97 631.136C1344.49 643.194 1405.24 758.016 1439 791.406" stroke="white" stroke-width="2" stroke-linecap="round"/>
<path d="M-1 628.91C28.9578 636.329 79.0844 685.394 142.797 664.525C206.511 643.657 237.312 527.813 304.823 528.741C372.333 529.668 399.338 657.383 466.848 668.977C534.359 680.571 561.363 580.216 628.873 584.39C696.384 588.564 723.388 690.866 790.899 689.011C858.409 687.156 885.413 580.124 952.924 575.486C1020.43 570.849 1047.44 669.07 1114.95 666.751C1182.46 664.432 1209.46 552.299 1276.97 564.356C1344.49 576.414 1405.24 691.237 1439 724.626" stroke="white" stroke-width="2" stroke-linecap="round"/>
<path d="M-1 562.131C28.9578 569.551 79.0844 618.615 142.797 597.747C206.511 576.878 237.312 461.035 304.823 461.963C372.333 462.89 399.338 590.605 466.848 602.199C534.359 613.792 561.363 513.438 628.873 517.612C696.384 521.786 723.388 624.087 790.899 622.232C858.409 620.377 885.413 513.345 952.924 508.708C1020.43 504.071 1047.44 602.291 1114.95 599.973C1182.46 597.654 1209.46 485.521 1276.97 497.578C1344.49 509.635 1405.24 624.458 1439 657.848" stroke="white" stroke-width="2" stroke-linecap="round"/>
<path d="M-1 495.352C28.9578 502.772 79.0844 551.836 142.797 530.967C206.511 510.099 237.312 394.256 304.823 395.183C372.333 396.111 399.338 523.826 466.848 535.419C534.359 547.013 561.363 446.659 628.873 450.833C696.384 455.006 723.388 557.308 790.899 555.453C858.409 553.598 885.413 446.566 952.924 441.929C1020.43 437.291 1047.44 535.512 1114.95 533.193C1182.46 530.875 1209.46 418.741 1276.97 430.799C1344.49 442.856 1405.24 557.679 1439 591.069" stroke="white" stroke-width="2" stroke-linecap="round"/>
<path d="M-1 428.573C28.9578 435.993 79.0844 485.057 142.797 464.188C206.511 443.32 237.312 327.476 304.823 328.404C372.333 329.331 399.338 457.046 466.848 468.64C534.359 480.234 561.363 379.88 628.873 384.053C696.384 388.227 723.388 490.529 790.899 488.674C858.409 486.819 885.413 379.787 952.924 375.149C1020.43 370.512 1047.44 468.733 1114.95 466.414C1182.46 464.095 1209.46 351.962 1276.97 364.019C1344.49 376.077 1405.24 490.9 1439 524.289" stroke="white" stroke-width="2" stroke-linecap="round"/>
<path d="M-1 361.794C28.9578 369.214 79.0844 418.278 142.797 397.41C206.511 376.541 237.312 260.698 304.823 261.626C372.333 262.553 399.338 390.268 466.848 401.862C534.359 413.455 561.363 313.101 628.873 317.275C696.384 321.449 723.388 423.75 790.899 421.895C858.409 420.041 885.413 313.008 952.924 308.371C1020.43 303.734 1047.44 401.955 1114.95 399.636C1182.46 397.317 1209.46 285.184 1276.97 297.241C1344.49 309.299 1405.24 424.121 1439 457.511" stroke="white" stroke-width="2" stroke-linecap="round"/>
<path d="M-1 295.015C28.9578 302.435 79.0844 351.499 142.797 330.631C206.511 309.762 237.312 193.919 304.823 194.846C372.333 195.774 399.338 323.489 466.848 335.082C534.359 346.676 561.363 246.322 628.873 250.496C696.384 254.669 723.388 356.971 790.899 355.116C858.409 353.261 885.413 246.229 952.924 241.592C1020.43 236.954 1047.44 335.175 1114.95 332.856C1182.46 330.538 1209.46 218.405 1276.97 230.462C1344.49 242.519 1405.24 357.342 1439 390.732" stroke="white" stroke-width="2" stroke-linecap="round"/>
<path d="M-1 228.236C28.9578 235.656 79.0844 284.72 142.797 263.851C206.511 242.983 237.312 127.14 304.823 128.067C372.333 128.995 399.338 256.71 466.848 268.303C534.359 279.897 561.363 179.543 628.873 183.716C696.384 187.89 723.388 290.192 790.899 288.337C858.409 286.482 885.413 179.45 952.924 174.812C1020.43 170.175 1047.44 268.396 1114.95 266.077C1182.46 263.758 1209.46 151.625 1276.97 163.683C1344.49 175.74 1405.24 290.563 1439 323.952" stroke="white" stroke-width="2" stroke-linecap="round"/>
<path d="M-1 161.457C28.9578 168.877 79.0844 217.941 142.797 197.072C206.511 176.204 237.312 60.3608 304.823 61.2883C372.333 62.2157 399.338 189.931 466.848 201.524C534.359 213.118 561.363 112.764 628.873 116.938C696.384 121.111 723.388 223.413 790.899 221.558C858.409 219.703 885.413 112.671 952.924 108.034C1020.43 103.396 1047.44 201.617 1114.95 199.298C1182.46 196.98 1209.46 84.8464 1276.97 96.9038C1344.49 108.961 1405.24 223.784 1439 257.174" stroke="white" stroke-width="2" stroke-linecap="round"/>
<path d="M-1 94.6776C28.9578 102.098 79.0844 151.162 142.797 130.293C206.511 109.425 237.312 -6.41853 304.823 -5.49104C372.333 -4.56356 399.338 123.151 466.848 134.745C534.359 146.339 561.363 45.9845 628.873 50.1582C696.384 54.3319 723.388 156.634 790.899 154.779C858.409 152.924 885.413 45.8918 952.924 41.2543C1020.43 36.6169 1047.44 134.838 1114.95 132.519C1182.46 130.2 1209.46 18.0671 1276.97 30.1245C1344.49 42.1818 1405.24 157.005 1439 190.394" stroke="white" stroke-width="2" stroke-linecap="round"/>
<path d="M-1 27.8988C28.9578 35.3187 79.0844 84.3828 142.797 63.5143C206.511 42.6458 237.312 -73.1973 304.823 -72.2699C372.333 -71.3424 399.338 56.3727 466.848 67.9663C534.359 79.5599 561.363 -20.7943 628.873 -16.6206C696.384 -12.4469 723.388 89.855 790.899 88C858.409 86.145 885.413 -20.887 952.924 -25.5245C1020.43 -30.1619 1047.44 68.059 1114.95 65.7403C1182.46 63.4216 1209.46 -48.7117 1276.97 -36.6543C1344.49 -24.597 1405.24 90.226 1439 123.616" stroke="white" stroke-width="2" stroke-linecap="round"/>
<path d="M-1 -38.8805C28.9578 -31.4606 79.0844 17.6035 142.797 -3.26498C206.511 -24.1334 237.312 -139.977 304.823 -139.049C372.333 -138.122 399.338 -10.4066 466.848 1.18696C534.359 12.7806 561.363 -87.5736 628.873 -83.3999C696.384 -79.2262 723.388 23.0757 790.899 21.2207C858.409 19.3657 885.413 -87.6663 952.924 -92.3038C1020.43 -96.9412 1047.44 1.27971 1114.95 -1.03901C1182.46 -3.35773 1209.46 -115.491 1276.97 -103.434C1344.49 -91.3763 1405.24 23.4467 1439 56.8362" stroke="white" stroke-width="2" stroke-linecap="round"/>
</g>
</g>
<defs>
<clipPath id="clip0_170_410">
<rect width="1440" height="679" fill="white"/>
</clipPath>
</defs>
</svg>
