<svg width="150" height="50" viewBox="0 0 150 50" fill="none" xmlns="http://www.w3.org/2000/svg">
<g clip-path="url(#clip0_58_44)">
<path d="M57.6017 42.8456C52.0202 39.2501 44.4454 38.6191 32.2292 42.0084C19.206 45.0688 14.8639 47.0306 9.16142 43.0923C6.97067 41.1577 6.18524 38.0428 6.77174 33.5559C8.13205 26.2415 11.8082 19.2026 18.3379 11.3947C21.9827 7.33308 25.3635 3.84746 29.8279 2.44777C33.2494 1.56971 32.9295 4.25864 32.5155 4.64321C32.0786 4.64321 31.3447 4.71202 30.7776 5.08214C30.3172 5.43914 29.0537 6.59189 28.9858 8.14252C28.8879 10.5163 31.3446 10.0222 32.4041 8.71889C33.5462 7.25021 35.2341 4.43771 33.9064 1.81646C33.3499 0.883455 32.3884 0.238643 31.1946 0.0190802C27.1067 -0.214545 23.2995 1.73414 19.7859 3.88852C12.1018 9.22646 5.95499 16.623 2.47686 24.7192C0.471548 29.6041 -1.34195 36.6016 1.37642 42.297C3.47924 46.2487 7.84499 48.3478 13.0535 47.9088C16.7066 47.525 21.1239 46.3443 24.0949 45.6315C27.0658 44.9175 42.2737 39.6898 47.2706 48.7882C47.2706 48.7882 48.9322 45.5626 53.0848 45.4938C56.4988 45.1788 61.4239 46.4822 65.0106 49.1163C63.8156 47.3193 60.4279 44.6709 57.6017 42.8456Z" fill="white"/>
<path d="M33.78 12.314C30.9356 10.4478 25.2188 14.0155 20.6398 20.1354C16.4526 25.6248 14.6445 32.0049 16.6121 34.9552C19.5392 38.4267 24.9729 33.3772 27.2837 30.6744L27.5818 30.3584C29.1533 28.6705 30.3673 26.6395 31.5424 24.6909C31.5424 24.6909 32.6224 22.907 32.6739 22.8245C33.3414 22.7015 34.1454 22.5093 35.0514 22.2485C35.0385 22.2894 31.5851 28.094 31.9374 30.9751C32.0471 31.8541 31.9633 35.065 35.0983 36.0391C39.2766 36.7394 42.6129 33.5005 45.5563 30.6189C45.5563 30.6189 46.0579 30.139 46.3416 29.8651C46.2698 30.1525 46.1762 30.536 46.1762 30.536C44.9529 34.79 46.6018 35.6825 47.6333 36.0119C50.7505 36.9181 54.4744 32.3894 54.4864 32.3894C54.3898 33.8159 54.1074 34.996 55.6112 35.9429C57.0306 36.451 58.467 35.6765 59.5588 34.9492C63.4916 32.1774 66.66 27.8392 69.2192 24.0892H67.5868C67.5675 24.0892 63.5588 29.8994 60.9557 31.1622C60.9516 31.1622 60.4779 31.4054 60.2049 31.213C59.8671 30.9247 60.0004 30.3254 60.2091 29.9009C60.2222 29.8732 70.2596 12.4642 70.2596 12.4642H65.5204C65.5204 12.4642 65.0027 13.3017 64.9605 13.3567C64.9286 13.3293 64.8527 13.1853 64.8 13.1163C61.8638 9.05467 55.2145 15.3022 50.2084 22.5472C48.2811 25.333 45.8273 28.4697 43.2829 30.7338C43.2829 30.7338 39.5136 34.189 37.9029 31.7065C37.3142 30.6635 37.4953 29.1385 37.8274 28.1371C39.7026 22.7992 42.9338 17.9547 46.6106 15.0316C47.6486 14.2225 48.7768 13.9885 49.3367 14.3317C49.8701 14.6478 49.9562 15.4293 49.6187 15.9646C48.7624 15.9372 48.0763 16.1975 47.5185 16.7739C46.4198 17.9266 46.038 19.0383 46.3873 20.0814C48.0844 22.4964 51.4689 17.7209 51.3053 14.8119C51.2468 13.7688 50.6903 12.781 49.8598 12.3003C48.6221 11.5597 46.734 11.7515 45.5121 12.3419C43.8763 12.9592 41.2869 15.1134 39.7755 16.7877C37.8728 18.8875 34.6095 21.22 33.5889 20.9589C33.9233 20.0665 36.6797 14.4269 33.78 12.314ZM56.6289 20.657C57.5509 19.381 60.2342 15.964 60.8884 15.3879C63.0885 13.4523 63.9679 14.3039 64.044 14.9073C61.9907 18.5847 59.5673 22.7977 57.2888 26.5852C57.2934 26.5717 56.5757 27.6691 56.5757 27.6691C55.5694 29.2057 54.5561 30.523 52.9033 31.4424C52.6676 31.5114 52.2791 31.5389 52.0206 31.3462C51.7093 31.1403 51.5865 30.7972 51.6216 30.4402C51.7206 29.2604 52.9219 25.6522 56.6289 20.657ZM30.8468 22.8661C30.8468 22.8661 30.8055 22.99 30.7851 23.0305C30.7798 23.0305 28.7188 26.392 28.7188 26.392C27.4749 28.0527 25.9219 30.139 23.9805 31.1403C23.4051 31.3325 22.6097 31.4562 22.2043 30.9489C21.345 29.9195 21.7879 28.4924 22.1477 27.3399L22.275 26.9281C23.3066 24.1291 24.9435 21.6586 26.5367 19.367C26.5566 19.3535 26.6012 19.3398 26.6173 19.3398C26.6211 19.3535 26.6274 19.3535 26.6303 19.381C27.63 21.3018 29.5046 22.1934 30.9066 22.6057C30.915 22.6057 30.924 22.6194 30.924 22.6469C30.9242 22.6878 30.9013 22.7431 30.8468 22.8661ZM32.7994 18.9009C32.7904 18.9282 31.8814 21.0138 31.8814 21.0138C31.7499 21.1235 31.5422 21.0687 31.3041 21.0138L30.8961 20.9448C29.6149 20.5471 28.6485 19.6962 28.3506 18.6809C27.9396 16.7049 29.6276 15.1542 30.3714 14.5919C31.0851 14.0975 32.1945 13.8369 32.8388 14.3448C33.2361 14.8115 33.3866 15.415 33.3866 16.0741C33.3868 16.9659 33.1116 17.9675 32.7994 18.9009Z" fill="white"/>
<path d="M92.713 25.2674C92.256 24.2797 91.1711 23.6484 90.015 23.7168C86.2607 24.0601 82.5885 27.1475 80.6605 31.5794C79.6487 33.8575 79.0965 35.7372 78.7345 38.7286C79.9018 37.3842 82.2831 35.1751 84.9853 33.9674C84.9853 33.9674 85.353 31.0996 87.228 28.5472C87.9375 27.4902 89.3575 25.7889 90.9518 26.2415C92.3447 26.7084 91.8551 30.5643 90.0038 34.2959C88.6339 37.0407 86.5376 39.7859 84.4166 41.6791C82.5414 43.271 79.767 45.1919 77.3396 43.7101C75.8108 42.8049 75.031 40.9107 75.1958 38.4682C75.9263 31.5387 79.0806 25.6381 83.5946 18.9144C88.2491 12.6708 93.3799 6.26261 100.292 2.84523C101.702 2.1318 103.007 1.96717 104.136 2.4063C104.136 2.4063 97.6474 5.97405 94.5546 12.5746C93.7678 14.249 92.6736 16.5125 93.7755 18.5161C94.3513 19.5588 95.3738 19.6413 96.1969 19.5864C99.988 18.7079 102.437 15.1677 104.438 11.9296C105.599 9.47336 106.63 7.0308 106.63 4.31373C106.63 3.98448 106.613 3.54555 106.585 3.21592C108.396 2.25573 112.11 3.95692 112.11 3.95692C115.013 4.91786 121.192 9.65223 123.277 10.5575C124.294 9.37755 125.965 7.59386 126.906 6.70173L125.544 5.86455C123.363 4.53348 121.058 3.27086 118.789 2.0223C113.637 -0.790391 109.443 0.197359 107.309 0.965921C106.47 1.26761 105.703 1.52842 105.703 1.52842C104.119 -0.200516 101.521 -0.0362662 99.6071 0.430609C92.7233 2.40648 86.332 7.2228 79.4798 15.5799C74.442 22.1255 71.3171 27.7792 69.6516 33.3639C68.3678 37.1234 67.9776 42.6535 71.1111 45.9333C73.7753 48.7181 77.3079 48.1149 79.8026 47.1134C85.2077 44.4513 90.0656 38.7151 92.4863 32.1147C93.0703 30.1527 93.7187 27.3809 92.713 25.2674ZM105.142 4.58842C104.426 12.7944 98.0475 17.6112 96.4693 17.9949C95.5129 18.1867 93.8809 17.7616 95.3378 14.3178C97.4833 9.67923 101.146 5.74136 105.077 3.72405C105.172 4.06717 105.17 4.28617 105.142 4.58842Z" fill="white"/>
<path d="M142.979 5.63092C139.548 7.5798 135.991 8.84186 131.686 8.40292C130.492 9.74805 129.331 11.1339 128.26 12.5607C134.303 14.0977 140.709 10.6809 144.282 7.42905C148.062 4.1493 150 0.0192337 150 0.0192337C150 0.0192337 147.167 3.25736 142.979 5.63092Z" fill="white"/>
<path d="M75.597 16.5894L78.1367 12.4644H73.6359L71.0972 16.5894H75.597Z" fill="white"/>
<path d="M131.668 43.2275C131.184 43.5567 130.504 43.3036 130.758 42.5491C131.391 40.628 133.909 36.713 133.909 36.713L140.92 24.2769H136.117C135.889 24.6519 135.401 25.513 135.401 25.513C135.179 25.1429 134.514 24.3198 134.241 24.142C133.067 23.4005 131.346 23.7511 130.158 24.4233C124.994 27.4426 121.227 33.4079 118.256 38.06C118.256 38.06 115.128 43.2312 113.392 43.6158C112.037 43.7257 112.176 41.8998 112.235 41.4744C112.759 38.4001 113.976 35.4775 115.202 32.8291C117.696 31.1002 120.543 28.8361 123.129 26.3525C128.743 20.9866 133.475 14.9077 134.167 13.5492C134.167 13.5492 133.418 13.7004 132.534 13.7275C128.215 19.7515 119.378 28.5067 116.699 29.81C117.886 26.9553 125.554 13.3295 132.08 6.81161L133.106 5.8233C134.694 4.27267 136.34 2.68098 137.622 2.42017C137.757 2.40648 137.931 2.42017 138.082 2.7363C138.139 3.94361 137.69 4.83573 137.174 5.85105L136.451 7.33323C136.451 7.33323 137.475 7.14105 138.147 6.92092C138.927 5.45336 139.791 3.80617 139.473 1.84436C139.366 1.21305 138.909 0.732858 138.312 0.622983C136.366 0.252483 134.244 1.69286 132.537 2.85967L132.468 2.90055C123.693 9.77542 116.283 19.6829 109.805 33.2131C109.335 33.5694 107.521 33.9952 107.213 33.7891C107.852 32.4721 108.658 30.7015 109.061 28.7804C109.131 28.2314 109.196 27.6691 109.196 27.1203C109.196 25.9392 108.912 24.8281 107.854 24.0599C106.613 23.4423 105.08 23.7307 104.047 24.197C99.4157 26.1181 95.9547 30.8664 93.4572 34.7767C92.1139 37.2611 90.7746 39.9219 90.4037 42.9687C90.1425 45.356 90.6743 46.8929 92.0316 47.6617C93.4275 48.3747 95.1844 47.6335 95.8746 47.2771C100.566 44.8072 103.844 39.8538 106.428 35.3251C106.531 35.3116 107.941 35.2707 109.008 34.9959C109.023 34.9959 109.029 34.9959 109.052 35.0103C108.991 35.2152 108.44 36.8624 108.44 36.8624C106.802 41.6649 106.045 44.9311 107.592 46.8656C109.802 49.5965 113.462 46.7699 116.438 43.0368C115.799 47.5102 118.118 48.2103 119.885 47.8675C121.915 47.3189 124.177 45.1503 125.227 44.0392C124.89 45.3425 124.982 47.6755 126.828 47.9086C128.094 48.1426 129.041 47.4541 130.138 46.8639C134.069 44.723 138.776 37.5892 139.998 35.5267H138.395C136.658 38.1519 134.448 41.5938 131.668 43.2275ZM96.3767 42.7497C96.1274 42.3792 96.0447 41.974 96.0364 41.536C95.9886 38.8454 98.8834 34.0269 100.927 31.4019C100.931 31.4019 100.931 31.4019 100.931 31.4019C101.787 33.2769 103.727 34.4821 104.897 34.99C103.443 38.2287 98.4571 45.1647 96.3767 42.7497ZM105.718 33.5422C105.579 33.6387 103.134 32.815 102.661 30.551C102.26 28.6017 103.603 27.0787 104.901 26.3109C105.459 25.8715 106.298 25.721 106.914 25.9396C107.486 26.3244 107.641 27.011 107.641 27.7509C107.641 28.2046 107.581 28.6707 107.528 29.096C107.528 29.096 107.518 29.1787 107.516 29.1924C107.108 30.715 106.485 32.2109 105.718 33.5422ZM125.329 41.8854C125.327 41.8854 124.865 42.2969 124.865 42.2969C124.206 42.8866 123.527 43.5179 122.708 43.2022C122.481 43.1199 122.322 42.8184 122.284 42.5844C122.247 40.8965 123.007 39.3326 123.744 37.8097L123.933 37.4114C126.053 33.8712 128.518 29.6997 132.137 26.8047C132.747 26.3647 133.409 25.9949 134.108 26.2833C134.268 26.4339 134.455 26.6949 134.455 26.9553C134.455 27.038 134.382 27.2574 134.34 27.3256C133.329 28.9593 132.366 30.6744 131.43 32.3208C129.6 35.5732 127.702 38.9347 125.329 41.8854Z" fill="white"/>
</g>
<defs>
<clipPath id="clip0_58_44">
<rect width="150" height="49.1163" fill="white"/>
</clipPath>
</defs>
</svg>
