<svg width="1440" height="1024" viewBox="0 0 1440 1024" fill="none" xmlns="http://www.w3.org/2000/svg">
<g clip-path="url(#clip0_116_402)">
<rect width="1440" height="1024" fill="#ED6624"/>
<g opacity="0.2">
<path d="M0 1088.98C29.9578 1096.35 80.0844 1145.13 143.797 1124.38C207.511 1103.64 238.312 988.476 305.823 989.398C373.333 990.32 400.338 1117.28 467.848 1128.81C535.359 1140.33 562.363 1040.57 629.873 1044.72C697.384 1048.87 724.388 1150.57 791.899 1148.72C859.409 1146.88 886.413 1040.48 953.924 1035.87C1021.43 1031.26 1048.44 1128.9 1115.95 1126.59C1183.46 1124.29 1210.46 1012.82 1277.97 1024.8C1345.49 1036.79 1406.24 1150.94 1440 1184.13" stroke="white" stroke-width="2" stroke-linecap="round"/>
<path d="M0 1022.59C29.9578 1029.97 80.0844 1078.74 143.797 1058C207.511 1037.25 238.312 922.09 305.823 923.012C373.333 923.934 400.338 1050.9 467.848 1062.42C535.359 1073.95 562.363 974.185 629.873 978.334C697.384 982.483 724.388 1084.18 791.899 1082.34C859.409 1080.49 886.413 974.092 953.924 969.482C1021.43 964.872 1048.44 1062.51 1115.95 1060.21C1183.46 1057.9 1210.46 946.432 1277.97 958.418C1345.49 970.404 1406.24 1084.55 1440 1117.74" stroke="white" stroke-width="2" stroke-linecap="round"/>
<path d="M0 956.205C29.9578 963.581 80.0844 1012.36 143.797 991.61C207.511 970.865 238.312 855.704 305.823 856.626C373.333 857.548 400.338 984.511 467.848 996.036C535.359 1007.56 562.363 907.798 629.873 911.947C697.384 916.097 724.388 1017.8 791.899 1015.95C859.409 1014.11 886.413 907.706 953.924 903.096C1021.43 898.486 1048.44 996.128 1115.95 993.823C1183.46 991.518 1210.46 880.045 1277.97 892.032C1345.49 904.018 1406.24 1018.16 1440 1051.36" stroke="white" stroke-width="2" stroke-linecap="round"/>
<path d="M0 889.82C29.9578 897.196 80.0844 945.971 143.797 925.225C207.511 904.48 238.312 789.319 305.823 790.241C373.333 791.163 400.338 918.126 467.848 929.651C535.359 941.176 562.363 841.414 629.873 845.563C697.384 849.712 724.388 951.411 791.899 949.567C859.409 947.723 886.413 841.321 953.924 836.711C1021.43 832.101 1048.44 929.743 1115.95 927.438C1183.46 925.133 1210.46 813.661 1277.97 825.647C1345.49 837.633 1406.24 951.78 1440 984.973" stroke="white" stroke-width="2" stroke-linecap="round"/>
<path d="M0 823.434C29.9578 830.81 80.0844 879.585 143.797 858.84C207.511 838.094 238.312 722.933 305.823 723.855C373.333 724.777 400.338 851.74 467.848 863.265C535.359 874.791 562.363 775.028 629.873 779.177C697.384 783.326 724.388 885.025 791.899 883.181C859.409 881.337 886.413 774.935 953.924 770.325C1021.43 765.715 1048.44 863.358 1115.95 861.052C1183.46 858.747 1210.46 747.275 1277.97 759.261C1345.49 771.247 1406.24 885.394 1440 918.587" stroke="white" stroke-width="2" stroke-linecap="round"/>
<path d="M0 757.048C29.9578 764.424 80.0844 813.199 143.797 792.454C207.511 771.708 238.312 656.547 305.823 657.469C373.333 658.392 400.338 785.354 467.848 796.879C535.359 808.405 562.363 708.642 629.873 712.791C697.384 716.94 724.388 818.639 791.899 816.795C859.409 814.951 886.413 708.55 953.924 703.939C1021.43 699.329 1048.44 796.972 1115.95 794.667C1183.46 792.362 1210.46 680.889 1277.97 692.875C1345.49 704.862 1406.24 819.008 1440 852.201" stroke="white" stroke-width="2" stroke-linecap="round"/>
<path d="M0 690.663C29.9578 698.039 80.0844 746.814 143.797 726.068C207.511 705.323 238.312 590.162 305.823 591.084C373.333 592.006 400.338 718.969 467.848 730.494C535.359 742.019 562.363 642.256 629.873 646.406C697.384 650.555 724.388 752.254 791.899 750.41C859.409 748.566 886.413 642.164 953.924 637.554C1021.43 632.944 1048.44 730.586 1115.95 728.281C1183.46 725.976 1210.46 614.504 1277.97 626.49C1345.49 638.476 1406.24 752.623 1440 785.816" stroke="white" stroke-width="2" stroke-linecap="round"/>
<path d="M0 624.277C29.9578 631.653 80.0844 680.428 143.797 659.683C207.511 638.937 238.312 523.777 305.823 524.699C373.333 525.621 400.338 652.583 467.848 664.109C535.359 675.634 562.363 575.871 629.873 580.02C697.384 584.169 724.388 685.868 791.899 684.024C859.409 682.18 886.413 575.779 953.924 571.169C1021.43 566.558 1048.44 664.201 1115.95 661.896C1183.46 659.591 1210.46 548.118 1277.97 560.104C1345.49 572.091 1406.24 686.237 1440 719.43" stroke="white" stroke-width="2" stroke-linecap="round"/>
<path d="M0 557.891C29.9578 565.267 80.0844 614.042 143.797 593.297C207.511 572.551 238.312 457.391 305.823 458.313C373.333 459.235 400.338 586.197 467.848 597.723C535.359 609.248 562.363 509.485 629.873 513.634C697.384 517.783 724.388 619.482 791.899 617.638C859.409 615.794 886.413 509.393 953.924 504.783C1021.43 500.173 1048.44 597.815 1115.95 595.51C1183.46 593.205 1210.46 481.732 1277.97 493.718C1345.49 505.705 1406.24 619.851 1440 653.044" stroke="white" stroke-width="2" stroke-linecap="round"/>
<path d="M0 491.506C29.9578 498.882 80.0844 547.657 143.797 526.911C207.511 506.166 238.312 391.005 305.823 391.927C373.333 392.849 400.338 519.812 467.848 531.337C535.359 542.862 562.363 443.099 629.873 447.248C697.384 451.398 724.388 553.097 791.899 551.253C859.409 549.409 886.413 443.007 953.924 438.397C1021.43 433.787 1048.44 531.429 1115.95 529.124C1183.46 526.819 1210.46 415.346 1277.97 427.333C1345.49 439.319 1406.24 553.466 1440 586.658" stroke="white" stroke-width="2" stroke-linecap="round"/>
<path d="M0 425.12C29.9578 432.496 80.0844 481.271 143.797 460.526C207.511 439.78 238.312 324.619 305.823 325.541C373.333 326.463 400.338 453.426 467.848 464.951C535.359 476.477 562.363 376.714 629.873 380.863C697.384 385.012 724.388 486.711 791.899 484.867C859.409 483.023 886.413 376.621 953.924 372.011C1021.43 367.401 1048.44 465.043 1115.95 462.738C1183.46 460.433 1210.46 348.961 1277.97 360.947C1345.49 372.933 1406.24 487.08 1440 520.273" stroke="white" stroke-width="2" stroke-linecap="round"/>
<path d="M0 358.734C29.9578 366.11 80.0844 414.885 143.797 394.14C207.511 373.394 238.312 258.234 305.823 259.156C373.333 260.078 400.338 387.04 467.848 398.566C535.359 410.091 562.363 310.328 629.873 314.477C697.384 318.626 724.388 420.325 791.899 418.481C859.409 416.637 886.413 310.236 953.924 305.626C1021.43 301.016 1048.44 398.658 1115.95 396.353C1183.46 394.048 1210.46 282.575 1277.97 294.561C1345.49 306.548 1406.24 420.694 1440 453.887" stroke="white" stroke-width="2" stroke-linecap="round"/>
<path d="M0 292.348C29.9578 299.724 80.0844 348.5 143.797 327.754C207.511 307.008 238.312 191.848 305.823 192.77C373.333 193.692 400.338 320.654 467.848 332.18C535.359 343.705 562.363 243.942 629.873 248.091C697.384 252.24 724.388 353.939 791.899 352.095C859.409 350.251 886.413 243.85 953.924 239.24C1021.43 234.63 1048.44 332.272 1115.95 329.967C1183.46 327.662 1210.46 216.189 1277.97 228.175C1345.49 240.162 1406.24 354.308 1440 387.501" stroke="white" stroke-width="2" stroke-linecap="round"/>
<path d="M0 225.962C29.9578 233.339 80.0844 282.114 143.797 261.368C207.511 240.623 238.312 125.462 305.823 126.384C373.333 127.306 400.338 254.269 467.848 265.794C535.359 277.319 562.363 177.556 629.873 181.705C697.384 185.854 724.388 287.554 791.899 285.71C859.409 283.866 886.413 177.464 953.924 172.854C1021.43 168.244 1048.44 265.886 1115.95 263.581C1183.46 261.276 1210.46 149.803 1277.97 161.79C1345.49 173.776 1406.24 287.922 1440 321.115" stroke="white" stroke-width="2" stroke-linecap="round"/>
<path d="M0 159.577C29.9578 166.953 80.0844 215.728 143.797 194.983C207.511 174.237 238.312 59.0766 305.823 59.9986C373.333 60.9206 400.338 187.883 467.848 199.409C535.359 210.934 562.363 111.171 629.873 115.32C697.384 119.469 724.388 221.168 791.899 219.324C859.409 217.48 886.413 111.079 953.924 106.469C1021.43 101.858 1048.44 199.501 1115.95 197.196C1183.46 194.891 1210.46 83.418 1277.97 95.4043C1345.49 107.391 1406.24 221.537 1440 254.73" stroke="white" stroke-width="2" stroke-linecap="round"/>
<path d="M0 93.1914C29.9578 100.568 80.0844 149.343 143.797 128.597C207.511 107.852 238.312 -7.30922 305.823 -6.38719C373.333 -5.46517 400.338 121.497 467.848 133.023C535.359 144.548 562.363 44.7851 629.873 48.9342C697.384 53.0833 724.388 154.783 791.899 152.938C859.409 151.094 886.413 44.6929 953.924 40.0828C1021.43 35.4727 1048.44 133.115 1115.95 130.81C1183.46 128.505 1210.46 17.0322 1277.97 29.0185C1345.49 41.0048 1406.24 155.151 1440 188.344" stroke="white" stroke-width="2" stroke-linecap="round"/>
<path d="M0 26.8056C29.9578 34.1818 80.0844 82.9568 143.797 62.2113C207.511 41.4658 238.312 -73.695 305.823 -72.773C373.333 -71.8509 400.338 55.1117 467.848 66.637C535.359 78.1623 562.363 -21.6007 629.873 -17.4515C697.384 -13.3024 724.388 88.3968 791.899 86.5527C859.409 84.7087 886.413 -21.6929 953.924 -26.303C1021.43 -30.9131 1048.44 66.7292 1115.95 64.4242C1183.46 62.1191 1210.46 -49.3536 1277.97 -37.3673C1345.49 -25.381 1406.24 88.7656 1440 121.958" stroke="white" stroke-width="2" stroke-linecap="round"/>
<path d="M0 -39.58C29.9578 -32.2038 80.0844 16.5713 143.797 -4.17428C207.511 -24.9198 238.312 -140.081 305.823 -139.159C373.333 -138.237 400.338 -11.2739 467.848 0.251433C535.359 11.7767 562.363 -87.9862 629.873 -83.8371C697.384 -79.688 724.388 22.0112 791.899 20.1671C859.409 18.3231 886.413 -88.0784 953.924 -92.6886C1021.43 -97.2987 1048.44 0.343635 1115.95 -1.96142C1183.46 -4.26648 1210.46 -115.739 1277.97 -103.753C1345.49 -91.7665 1406.24 22.38 1440 55.5729" stroke="white" stroke-width="2" stroke-linecap="round"/>
</g>
</g>
<defs>
<clipPath id="clip0_116_402">
<rect width="1440" height="1024" fill="white"/>
</clipPath>
</defs>
</svg>
