<svg width="150" height="59" viewBox="0 0 150 59" fill="none" xmlns="http://www.w3.org/2000/svg">
<g clip-path="url(#clip0_61_544)">
<path d="M36.6966 19.98C36.6442 20.207 36.6442 20.4341 36.714 20.4865C36.8887 20.6786 45.7266 20.6786 45.8314 20.504C45.8838 20.4166 45.8838 20.1721 45.8314 19.9625C45.7441 19.5782 45.7266 19.5782 41.2727 19.5782H36.8013L36.6966 19.98ZM15.0734 22.268C15.021 22.3728 14.8288 22.4602 14.6716 22.4602C14.1476 22.4602 12.9949 23.1763 12.3486 23.8924C10.7941 25.6041 11.1959 28.3987 13.1521 29.5689C14.0079 30.0754 15.5799 30.7392 16.6453 31.0186C17.6234 31.2632 18.7762 31.857 19.405 32.3985C20.5403 33.4115 20.4355 35.1756 19.143 36.4157C17.5361 37.9702 14.759 38.075 12.174 36.6602C11.4404 36.2585 11.2657 36.2236 11.1435 36.4506C10.9339 36.765 11.1085 37.3414 11.4753 37.5685C12.5932 38.2496 13.3617 38.4068 15.6148 38.4243C18.1299 38.4418 18.5142 38.337 20.0163 37.1493C21.4311 36.0489 21.9551 34.7215 21.7105 32.8526C21.5533 31.4902 20.7324 30.7217 18.4269 29.7436C17.606 29.3943 16.7326 29.0799 16.0515 28.9227C15.7371 28.8353 15.3878 28.6956 15.283 28.5908C15.1782 28.486 14.9686 28.3987 14.8288 28.3987C14.3922 28.3987 13.3093 27.2983 13.0473 26.5997C12.6456 25.4644 13.2918 24.1893 14.6192 23.4907C15.248 23.1588 15.5624 23.1239 17.047 23.1938C18.619 23.2462 18.8111 23.2986 19.5796 23.8225C20.4879 24.4339 20.8896 24.5212 21.0293 24.1369C21.2739 23.5256 20.418 22.8444 18.9159 22.4252C17.9204 22.1458 15.2306 22.041 15.0734 22.268ZM1.17024 22.5824L0 22.6523L0.0349323 30.3724L0.0523986 38.0924L4.41896 38.1972C8.22659 38.2846 8.82045 38.2496 9.01258 38.0226C9.13484 37.8654 9.2047 37.6383 9.18724 37.4811C9.13484 37.2541 8.59339 37.2191 5.46693 37.2191H1.79902V30.058L5.13507 30.1278C8.13926 30.1802 8.48859 30.1453 8.59339 29.8833C8.64579 29.7261 8.64579 29.5165 8.59339 29.4117C8.52352 29.3069 7.21355 29.2545 5.13507 29.2895L1.79902 29.3419V23.4208L5.29227 23.4907C8.24406 23.5431 8.82045 23.5081 9.01258 23.2986C9.13484 23.1414 9.18724 22.8968 9.11737 22.7396C9.03004 22.4951 8.61085 22.4602 5.65906 22.4951C3.8251 22.5126 1.79902 22.5475 1.17024 22.5824ZM22.3742 22.5824C22.0249 22.7047 22.1123 23.1239 22.514 23.351C22.776 23.4907 23.5619 23.5081 25.1339 23.4208L27.3871 23.2986L27.422 30.6868L27.4744 38.0924L28.2429 38.1448C28.6621 38.1798 29.0813 38.1274 29.1861 38.0226C29.2909 37.9178 29.3607 35.2629 29.3782 30.6344L29.3957 23.4208L31.7711 23.4732C33.7622 23.5256 34.1639 23.4907 34.3561 23.2636C34.4783 23.1064 34.5482 22.8794 34.4958 22.7396C34.4085 22.5475 33.378 22.4951 28.4874 22.5126C25.2387 22.5126 22.479 22.5475 22.3742 22.5824ZM38.0939 22.5824L36.8188 22.6523V30.32C36.8188 34.5293 36.8712 38.0226 36.9585 38.0575C37.0284 38.1099 39.037 38.1798 41.4124 38.1972C45.4471 38.2671 45.7615 38.2496 45.9362 37.9527C46.0585 37.7257 46.041 37.551 45.8663 37.3589C45.6742 37.1318 45.1677 37.0969 42.146 37.1493L38.6528 37.2191L38.5654 33.7608C38.513 31.5601 38.548 30.2501 38.6528 30.1802C38.7401 30.1278 40.2771 30.0755 42.0587 30.058C45.1677 30.058 45.2899 30.0405 45.2899 29.7087C45.2899 29.3768 45.1677 29.3593 42.146 29.3244C40.4169 29.3069 38.8973 29.2895 38.775 29.2895C38.6004 29.272 38.5654 28.6258 38.6004 26.3377L38.6528 23.4208H45.8139V22.5475L42.5827 22.53C40.8011 22.53 38.775 22.5475 38.0939 22.5824ZM50.1281 22.6174L49.0277 22.7222V30.3025C49.0277 34.4769 49.0801 37.9353 49.15 37.9877C49.2722 38.1099 57.7608 38.3195 58.0927 38.2147C58.2149 38.1623 58.3023 37.9353 58.2673 37.6733L58.215 37.2191L54.5994 37.2366L50.9839 37.2715L50.9315 33.7958C50.8966 31.8745 50.8966 30.2501 50.9315 30.1802C50.949 30.1104 52.3987 30.0755 54.1628 30.1104C55.9618 30.1453 57.4464 30.0929 57.5862 29.9881C57.7259 29.9008 57.7783 29.7087 57.7084 29.534C57.6211 29.272 57.2718 29.2371 54.285 29.3069L50.9665 29.3593V23.351L54.4772 23.3859C57.691 23.4208 58.0228 23.3859 58.1975 23.1064C58.3547 22.8619 58.3372 22.7571 58.1276 22.6348C57.8482 22.4602 52.0144 22.4427 50.1281 22.6174ZM67.8039 22.6698C67.7166 22.8095 67.6816 38.0226 67.769 38.1099C67.8039 38.1274 69.7776 38.1798 72.1705 38.1972C76.1528 38.2496 76.5196 38.2147 76.6768 37.9353C76.7641 37.7781 76.799 37.5161 76.7466 37.3589C76.6418 37.1143 76.1877 37.0969 73.0089 37.1493L69.3933 37.2191L69.4108 29.9183C69.4283 25.9185 69.3759 22.6348 69.3235 22.6174C68.7646 22.5126 67.8738 22.5475 67.8039 22.6698ZM84.2047 22.5824C84.0824 22.6174 83.9776 22.7746 83.9776 22.9143C83.9776 23.054 83.7331 23.6828 83.4362 24.3291C82.6677 26.0408 82.493 26.4774 82.1262 27.3507C81.8468 28.0668 81.4101 29.1497 81.0084 30.058C80.9385 30.2501 80.4669 31.3854 79.9604 32.5906C78.8251 35.3503 78.8775 35.2455 78.2138 36.6602C77.6374 37.8829 77.6199 38.3544 78.1614 38.3544C78.598 38.3544 79.2618 37.8654 79.2618 37.5335C79.2618 37.2715 79.5936 36.4157 80.0652 35.5074C80.2049 35.228 80.3097 34.9311 80.3097 34.8263C80.3097 34.6341 80.694 33.7084 81.1481 32.7827L81.445 32.1889L84.7636 32.1714C87.9425 32.1539 88.0822 32.1714 88.1346 32.5033C88.2045 32.9748 88.9031 34.7564 89.497 35.9616C89.6367 36.241 89.7415 36.5554 89.7415 36.6777C89.7415 37.027 90.283 38.0226 90.51 38.0924C90.6148 38.1274 91.034 38.1972 91.4532 38.2322C92.4662 38.3544 92.5361 38.0924 91.8374 36.6428C91.5231 35.9965 91.1563 35.228 91.034 34.9485C90.9292 34.6516 90.6847 34.1101 90.51 33.7259C90.3528 33.3416 90.1083 32.7827 89.986 32.5033C89.8812 32.2063 89.6542 31.6998 89.5144 31.368C89.3747 31.0361 89.1302 30.4772 88.9905 30.1453C88.8507 29.8135 88.6062 29.2545 88.4665 28.9227C88.3267 28.5908 88.0822 28.0144 87.925 27.6476C87.7678 27.2983 87.5233 26.7045 87.3661 26.3377C87.2089 25.9884 86.9644 25.412 86.8246 25.0801C86.6849 24.7483 86.4579 24.2417 86.3181 23.9797C86.1784 23.7003 86.0736 23.351 86.0736 23.1763C86.0736 23.0191 85.9863 22.792 85.864 22.6698C85.6544 22.4602 84.6239 22.4078 84.2047 22.5824ZM85.0256 24.7308C85.0256 24.9229 85.1304 25.3246 85.2701 25.639C85.4099 25.9534 85.6544 26.5647 85.8116 27.0014C86.388 28.5035 87.0168 29.9707 87.4185 30.7217C87.5582 31.0012 87.6456 31.2632 87.5932 31.3156C87.4884 31.4204 81.8468 31.3854 81.742 31.2806C81.6721 31.2108 82.1437 30.0754 82.6677 29.0449C82.8074 28.7655 82.9297 28.4686 82.9297 28.3638C82.9297 28.2764 83.0519 27.9096 83.2091 27.5603C83.3663 27.1935 83.5934 26.6521 83.7331 26.3377C83.8728 26.0233 83.9776 25.6216 83.9776 25.4469C83.9776 25.0452 84.6588 24.1719 84.8684 24.2941C84.9557 24.364 85.0256 24.5561 85.0256 24.7308ZM94.0033 22.5824C93.881 22.6174 93.8461 24.626 93.8985 28.7829C93.9509 34.5293 93.9683 34.9485 94.3002 35.6122C94.6844 36.3458 96.0992 37.8305 96.4311 37.8305C96.5533 37.8305 96.8852 37.9702 97.1646 38.1274C97.5838 38.3544 98.1777 38.4243 99.9592 38.4243C102.09 38.4418 102.282 38.4068 103.208 37.9702C104.238 37.4462 105.182 36.5554 105.723 35.5598C106.037 35.0009 106.072 34.4769 106.125 28.8528C106.16 24.9928 106.125 22.7047 106.003 22.5824C105.915 22.4951 105.653 22.4602 105.426 22.5126L105.024 22.6174V28.6083C105.024 34.5817 105.024 34.5992 104.605 35.3503C104.099 36.276 103.121 37.0969 102.37 37.2366C102.055 37.289 101.741 37.4113 101.688 37.4986C101.531 37.7606 99.2082 37.6733 98.265 37.3589C97.1472 36.9921 96.2215 36.0664 95.8023 34.8961C95.5228 34.1101 95.4879 33.429 95.5228 28.4162C95.5403 25.3246 95.5053 22.7396 95.4355 22.6698C95.2958 22.5475 94.3002 22.4776 94.0033 22.5824ZM110.526 22.5824L109.566 22.6523L109.601 30.285C109.618 34.4769 109.636 37.9702 109.636 38.0226C109.653 38.0925 110.806 38.1972 112.238 38.2671C114.928 38.3894 117.251 38.1274 118.508 37.551C118.805 37.4113 119.102 37.3065 119.155 37.3065C119.434 37.3065 121.181 35.8742 121.635 35.2629C122.333 34.3372 122.665 33.5862 122.997 32.1365C123.364 30.5121 123.347 29.7785 122.945 28.1018C122.403 25.8486 121.286 24.2417 119.748 23.4907C117.827 22.565 117.915 22.565 114.631 22.5475C112.902 22.53 111.05 22.5475 110.526 22.5824ZM116.936 23.5955C119.137 24.1719 119.871 24.8356 120.901 27.2459C121.303 28.1716 121.32 32.5382 120.919 33.3416C120.779 33.6211 120.657 33.9355 120.657 34.0228C120.657 34.3197 119.521 35.6996 118.893 36.1362C117.722 36.9921 116.779 37.1842 113.932 37.2017L111.312 37.2191L111.26 30.4946C111.242 26.7918 111.26 23.6653 111.312 23.5605C111.435 23.2287 115.626 23.2636 116.936 23.5955ZM127.067 22.5824L125.897 22.6523L125.932 30.3724L125.984 38.0924L130.35 38.1972C132.761 38.2496 134.804 38.2496 134.927 38.2147C135.258 38.1099 135.398 37.4637 135.136 37.2715C134.997 37.1842 133.372 37.1318 131.398 37.1667L127.905 37.2191V30.058L131.119 30.1278C134.42 30.1802 134.752 30.1278 134.507 29.4991C134.42 29.2895 133.844 29.2545 131.154 29.2895L127.905 29.3419V23.4208H131.381C134.525 23.4208 134.874 23.3859 135.049 23.1064C135.189 22.8619 135.189 22.7571 134.979 22.6348C134.735 22.4776 129.774 22.4427 127.067 22.5824ZM139.293 22.6174L138.28 22.7222V30.285C138.298 34.4595 138.333 37.9353 138.385 38.0226C138.455 38.1099 138.839 38.1798 139.276 38.1798C139.887 38.1798 140.044 38.1099 140.044 37.8654C140.044 37.7082 140.079 35.9965 140.097 34.0752L140.132 30.582L141.704 30.6344C143.223 30.6868 143.293 30.7217 143.747 31.2457C144.009 31.5601 144.236 31.857 144.236 31.9269C144.236 31.9967 144.585 32.5557 145.022 33.1844C145.459 33.8307 145.808 34.3721 145.808 34.4071C145.808 34.4595 146.14 34.9835 146.542 35.5948C147.52 37.0445 147.694 37.3414 147.834 37.6907C147.904 37.8654 148.271 38.0575 148.795 38.1623C149.983 38.4243 150 38.4243 150 37.8305C150 37.5335 149.93 37.3065 149.843 37.3065C149.755 37.3065 148.76 35.9266 147.642 34.2499C146.524 32.5731 145.529 31.1584 145.441 31.106C145.354 31.0361 145.284 30.844 145.284 30.6693C145.284 30.4248 145.494 30.2676 146.035 30.1104C147.607 29.6563 148.812 28.521 149.039 27.2983C149.109 26.9315 149.109 26.2154 149.039 25.6914C148.952 24.9229 148.812 24.626 148.253 24.0496C147.031 22.792 146.297 22.5824 143.101 22.53C141.564 22.5126 139.852 22.5475 139.293 22.6174ZM143.852 23.3859C145.337 23.4383 146.524 23.9797 147.013 24.8356C147.537 25.7089 147.52 27.3333 146.996 28.1018C146.018 29.4641 145.109 29.8135 142.28 29.8833L140.044 29.9183V26.6521C140.044 24.853 140.079 23.351 140.132 23.316C140.167 23.2636 140.76 23.2636 141.442 23.2811C142.105 23.316 143.188 23.351 143.852 23.3859Z" fill="white"/>
</g>
<defs>
<clipPath id="clip0_61_544">
<rect width="150" height="58.02" fill="white"/>
</clipPath>
</defs>
</svg>
