<svg width="129" height="31" viewBox="0 0 129 31" fill="none" xmlns="http://www.w3.org/2000/svg">
<path d="M12 8C7 8 2.73 11.11 1 15.5C2.73 19.89 7 23 12 23C17 23 21.27 19.89 23 15.5C21.27 11.11 17 8 12 8ZM12 20.5C9.24 20.5 7 18.26 7 15.5C7 12.74 9.24 10.5 12 10.5C14.76 10.5 17 12.74 17 15.5C17 18.26 14.76 20.5 12 20.5ZM12 12.5C10.34 12.5 9 13.84 9 15.5C9 17.16 10.34 18.5 12 18.5C13.66 18.5 15 17.16 15 15.5C15 13.84 13.66 12.5 12 12.5Z" fill="black"/>
<path d="M35.32 24.288C33.96 24.288 32.784 23.928 31.792 23.208C30.816 22.488 30.064 21.48 29.536 20.184C29.024 18.888 28.768 17.36 28.768 15.6C28.768 13.856 29.024 12.336 29.536 11.04C30.064 9.728 30.816 8.712 31.792 7.992C32.784 7.272 33.96 6.912 35.32 6.912C37.048 6.912 38.44 7.392 39.496 8.352C40.552 9.296 41.168 10.56 41.344 12.144H39.112C38.952 11.2 38.552 10.408 37.912 9.768C37.272 9.128 36.408 8.808 35.32 8.808C33.928 8.808 32.832 9.416 32.032 10.632C31.232 11.832 30.832 13.488 30.832 15.6C30.832 17.728 31.232 19.392 32.032 20.592C32.832 21.792 33.928 22.392 35.32 22.392C36.456 22.392 37.328 22.088 37.936 21.48C38.56 20.872 38.952 20.088 39.112 19.128H41.344C41.088 20.728 40.448 21.992 39.424 22.92C38.416 23.832 37.048 24.288 35.32 24.288ZM44.4066 24V22.272H47.4546V14.424C47.4546 14.024 47.2626 13.824 46.8786 13.824H44.7186V12.096H47.6226C48.1506 12.096 48.5746 12.24 48.8946 12.528C49.2146 12.816 49.3746 13.24 49.3746 13.8V14.304H49.4706C49.6626 13.504 50.0226 12.888 50.5506 12.456C51.0946 12.024 51.8466 11.808 52.8066 11.808H54.9906V13.944H52.5186C51.5426 13.944 50.7906 14.272 50.2626 14.928C49.7346 15.568 49.4706 16.392 49.4706 17.4V22.272H53.2146V24H44.4066ZM64.1973 24.288C63.0933 24.288 62.1013 24.088 61.2213 23.688C60.3573 23.272 59.6613 22.672 59.1333 21.888C58.6053 21.104 58.3173 20.144 58.2693 19.008H60.3333C60.3653 19.968 60.7173 20.784 61.3893 21.456C62.0613 22.112 62.9973 22.44 64.1973 22.44C65.3653 22.44 66.2693 22.144 66.9093 21.552C67.5493 20.944 67.8693 20.12 67.8693 19.08C67.8693 18.36 67.6853 17.768 67.3173 17.304C66.9493 16.824 66.4533 16.472 65.8293 16.248C65.2213 16.008 64.5413 15.888 63.7893 15.888H62.3253V14.064H63.5973C64.6853 14.064 65.5493 13.832 66.1893 13.368C66.8453 12.904 67.1733 12.224 67.1733 11.328C67.1733 10.576 66.9093 9.96 66.3813 9.48C65.8693 9 65.1333 8.76 64.1733 8.76C63.2453 8.76 62.4933 9.024 61.9173 9.552C61.3413 10.064 61.0133 10.736 60.9333 11.568H58.9173C58.9493 10.656 59.1893 9.856 59.6373 9.168C60.0853 8.464 60.6933 7.912 61.4613 7.512C62.2453 7.112 63.1493 6.912 64.1733 6.912C65.2773 6.912 66.1973 7.104 66.9333 7.488C67.6853 7.872 68.2533 8.392 68.6373 9.048C69.0213 9.688 69.2133 10.4 69.2133 11.184C69.2133 12.016 68.9573 12.752 68.4453 13.392C67.9333 14.016 67.3253 14.456 66.6213 14.712V14.856C67.5653 15.144 68.3493 15.632 68.9733 16.32C69.5973 17.008 69.9093 17.928 69.9093 19.08C69.9093 20.056 69.6773 20.936 69.2133 21.72C68.7653 22.504 68.1093 23.128 67.2453 23.592C66.3973 24.056 65.3813 24.288 64.1973 24.288ZM77.3639 24.288C76.4199 24.288 75.6359 24.12 75.0119 23.784C74.3879 23.448 73.9239 23.008 73.6199 22.464C73.3159 21.904 73.1639 21.296 73.1639 20.64C73.1639 19.424 73.6039 18.504 74.4839 17.88C75.3799 17.24 76.5719 16.92 78.0599 16.92H81.3239V16.68C81.3239 14.6 80.3719 13.56 78.4679 13.56C77.6999 13.56 77.0519 13.728 76.5239 14.064C76.0119 14.4 75.6839 14.928 75.5399 15.648H73.4759C73.5559 14.848 73.8199 14.16 74.2679 13.584C74.7319 13.008 75.3239 12.568 76.0439 12.264C76.7639 11.96 77.5719 11.808 78.4679 11.808C80.1639 11.808 81.3959 12.256 82.1639 13.152C82.9479 14.032 83.3399 15.208 83.3399 16.68V24H81.6119L81.4439 22.152H81.2759C80.9239 22.728 80.4519 23.232 79.8599 23.664C79.2839 24.08 78.4519 24.288 77.3639 24.288ZM77.7239 22.512C78.4919 22.512 79.1399 22.328 79.6679 21.96C80.2119 21.592 80.6199 21.104 80.8919 20.496C81.1799 19.888 81.3239 19.224 81.3239 18.504H78.2279C77.1399 18.504 76.3719 18.688 75.9239 19.056C75.4919 19.424 75.2759 19.912 75.2759 20.52C75.2759 21.144 75.4839 21.632 75.8999 21.984C76.3159 22.336 76.9239 22.512 77.7239 22.512ZM94.0105 24C92.9225 24 92.0665 23.736 91.4425 23.208C90.8185 22.68 90.5065 21.728 90.5065 20.352V13.824H87.4825V12.096H89.2825C90.0985 12.096 90.5705 11.696 90.6985 10.896L91.0345 9.048H92.5225V12.096H97.2745V13.824H92.5225V20.352C92.5225 21.024 92.6745 21.496 92.9785 21.768C93.2985 22.04 93.8425 22.176 94.6105 22.176H97.2745V24H94.0105ZM107.009 9.984C106.529 9.984 106.129 9.824 105.809 9.504C105.489 9.184 105.329 8.8 105.329 8.352C105.329 7.888 105.489 7.504 105.809 7.2C106.129 6.88 106.529 6.72 107.009 6.72C107.473 6.72 107.865 6.88 108.185 7.2C108.521 7.504 108.689 7.888 108.689 8.352C108.689 8.8 108.521 9.184 108.185 9.504C107.865 9.824 107.473 9.984 107.009 9.984ZM102.353 24V22.272H106.145V14.424C106.145 14.024 105.945 13.824 105.545 13.824H102.761V12.096H106.025C107.449 12.096 108.161 12.808 108.161 14.232V22.272H111.953V24H102.353ZM120.368 24L115.136 12.096H117.44L121.544 21.792L125.672 12.096H127.952L122.696 24H120.368Z" fill="black"/>
</svg>
