<svg width="338" height="164" viewBox="0 0 338 164" fill="none" xmlns="http://www.w3.org/2000/svg">
<g filter="url(#filter0_d_218_728)">
<rect x="41.1416" y="36.3613" width="257.858" height="80.4129" rx="20" fill="#1A1A1A"/>
</g>
<g filter="url(#filter1_d_218_728)">
<rect x="39" y="31" width="254.105" height="80.4129" rx="20" fill="#FAFAFA"/>
<g clip-path="url(#clip0_218_728)">
<path d="M74.295 65.33C73.425 65.96 72.045 66.455 70.38 66.455C67.455 66.455 65.34 64.205 65.34 61.385C65.34 58.535 67.5 56.3 70.53 56.3C73.47 56.3 75.285 58.385 75.285 60.53C75.285 61.925 74.775 62.855 73.815 62.855C73.245 62.855 72.915 62.54 72.915 61.97C72.915 61.82 72.945 61.55 72.975 61.34L73.485 58.325H71.625L71.505 58.97C71.115 58.415 70.545 58.115 69.765 58.115C68.07 58.115 66.93 59.645 66.93 61.55C66.93 63.275 67.95 64.43 69.48 64.43C70.38 64.43 71.115 64.07 71.64 63.395C71.94 63.965 72.555 64.43 73.725 64.43C75.66 64.43 77.145 62.795 77.145 60.335C77.145 57.32 74.325 54.71 70.53 54.71C66.525 54.71 63.48 57.665 63.48 61.385C63.48 65.09 66.465 68.045 70.38 68.045C71.85 68.045 73.2 67.67 74.295 67.04V65.33ZM68.895 61.445C68.895 60.545 69.3 59.705 70.125 59.705C70.785 59.705 71.1 60.23 71.1 61.145C71.1 62.105 70.605 62.855 69.915 62.855C69.285 62.855 68.895 62.255 68.895 61.445ZM85.5043 65H87.9493L83.9293 54.23H81.4393L77.3893 65H79.6843L80.5093 62.69H84.6943L85.5043 65ZM82.6243 56.72L84.0643 60.875H81.1543L82.6243 56.72ZM91.1664 65V60.53C91.1664 59.33 91.8264 58.685 92.6664 58.685C93.5814 58.685 94.0614 59.36 94.0614 60.485V65H96.1314V60.53C96.1314 59.33 96.8064 58.685 97.6314 58.685C98.5464 58.685 99.0264 59.36 99.0264 60.485V65H101.096V59.825C101.096 57.905 100.001 56.84 98.3814 56.84C97.1814 56.84 96.3714 57.38 95.7414 58.265C95.3364 57.35 94.4964 56.84 93.4014 56.84C92.3364 56.84 91.5864 57.32 91.0014 58.13V56.99H89.0814V65H91.1664ZM105.295 55.13C105.295 54.395 104.725 53.87 103.9 53.87C103.09 53.87 102.52 54.395 102.52 55.13C102.52 55.835 103.09 56.36 103.9 56.36C104.725 56.36 105.295 55.835 105.295 55.13ZM104.965 65V56.99H102.88V65H104.965ZM108.906 60.635C108.906 59.345 109.611 58.685 110.436 58.685C111.381 58.685 111.846 59.345 111.846 60.53V65H113.916V59.825C113.916 57.89 112.806 56.84 111.201 56.84C110.151 56.84 109.326 57.335 108.741 58.13V56.99H106.821V65H108.906V60.635ZM120.482 65H122.177V59.96C122.177 57.995 120.947 56.84 118.847 56.84C116.912 56.84 115.577 58.04 115.457 59.885H117.332C117.407 58.985 117.947 58.46 118.847 58.46C119.717 58.46 120.227 58.985 120.227 59.885V60.365C119.732 60.305 119.342 60.275 118.892 60.275C116.552 60.275 115.292 61.115 115.292 62.675C115.292 64.175 116.402 65.15 118.067 65.15C119.162 65.15 119.957 64.76 120.482 64.01V65ZM117.257 62.615C117.257 61.895 117.842 61.52 119.027 61.52C119.387 61.52 119.732 61.55 120.227 61.625V62.195C120.227 63.125 119.582 63.71 118.517 63.71C117.737 63.71 117.257 63.29 117.257 62.615Z" fill="#1A1A1A"/>
<path d="M67.88 89.192C66.9733 89.192 66.1893 88.952 65.528 88.472C64.8773 87.992 64.376 87.32 64.024 86.456C63.6827 85.592 63.512 84.5733 63.512 83.4C63.512 82.2373 63.6827 81.224 64.024 80.36C64.376 79.4853 64.8773 78.808 65.528 78.328C66.1893 77.848 66.9733 77.608 67.88 77.608C69.032 77.608 69.96 77.928 70.664 78.568C71.368 79.1973 71.7787 80.04 71.896 81.096H70.408C70.3013 80.4667 70.0347 79.9387 69.608 79.512C69.1813 79.0853 68.6053 78.872 67.88 78.872C66.952 78.872 66.2213 79.2773 65.688 80.088C65.1547 80.888 64.888 81.992 64.888 83.4C64.888 84.8187 65.1547 85.928 65.688 86.728C66.2213 87.528 66.952 87.928 67.88 87.928C68.6373 87.928 69.2187 87.7253 69.624 87.32C70.04 86.9147 70.3013 86.392 70.408 85.752H71.896C71.7253 86.8187 71.2987 87.6613 70.616 88.28C69.944 88.888 69.032 89.192 67.88 89.192ZM73.9378 89V87.848H75.9698V82.616C75.9698 82.3493 75.8418 82.216 75.5858 82.216H74.1458V81.064H76.0818C76.4338 81.064 76.7164 81.16 76.9298 81.352C77.1431 81.544 77.2498 81.8267 77.2498 82.2V82.536H77.3138C77.4418 82.0027 77.6818 81.592 78.0338 81.304C78.3964 81.016 78.8978 80.872 79.5378 80.872H80.9938V82.296H79.3458C78.6951 82.296 78.1938 82.5147 77.8418 82.952C77.4898 83.3787 77.3138 83.928 77.3138 84.6V87.848H79.8098V89H73.9378ZM87.0675 89.192C86.3208 89.192 85.6595 89.0213 85.0835 88.68C84.5182 88.328 84.0702 87.8427 83.7395 87.224C83.4088 86.5947 83.2435 85.864 83.2435 85.032C83.2435 84.2 83.4035 83.4747 83.7235 82.856C84.0542 82.2267 84.5075 81.7413 85.0835 81.4C85.6595 81.048 86.3315 80.872 87.0995 80.872C87.8675 80.872 88.5235 81.048 89.0675 81.4C89.6115 81.7413 90.0275 82.1947 90.3155 82.76C90.6035 83.3253 90.7475 83.9333 90.7475 84.584C90.7475 84.7013 90.7422 84.8187 90.7315 84.936C90.7315 85.0533 90.7315 85.1867 90.7315 85.336H84.5715C84.6035 85.9227 84.7368 86.4133 84.9715 86.808C85.2168 87.192 85.5208 87.48 85.8835 87.672C86.2568 87.864 86.6515 87.96 87.0675 87.96C87.6542 87.96 88.1128 87.8373 88.4435 87.592C88.7742 87.3467 89.0248 87.0053 89.1955 86.568H90.5235C90.3422 87.304 89.9635 87.928 89.3875 88.44C88.8115 88.9413 88.0382 89.192 87.0675 89.192ZM87.0675 82.072C86.4488 82.072 85.9048 82.2587 85.4355 82.632C84.9768 83.0053 84.6942 83.528 84.5875 84.2H89.4195C89.3768 83.5387 89.1368 83.0213 88.6995 82.648C88.2728 82.264 87.7288 82.072 87.0675 82.072ZM95.9093 89.192C95.2799 89.192 94.7573 89.08 94.3413 88.856C93.9253 88.632 93.6159 88.3387 93.4133 87.976C93.2106 87.6027 93.1093 87.1973 93.1093 86.76C93.1093 85.9493 93.4026 85.336 93.9893 84.92C94.5866 84.4933 95.3813 84.28 96.3733 84.28H98.5493V84.12C98.5493 82.7333 97.9146 82.04 96.6453 82.04C96.1333 82.04 95.7013 82.152 95.3493 82.376C95.0079 82.6 94.7893 82.952 94.6933 83.432H93.3173C93.3706 82.8987 93.5466 82.44 93.8453 82.056C94.1546 81.672 94.5493 81.3787 95.0293 81.176C95.5093 80.9733 96.0479 80.872 96.6453 80.872C97.7759 80.872 98.5973 81.1707 99.1093 81.768C99.6319 82.3547 99.8933 83.1387 99.8933 84.12V89H98.7413L98.6293 87.768H98.5173C98.2826 88.152 97.9679 88.488 97.5733 88.776C97.1893 89.0533 96.6346 89.192 95.9093 89.192ZM96.1493 88.008C96.6613 88.008 97.0933 87.8853 97.4453 87.64C97.8079 87.3947 98.0799 87.0693 98.2613 86.664C98.4533 86.2587 98.5493 85.816 98.5493 85.336H96.4852C95.7599 85.336 95.2479 85.4587 94.9493 85.704C94.6613 85.9493 94.5173 86.2747 94.5173 86.68C94.5173 87.096 94.6559 87.4213 94.9333 87.656C95.2106 87.8907 95.6159 88.008 96.1493 88.008ZM107.007 89C106.282 89 105.711 88.824 105.295 88.472C104.879 88.12 104.671 87.4853 104.671 86.568V82.216H102.655V81.064H103.855C104.399 81.064 104.714 80.7973 104.799 80.264L105.023 79.032H106.015V81.064H109.183V82.216H106.015V86.568C106.015 87.016 106.116 87.3307 106.319 87.512C106.532 87.6933 106.895 87.784 107.407 87.784H109.183V89H107.007ZM115.769 89.192C115.022 89.192 114.361 89.0213 113.785 88.68C113.209 88.3387 112.755 87.8587 112.425 87.24C112.094 86.6107 111.929 85.8747 111.929 85.032C111.929 84.1893 112.094 83.4587 112.425 82.84C112.755 82.2107 113.209 81.7253 113.785 81.384C114.361 81.0427 115.022 80.872 115.769 80.872C116.515 80.872 117.177 81.0427 117.753 81.384C118.329 81.7253 118.782 82.2107 119.113 82.84C119.443 83.4587 119.609 84.1893 119.609 85.032C119.609 85.8747 119.443 86.6107 119.113 87.24C118.782 87.8587 118.329 88.3387 117.753 88.68C117.177 89.0213 116.515 89.192 115.769 89.192ZM115.769 87.912C116.227 87.912 116.643 87.8107 117.017 87.608C117.39 87.4053 117.683 87.0907 117.897 86.664C118.121 86.2373 118.233 85.6933 118.233 85.032C118.233 84.3707 118.121 83.8267 117.897 83.4C117.683 82.9733 117.39 82.6587 117.017 82.456C116.643 82.2533 116.227 82.152 115.769 82.152C115.321 82.152 114.91 82.2533 114.537 82.456C114.163 82.6587 113.865 82.9733 113.641 83.4C113.417 83.8267 113.305 84.3707 113.305 85.032C113.305 86.024 113.545 86.7547 114.025 87.224C114.505 87.6827 115.086 87.912 115.769 87.912ZM121.907 89V87.848H123.939V82.616C123.939 82.3493 123.811 82.216 123.555 82.216H122.115V81.064H124.051C124.403 81.064 124.685 81.16 124.899 81.352C125.112 81.544 125.219 81.8267 125.219 82.2V82.536H125.283C125.411 82.0027 125.651 81.592 126.003 81.304C126.365 81.016 126.867 80.872 127.507 80.872H128.963V82.296H127.315C126.664 82.296 126.163 82.5147 125.811 82.952C125.459 83.3787 125.283 83.928 125.283 84.6V87.848H127.779V89H121.907ZM141.158 89V81.064H142.278L142.422 82.264H142.502C142.715 81.88 143.051 81.5547 143.51 81.288C143.969 81.0107 144.497 80.872 145.094 80.872C146.065 80.872 146.79 81.16 147.27 81.736C147.761 82.312 148.006 83.144 148.006 84.232V89H146.662V84.392C146.662 83.688 146.507 83.1387 146.198 82.744C145.889 82.3387 145.409 82.136 144.758 82.136C144.129 82.136 143.595 82.3547 143.158 82.792C142.721 83.2187 142.502 83.8373 142.502 84.648V89H141.158ZM154.144 89.192C153.397 89.192 152.736 89.0213 152.16 88.68C151.584 88.3387 151.13 87.8587 150.8 87.24C150.469 86.6107 150.304 85.8747 150.304 85.032C150.304 84.1893 150.469 83.4587 150.8 82.84C151.13 82.2107 151.584 81.7253 152.16 81.384C152.736 81.0427 153.397 80.872 154.144 80.872C154.89 80.872 155.552 81.0427 156.128 81.384C156.704 81.7253 157.157 82.2107 157.488 82.84C157.818 83.4587 157.984 84.1893 157.984 85.032C157.984 85.8747 157.818 86.6107 157.488 87.24C157.157 87.8587 156.704 88.3387 156.128 88.68C155.552 89.0213 154.89 89.192 154.144 89.192ZM154.144 87.912C154.602 87.912 155.018 87.8107 155.392 87.608C155.765 87.4053 156.058 87.0907 156.272 86.664C156.496 86.2373 156.608 85.6933 156.608 85.032C156.608 84.3707 156.496 83.8267 156.272 83.4C156.058 82.9733 155.765 82.6587 155.392 82.456C155.018 82.2533 154.602 82.152 154.144 82.152C153.696 82.152 153.285 82.2533 152.912 82.456C152.538 82.6587 152.24 82.9733 152.016 83.4C151.792 83.8267 151.68 84.3707 151.68 85.032C151.68 86.024 151.92 86.7547 152.4 87.224C152.88 87.6827 153.461 87.912 154.144 87.912ZM164.57 89C163.844 89 163.274 88.824 162.858 88.472C162.442 88.12 162.234 87.4853 162.234 86.568V82.216H160.218V81.064H161.418C161.962 81.064 162.276 80.7973 162.362 80.264L162.586 79.032H163.578V81.064H166.746V82.216H163.578V86.568C163.578 87.016 163.679 87.3307 163.882 87.512C164.095 87.6933 164.458 87.784 164.97 87.784H166.746V89H164.57ZM179.597 92.52V91.288H180.573C180.978 91.288 181.266 91.208 181.437 91.048C181.608 90.888 181.693 90.6053 181.693 90.2V82.216H179.725V81.064H181.693V79.8C181.693 78.9787 181.89 78.3867 182.285 78.024C182.68 77.6613 183.277 77.48 184.077 77.48H185.981V78.696H184.157C183.762 78.696 183.474 78.7813 183.293 78.952C183.122 79.112 183.037 79.3947 183.037 79.8V81.064H185.981V82.216H183.037V90.2C183.037 91.0213 182.84 91.6133 182.445 91.976C182.05 92.3387 181.458 92.52 180.669 92.52H179.597ZM192.519 89.192C191.772 89.192 191.111 89.0213 190.535 88.68C189.959 88.3387 189.505 87.8587 189.175 87.24C188.844 86.6107 188.679 85.8747 188.679 85.032C188.679 84.1893 188.844 83.4587 189.175 82.84C189.505 82.2107 189.959 81.7253 190.535 81.384C191.111 81.0427 191.772 80.872 192.519 80.872C193.265 80.872 193.927 81.0427 194.503 81.384C195.079 81.7253 195.532 82.2107 195.863 82.84C196.193 83.4587 196.359 84.1893 196.359 85.032C196.359 85.8747 196.193 86.6107 195.863 87.24C195.532 87.8587 195.079 88.3387 194.503 88.68C193.927 89.0213 193.265 89.192 192.519 89.192ZM192.519 87.912C192.977 87.912 193.393 87.8107 193.767 87.608C194.14 87.4053 194.433 87.0907 194.647 86.664C194.871 86.2373 194.983 85.6933 194.983 85.032C194.983 84.3707 194.871 83.8267 194.647 83.4C194.433 82.9733 194.14 82.6587 193.767 82.456C193.393 82.2533 192.977 82.152 192.519 82.152C192.071 82.152 191.66 82.2533 191.287 82.456C190.913 82.6587 190.615 82.9733 190.391 83.4C190.167 83.8267 190.055 84.3707 190.055 85.032C190.055 86.024 190.295 86.7547 190.775 87.224C191.255 87.6827 191.836 87.912 192.519 87.912ZM201.553 89.192C200.593 89.192 199.867 88.904 199.377 88.328C198.886 87.752 198.641 86.92 198.641 85.832V81.064H199.985V85.672C199.985 86.376 200.139 86.9307 200.449 87.336C200.769 87.7307 201.249 87.928 201.889 87.928C202.529 87.928 203.067 87.7147 203.505 87.288C203.942 86.8507 204.161 86.2267 204.161 85.416V81.064H205.505V89H204.385L204.241 87.8H204.161C203.947 88.184 203.611 88.5147 203.153 88.792C202.694 89.0587 202.161 89.192 201.553 89.192ZM208.314 89V81.064H209.434L209.578 82.264H209.658C209.872 81.88 210.208 81.5547 210.666 81.288C211.125 81.0107 211.653 80.872 212.25 80.872C213.221 80.872 213.946 81.16 214.426 81.736C214.917 82.312 215.162 83.144 215.162 84.232V89H213.818V84.392C213.818 83.688 213.664 83.1387 213.354 82.744C213.045 82.3387 212.565 82.136 211.914 82.136C211.285 82.136 210.752 82.3547 210.314 82.792C209.877 83.2187 209.658 83.8373 209.658 84.648V89H208.314ZM221.028 89.192C220.356 89.192 219.753 89.032 219.22 88.712C218.697 88.392 218.287 87.9227 217.988 87.304C217.689 86.6747 217.54 85.912 217.54 85.016C217.54 84.1307 217.689 83.3787 217.988 82.76C218.287 82.1413 218.697 81.672 219.22 81.352C219.753 81.032 220.356 80.872 221.028 80.872C221.657 80.872 222.175 80.9947 222.58 81.24C222.996 81.4853 223.305 81.8053 223.508 82.2V77.48H224.852V89H223.748L223.604 87.768H223.508C223.295 88.2053 222.98 88.552 222.564 88.808C222.148 89.064 221.636 89.192 221.028 89.192ZM221.204 87.912C221.876 87.912 222.431 87.6773 222.868 87.208C223.305 86.728 223.524 86.0027 223.524 85.032C223.524 84.0613 223.305 83.3413 222.868 82.872C222.431 82.392 221.876 82.152 221.204 82.152C220.532 82.152 219.977 82.392 219.54 82.872C219.113 83.3413 218.9 84.0613 218.9 85.032C218.9 86.0027 219.113 86.728 219.54 87.208C219.977 87.6773 220.532 87.912 221.204 87.912Z" fill="#656565"/>
</g>
<rect x="39.5" y="31.5" width="253.105" height="79.4129" rx="19.5" stroke="#767676"/>
</g>
<defs>
<filter id="filter0_d_218_728" x="2.1416" y="5.36133" width="335.857" height="158.413" filterUnits="userSpaceOnUse" color-interpolation-filters="sRGB">
<feFlood flood-opacity="0" result="BackgroundImageFix"/>
<feColorMatrix in="SourceAlpha" type="matrix" values="0 0 0 0 0 0 0 0 0 0 0 0 0 0 0 0 0 0 127 0" result="hardAlpha"/>
<feOffset dy="8"/>
<feGaussianBlur stdDeviation="19.5"/>
<feComposite in2="hardAlpha" operator="out"/>
<feColorMatrix type="matrix" values="0 0 0 0 0 0 0 0 0 0 0 0 0 0 0 0 0 0 0.17 0"/>
<feBlend mode="normal" in2="BackgroundImageFix" result="effect1_dropShadow_218_728"/>
<feBlend mode="normal" in="SourceGraphic" in2="effect1_dropShadow_218_728" result="shape"/>
</filter>
<filter id="filter1_d_218_728" x="0" y="0" width="332.104" height="158.413" filterUnits="userSpaceOnUse" color-interpolation-filters="sRGB">
<feFlood flood-opacity="0" result="BackgroundImageFix"/>
<feColorMatrix in="SourceAlpha" type="matrix" values="0 0 0 0 0 0 0 0 0 0 0 0 0 0 0 0 0 0 127 0" result="hardAlpha"/>
<feOffset dy="8"/>
<feGaussianBlur stdDeviation="19.5"/>
<feComposite in2="hardAlpha" operator="out"/>
<feColorMatrix type="matrix" values="0 0 0 0 0 0 0 0 0 0 0 0 0 0 0 0 0 0 0.17 0"/>
<feBlend mode="normal" in2="BackgroundImageFix" result="effect1_dropShadow_218_728"/>
<feBlend mode="normal" in="SourceGraphic" in2="effect1_dropShadow_218_728" result="shape"/>
</filter>
<clipPath id="clip0_218_728">
<rect width="218" height="45" fill="white" transform="translate(63 49)"/>
</clipPath>
</defs>
</svg>
