<svg width="150" height="37" viewBox="0 0 150 37" fill="none" xmlns="http://www.w3.org/2000/svg">
<path d="M135.877 11.4063L135.597 11.4994C134.507 9.13249 132.95 7.2483 130.925 5.84685C128.932 4.44537 126.425 3.74463 123.404 3.74463C121.722 3.74463 120.118 4.10276 118.592 4.81903C117.066 5.50424 115.727 6.48527 114.575 7.76213C113.454 9.00786 112.551 10.5183 111.865 12.2935C111.18 14.0687 110.838 16.0308 110.838 18.1797C110.838 20.3286 111.18 22.2906 111.865 24.0658C112.551 25.841 113.454 27.367 114.575 28.6439C115.727 29.8896 117.066 30.8551 118.592 31.5403C120.118 32.2254 121.722 32.568 123.404 32.568C126.394 32.568 128.823 32.1008 130.692 31.1665C132.591 30.2011 134.195 28.7374 135.503 26.7753L135.784 26.8685L135.691 29.8583C134.974 30.6057 134.149 31.2753 133.215 31.867C132.28 32.4276 131.268 32.9103 130.178 33.3152C129.119 33.6889 128.014 33.9692 126.861 34.1561C125.709 34.3742 124.557 34.4833 123.404 34.4833C121.006 34.4833 118.717 34.094 116.537 33.3154C114.357 32.5368 112.442 31.4468 110.791 30.0453C109.141 28.6128 107.833 26.8999 106.867 24.9067C105.902 22.8823 105.419 20.64 105.419 18.1796C105.419 15.7193 105.902 13.4925 106.867 11.4994C107.833 9.475 109.141 7.74653 110.791 6.31396C112.442 4.88133 114.357 3.7913 116.537 3.04386C118.717 2.26525 121.006 1.87594 123.404 1.87594C124.557 1.87594 125.709 1.96937 126.861 2.15623C128.014 2.34309 129.119 2.63897 130.178 3.04386C131.268 3.41758 132.28 3.90032 133.215 4.49207C134.149 5.05265 134.974 5.70666 135.691 6.4541L135.877 11.4063ZM32.9346 20.329C32.5922 20.4846 32.2652 20.6871 31.9536 20.9366C31.642 21.1856 31.4862 21.5282 31.4862 21.9644V27.7103C29.9913 29.8593 28.0759 31.5254 25.7402 32.7089C23.4044 33.8924 20.8195 34.4841 17.9854 34.4841C15.5874 34.4841 13.2983 34.0948 11.1182 33.3162C8.9382 32.5376 7.02287 31.4476 5.37224 30.0461C3.72164 28.6135 2.4136 26.9006 1.44813 24.9075C0.482709 22.8831 0 20.6408 0 18.1804C0 15.72 0.482709 13.4933 1.44813 11.5001C2.4136 9.47577 3.72164 7.74729 5.37224 6.31472C7.02287 4.8821 8.9382 3.79208 11.1182 3.04467C13.2983 2.26603 15.5873 1.87671 17.9854 1.87671C19.1377 1.87671 20.29 1.97014 21.4424 2.157C22.5946 2.34386 23.7002 2.63973 24.7592 3.04462C25.8492 3.41835 26.8613 3.90108 27.7956 4.49283C28.7299 5.05342 29.5553 5.70743 30.2716 6.45487L30.4587 11.4067L30.1785 11.4998C29.0884 9.13283 27.5313 7.24862 25.5069 5.84717C23.5137 4.44569 21.0067 3.74495 17.9857 3.74495C16.304 3.74495 14.7001 4.1031 13.1741 4.8194C11.6481 5.50458 10.3089 6.4856 9.15653 7.76245C8.03534 9.00821 7.13219 10.5187 6.44709 12.2939C5.76188 14.0691 5.41928 16.0311 5.41928 18.18C5.41928 20.2978 5.7463 22.2442 6.40033 24.0194C7.08552 25.7946 7.98869 27.3207 9.10985 28.5976C10.2621 29.8433 11.6013 30.8243 13.1274 31.5406C14.6534 32.2258 16.2729 32.5683 17.9857 32.5683C21.2247 32.5683 23.9965 31.9455 26.3011 30.6998V21.964C26.3011 21.5281 26.1299 21.1856 25.7875 20.9362C25.4759 20.6872 25.1644 20.4847 24.8531 20.3286L24.8959 20.0953C25.0514 20.1238 25.3317 20.1548 25.7368 20.1884C26.1418 20.2169 26.5623 20.248 26.9981 20.2815H31.0158C31.3895 20.2531 31.7477 20.222 32.0903 20.1884C32.4327 20.1599 32.6973 20.1289 32.8842 20.0953L32.9346 20.329ZM66.7711 2.8574C66.4595 3.01293 66.1481 3.21546 65.8368 3.46498C65.5252 3.71394 65.354 4.18109 65.3233 4.86643C65.2948 5.61388 65.2637 6.56376 65.2301 7.7161C65.2301 8.83729 65.2159 10.1142 65.1874 11.5467C65.1874 12.9793 65.1731 14.5365 65.1447 16.2183V21.4505C65.1162 23.4748 64.8669 25.2032 64.3969 26.6359C63.9298 28.0684 63.3069 29.2674 62.5283 30.2329C61.7809 31.1984 60.9401 31.9614 60.0057 32.522C59.1025 33.0826 58.1994 33.503 57.2962 33.7833C56.4242 34.0949 55.5989 34.2818 54.8203 34.3439C54.0417 34.4373 53.4344 34.484 52.9984 34.484C51.2232 34.484 49.5103 34.2505 47.8597 33.7833C46.2091 33.3475 44.7609 32.6312 43.5152 31.6344C42.2694 30.6378 41.2729 29.3453 40.5254 27.757C39.778 26.1687 39.4042 24.2378 39.4042 21.9643V16.6855V11.827C39.4042 10.3321 39.39 8.99291 39.3615 7.80949C39.3615 6.59487 39.3473 5.61384 39.3188 4.86639C39.2903 4.18121 39.1191 3.71406 38.8052 3.46494C38.4936 3.21598 38.1821 3.01345 37.8709 2.85736L37.9136 2.62407C38.0692 2.65255 38.3184 2.68359 38.6614 2.71718C39.0351 2.74566 39.4088 2.77669 39.7825 2.81028C40.1876 2.81028 40.5769 2.82452 40.9505 2.85301H42.6322C43.0059 2.82452 43.3952 2.81028 43.8 2.81028C44.2051 2.7818 44.5788 2.75076 44.9212 2.71718C45.2949 2.68869 45.5596 2.65766 45.7151 2.62407L45.7578 2.85736C45.4154 3.01289 45.0884 3.21542 44.7768 3.46494C44.4965 3.7139 44.3407 4.18105 44.3094 4.86639C44.2809 5.61384 44.2498 6.59487 44.2163 7.80949V21.9643C44.2163 25.3589 45.0104 27.866 46.5987 29.4854C48.187 31.1049 50.5384 31.9146 53.6527 31.9146C54.5559 31.9146 55.5836 31.8055 56.736 31.5873C57.8883 31.3384 58.9628 30.8401 59.9593 30.0924C60.9871 29.345 61.8435 28.2861 62.5287 26.9159C63.245 25.5455 63.6031 23.7236 63.6031 21.4501C63.6031 18.9898 63.5889 16.8876 63.5604 15.1436C63.5604 13.3684 63.5462 11.8579 63.5177 10.6122C63.5177 9.33527 63.5035 8.24524 63.475 7.34205C63.4465 6.43892 63.4154 5.61362 63.3818 4.86615C63.3533 4.18097 63.1821 3.71382 62.8682 3.4647C62.5566 3.21574 62.2451 3.0132 61.9339 2.85708L61.9767 2.62383C62.3191 2.6859 62.7083 2.74828 63.1445 2.81097C63.5803 2.83945 63.9852 2.85369 64.3591 2.85369C64.7015 2.85369 65.0908 2.83945 65.527 2.81097C65.9941 2.7489 66.399 2.68652 66.7417 2.62383L66.7711 2.8574ZM100.669 11.4063L100.389 11.4994C99.299 9.13249 97.7418 7.2483 95.7175 5.84685C93.7243 4.44537 91.2172 3.74463 88.1963 3.74463C86.5146 3.74463 84.9107 4.10276 83.3846 4.81903C81.8586 5.50424 80.5194 6.48527 79.3671 7.76213C78.2459 9.00786 77.3428 10.5183 76.6576 12.2935C75.9725 14.0688 75.6299 16.0308 75.6299 18.1797C75.6299 20.3286 75.9725 22.2906 76.6576 24.0658C77.3428 25.841 78.246 27.367 79.3671 28.6439C80.5194 29.8896 81.8586 30.8551 83.3847 31.5403C84.9107 32.2254 86.5146 32.568 88.1964 32.568C91.1861 32.568 93.6154 32.1008 95.484 31.1665C97.3837 30.2011 98.9876 28.7374 100.296 26.7753L100.576 26.8685L100.483 29.8583C99.7664 30.6057 98.9411 31.2752 98.0068 31.8669C97.0725 32.4275 96.0603 32.9102 94.9703 33.3151C93.9114 33.6889 92.8058 33.9692 91.6535 34.156C90.5012 34.3742 89.3489 34.4833 88.1966 34.4833C85.7985 34.4833 83.5094 34.094 81.3294 33.3154C79.1494 32.5368 77.234 31.4467 75.5834 30.0453C73.9328 28.6127 72.6247 26.8998 71.6594 24.9066C70.6939 22.8823 70.2111 20.64 70.2111 18.1796C70.2111 15.7192 70.6939 13.4925 71.6594 11.4993C72.6247 9.47496 73.9328 7.74649 75.5834 6.31392C77.234 4.88129 79.1494 3.79126 81.3294 3.04382C83.5095 2.26521 85.7985 1.8759 88.1966 1.8759C89.3489 1.8759 90.5012 1.96933 91.6535 2.15619C92.8058 2.34305 93.9114 2.63893 94.9703 3.04382C96.0603 3.41754 97.0725 3.90028 98.0068 4.49203C98.9411 5.05261 99.7664 5.70662 100.483 6.45406L100.669 11.4063ZM149.957 33.6896C149.802 33.6611 149.537 33.63 149.163 33.5965C148.821 33.5965 148.447 33.5822 148.042 33.5538C147.637 33.5538 147.248 33.5395 146.874 33.511H144.072C143.698 33.5395 143.324 33.5705 142.95 33.6041C142.608 33.6326 142.343 33.6636 142.157 33.6972L142.114 33.51C142.425 33.3545 142.737 33.152 143.048 32.9024C143.36 32.6535 143.531 32.1863 143.562 31.501C143.59 30.7535 143.604 29.975 143.604 29.1652C143.633 28.3555 143.647 27.4367 143.647 26.409V22.9053V18.1871V13.4689V9.91848C143.647 8.89075 143.633 7.98757 143.604 7.20896C143.604 6.39923 143.59 5.62065 143.562 4.87321C143.533 4.18802 143.362 3.72087 143.048 3.47175C142.736 3.19146 142.425 2.97354 142.114 2.81798L142.157 2.63088C142.343 2.69295 142.608 2.73967 142.95 2.77103C143.324 2.77103 143.698 2.78527 144.072 2.81375C144.477 2.84223 144.866 2.85647 145.24 2.85647H146.874C147.248 2.82799 147.637 2.81375 148.042 2.81375C148.447 2.78527 148.821 2.75423 149.163 2.72064C149.537 2.69216 149.802 2.66112 149.957 2.62753L150 2.81472C149.658 2.97025 149.331 3.18816 149.019 3.46845C148.739 3.71741 148.583 4.18456 148.552 4.8699C148.523 5.61734 148.492 6.39593 148.458 7.20566V29.1619C148.487 29.9717 148.518 30.7502 148.552 31.4977C148.58 32.1829 148.736 32.65 149.019 32.8991C149.331 33.1481 149.658 33.3506 150 33.5067L149.957 33.6896Z" fill="white"/>
</svg>
