<svg width="30" height="30" viewBox="0 0 30 30" fill="none" xmlns="http://www.w3.org/2000/svg">
<g clip-path="url(#clip0_116_304)">
<path d="M15.0418 -7.15637e-05L11.8144 9.04853L14.0083 9.04922C15.5887 9.04967 16.2612 10.2957 15.7636 11.6912L12.5545 20.6885H9.32526L12.856 10.7885H11.1933L7.6629 20.6885H4.4058L11.6502 0.375195C4.9788 1.89713 0 7.86649 0 14.999C0 22.0205 4.8246 27.9143 11.3394 29.5484L18.6585 8.9981H23.9592C25.0555 8.9981 26.4344 9.73733 25.8386 11.4198L22.8625 19.8231C22.4823 20.8965 21.5787 21.114 20.8588 21.114H17.6002L14.4397 29.9877C14.6258 29.9946 14.8123 29.9992 14.9999 29.9992C23.2841 29.9992 29.9999 23.2837 29.9999 14.9992C29.9999 6.72885 23.3066 0.0223474 15.0413 -0.000152588L15.0418 -7.15637e-05ZM21.2863 10.7642L18.2122 19.3934H19.8492L22.9239 10.7642H21.2863Z" fill="white"/>
</g>
<defs>
<clipPath id="clip0_116_304">
<rect width="30" height="29.9994" fill="white"/>
</clipPath>
</defs>
</svg>
