<svg width="150" height="43" viewBox="0 0 150 43" fill="none" xmlns="http://www.w3.org/2000/svg">
<path d="M130.434 5.39338H130.949C131.195 5.39338 131.363 5.3562 131.454 5.28371C131.497 5.24907 131.531 5.20481 131.555 5.15446C131.578 5.10412 131.589 5.04908 131.587 4.99373C131.588 4.91925 131.565 4.84635 131.522 4.78554C131.477 4.72284 131.415 4.67532 131.342 4.64938C131.266 4.61686 131.124 4.60384 130.916 4.60384H130.434V5.39338ZM130.009 6.87393V4.24602H130.912C131.22 4.24602 131.445 4.27065 131.584 4.31851C131.721 4.36684 131.831 4.45235 131.914 4.5741C131.996 4.69353 132.037 4.82226 132.037 4.95702C132.037 5.14987 131.967 5.31624 131.831 5.4589C131.693 5.60064 131.511 5.68103 131.285 5.69823C131.377 5.7368 131.452 5.78327 131.508 5.83717C131.612 5.93987 131.742 6.11414 131.895 6.35857L132.215 6.8744H131.693L131.462 6.45941C131.277 6.13505 131.131 5.93104 131.022 5.84879C130.944 5.78698 130.832 5.75585 130.684 5.75585H130.434V6.87393H130.009ZM131.079 3.47972C130.735 3.47972 130.4 3.56801 130.074 3.74367C129.752 3.91751 129.487 4.18029 129.31 4.50068C129.13 4.81188 129.036 5.16469 129.035 5.52396C129.035 5.87667 129.125 6.21451 129.304 6.53888C129.486 6.86138 129.738 7.11326 130.063 7.29356C130.372 7.47118 130.722 7.56489 131.079 7.56541C131.432 7.56541 131.77 7.47526 132.094 7.29356C132.412 7.11922 132.674 6.85736 132.849 6.53888C133.026 6.22972 133.119 5.87999 133.12 5.52396C133.12 5.16893 133.028 4.8269 132.845 4.50068C132.67 4.17951 132.404 3.91636 132.082 3.74321C131.755 3.56755 131.42 3.47972 131.079 3.47972ZM131.079 3.07635C131.489 3.07635 131.891 3.18184 132.281 3.39235C132.668 3.59792 132.985 3.91234 133.195 4.29667C133.415 4.68981 133.523 5.09829 133.523 5.52396C133.523 5.94498 133.416 6.35067 133.201 6.73963C132.992 7.12226 132.677 7.43701 132.295 7.64674C131.924 7.85706 131.505 7.96784 131.079 7.96831C130.652 7.96795 130.232 7.85717 129.861 7.64674C129.479 7.43639 129.165 7.12179 128.955 6.73963C128.744 6.36916 128.632 5.95038 128.631 5.52396C128.631 5.09829 128.74 4.68981 128.961 4.29667C129.171 3.91311 129.489 3.59908 129.875 3.39282C130.267 3.18184 130.667 3.07635 131.079 3.07635Z" fill="#808080"/>
<path fill-rule="evenodd" clip-rule="evenodd" d="M29.8523 0.0543703C28.6268 0.0868997 27.3935 0.342953 26.2211 0.76537C21.6804 2.66044 18.5227 6.7954 17.0942 11.7566C16.8531 12.6879 16.6574 13.6201 16.5524 14.582C16.5524 14.6131 16.4771 15.5602 16.6123 15.3046C16.7476 15.0797 16.8075 14.7484 16.8828 14.4923C17.5743 12.1623 18.4173 10.0418 19.7101 8.02733C22.8078 3.47089 27.7843 0.539523 33.0462 2.16367C34.0239 2.49361 34.8957 2.97551 35.7675 3.54664C35.9325 3.66699 37.1505 4.6294 36.88 3.75715C36.6546 3.06659 36.0835 2.47874 35.5867 2.01264C33.9147 0.565547 31.8951 -3.01749e-07 29.8523 0.0543703ZM68.257 4.61314C67.5506 4.61314 67.0097 4.85478 66.6333 5.35109C66.242 5.83159 66.0622 6.55375 66.0622 7.50128V14.3576C65.1899 13.3956 64.2884 12.7032 63.3715 12.2362C62.7404 11.9315 62.065 11.7287 61.3705 11.6353C60.9124 11.5737 60.4506 11.5438 59.9884 11.5456C57.6882 11.5456 55.8084 12.3565 54.3957 13.9797C52.9816 15.6039 52.2753 17.86 52.2753 20.7617C52.2753 22.1302 52.4565 23.4072 52.8018 24.5802C53.1633 25.7531 53.6889 26.775 54.3804 27.6472C55.0454 28.4905 55.8866 29.1783 56.8452 29.6626C57.7927 30.1274 58.8146 30.369 59.9276 30.369C60.4243 30.369 60.9053 30.3225 61.3705 30.2328C61.6663 30.1862 61.958 30.1161 62.2427 30.0233C62.9469 29.7832 63.611 29.4385 64.2126 29.0009C64.8298 28.5492 65.4306 27.9632 66.0622 27.2569V27.7067C66.0622 28.565 66.2731 29.2114 66.6784 29.6771C67.084 30.1278 67.6264 30.369 68.257 30.369C68.8732 30.369 69.4145 30.1436 69.8207 29.7073C70.2268 29.256 70.4216 28.5952 70.4216 27.7067V7.25964C70.4216 6.40318 70.2417 5.74144 69.8653 5.29021C69.4754 4.83945 68.9336 4.61314 68.257 4.61314ZM124.998 4.61314C124.291 4.61314 123.75 4.85478 123.374 5.35109C122.998 5.83159 122.803 6.55375 122.803 7.50128V14.3576C121.931 13.3956 121.029 12.7032 120.112 12.2362C119.541 11.9504 118.864 11.7413 118.112 11.6353C117.653 11.5737 117.191 11.5437 116.729 11.5456C114.429 11.5456 112.565 12.3565 111.136 13.9797C109.723 15.6039 109.016 17.86 109.016 20.7617C109.016 22.1302 109.196 23.4072 109.557 24.5802C109.917 25.7531 110.429 26.775 111.121 27.6472C111.786 28.4908 112.628 29.1787 113.587 29.6626C114.533 30.1274 115.557 30.369 116.669 30.369C117.179 30.369 117.661 30.3225 118.112 30.2328C118.413 30.1882 118.698 30.1134 118.983 30.0233C119.687 29.7832 120.351 29.4386 120.953 29.0009C121.57 28.5492 122.187 27.9632 122.802 27.2569V27.7067C122.802 28.565 123.013 29.2114 123.419 29.6771C123.84 30.1278 124.366 30.369 124.997 30.369C125.644 30.369 126.17 30.1436 126.577 29.7073C126.983 29.256 127.193 28.5952 127.193 27.7067V7.25964C127.193 6.40318 126.998 5.74144 126.622 5.29021C126.231 4.83945 125.705 4.61314 124.997 4.61314H124.998ZM28.6673 5.86552C28.0317 5.84889 27.4022 5.99256 26.8368 6.28329C24.9575 7.2299 24.2052 9.53019 25.1676 11.4095C26.1146 13.2892 28.414 14.0416 30.2937 13.0796C32.173 12.1321 32.9249 9.83178 31.963 7.95344C31.654 7.33978 31.1842 6.82148 30.6038 6.45378C30.0234 6.08608 29.3541 5.88277 28.6673 5.86552ZM81.0517 11.4847C79.7134 11.5001 78.4958 11.7255 77.3833 12.1456C76.2401 12.5977 75.2787 13.2446 74.497 14.0718C73.7145 14.9129 73.1131 15.9213 72.707 17.0933C72.3008 18.2667 72.0908 19.5446 72.0908 20.9122C72.0908 23.8292 72.9328 26.1137 74.5863 27.8122C76.15 29.4219 78.3006 30.263 81.0517 30.3527C81.2167 30.3685 81.3672 30.369 81.5327 30.369C82.8408 30.369 83.9835 30.2031 84.991 29.8578C85.998 29.5112 86.8248 29.0911 87.486 28.579C88.1631 28.0538 88.6441 27.512 88.9754 26.9553C89.3063 26.3995 89.4708 25.9036 89.4708 25.498C89.4708 25.0319 89.3212 24.6559 89.0354 24.3994C88.7356 24.1447 88.3434 24.0086 87.8773 24.0086C87.4265 24.0086 87.0966 24.1145 86.855 24.3097C86.3926 24.75 85.9216 25.1812 85.4422 25.603C85.0636 25.9212 84.6669 26.2173 84.254 26.4896C83.8172 26.7601 83.3822 26.9715 82.9156 27.0914C82.4649 27.2262 81.9537 27.2866 81.3975 27.2866C81.2766 27.2866 81.1567 27.2866 81.0517 27.2713C80.3607 27.2262 79.7134 27.031 79.1278 26.6695C78.4507 26.2643 77.894 25.6634 77.4893 24.8813C77.0678 24.0694 76.8568 23.1372 76.8419 22.0852H85.9228C87.1264 22.0852 88.073 21.9048 88.7491 21.574C89.4113 21.2134 89.7422 20.461 89.7422 19.3034C89.7422 18.0403 89.4262 16.8079 88.7793 15.5904C88.1329 14.3868 87.1561 13.3956 85.8633 12.6275C84.5695 11.8616 83.0053 11.4847 81.2023 11.4847H81.0517ZM99.62 11.4847C98.2816 11.5001 97.0487 11.7255 95.9516 12.1456C94.8084 12.5977 93.8465 13.2446 93.0486 14.0718C92.2818 14.9129 91.6814 15.9213 91.2762 17.0933C90.8696 18.2667 90.659 19.5446 90.659 20.9122C90.659 23.8292 91.4858 26.1137 93.1396 27.8122C94.7024 29.4219 96.8684 30.263 99.62 30.3527C99.771 30.3685 99.9346 30.369 100.1 30.369C101.394 30.369 102.551 30.2031 103.558 29.8578C104.565 29.5112 105.393 29.0911 106.054 28.579C106.716 28.0538 107.211 27.512 107.543 26.9553C107.873 26.3995 108.039 25.9036 108.039 25.498C108.039 25.0319 107.888 24.6559 107.587 24.3994C107.302 24.1447 106.912 24.0086 106.43 24.0086C105.993 24.0086 105.663 24.1145 105.422 24.3097C104.836 24.8511 104.371 25.287 104.01 25.603C103.626 25.9214 103.224 26.2174 102.806 26.4896C102.387 26.7601 101.935 26.9715 101.484 27.0914C101.017 27.2262 100.522 27.2866 99.9657 27.2866C99.8449 27.2866 99.725 27.2866 99.62 27.2713C98.928 27.2262 98.2812 27.031 97.6947 26.6695C97.0032 26.2643 96.4618 25.6634 96.0413 24.8813C95.6351 24.0694 95.4241 23.1372 95.4093 22.0852H104.475C105.693 22.0852 106.64 21.9048 107.302 21.574C107.979 21.2134 108.309 20.461 108.309 19.3034C108.309 18.0403 107.979 16.8079 107.332 15.5904C106.686 14.3868 105.723 13.3956 104.415 12.6275C103.122 11.8616 101.574 11.4847 99.7543 11.4847H99.62ZM36.4743 11.5159C35.7977 11.5159 35.2707 11.7408 34.8953 12.1767C34.5044 12.5977 34.3088 13.2595 34.3088 14.1461V27.5417C34.3088 28.4433 34.5193 29.1505 34.9547 29.632C35.3916 30.1274 35.932 30.369 36.6091 30.369C37.3006 30.369 37.8564 30.1274 38.2932 29.6626C38.7291 29.1812 38.9549 28.4883 38.9549 27.5417V21.7538C38.9549 19.8439 39.06 18.5664 39.2853 17.8745C39.6009 17.0031 40.113 16.327 40.7891 15.8307C41.4662 15.3492 42.2176 15.0936 43.0448 15.0936C44.3065 15.0936 45.1639 15.4998 45.5854 16.3107C46.0059 17.1235 46.2174 18.295 46.2174 19.8295V27.5417C46.2174 28.4433 46.4269 29.1505 46.8633 29.632C47.2987 30.1274 47.8554 30.369 48.5469 30.369C49.2231 30.369 49.7793 30.1274 50.2003 29.6464C50.6218 29.1812 50.8468 28.4735 50.8468 27.5417V18.9275C50.8468 17.9056 50.8021 17.0626 50.7115 16.4162C50.6214 15.7545 50.4267 15.1392 50.1107 14.5671C49.6297 13.5903 48.9229 12.8384 47.9605 12.3119C46.9981 11.7854 45.9014 11.5159 44.6829 11.5159C43.4198 11.5159 42.3073 11.7705 41.33 12.2673C40.3681 12.778 39.4814 13.5601 38.6533 14.642V14.0718C38.6533 13.5304 38.5636 13.0643 38.3685 12.673C38.1733 12.2826 37.9024 11.9964 37.572 11.8007C37.2402 11.6051 36.8796 11.5159 36.4743 11.5159ZM81.0373 14.7177H81.0517C82.2534 14.7177 83.2312 15.1085 83.9677 15.8906C84.7206 16.6718 85.1407 17.86 85.2606 19.454H76.8415C77.0074 17.8907 77.4581 16.7025 78.1947 15.906C78.9313 15.109 79.8783 14.7177 81.0368 14.7177H81.0373ZM99.6046 14.7177H99.62C100.823 14.7177 101.799 15.1085 102.535 15.8906C103.273 16.6718 103.708 17.86 103.814 19.454H95.4097C95.5598 17.8907 96.0111 16.7025 96.763 15.906C97.5 15.109 98.4471 14.7177 99.6046 14.7177ZM61.3119 14.9882H61.3705C62.1675 14.9882 62.9045 15.2289 63.5662 15.6954C64.2577 16.1611 64.8 16.8377 65.2052 17.7248C65.597 18.6119 65.807 19.6794 65.807 20.9127C65.807 22.2353 65.597 23.3324 65.2052 24.2042C64.8 25.0765 64.2577 25.7224 63.5816 26.143C62.9193 26.564 62.1675 26.7759 61.3705 26.7759H61.3565C60.5447 26.7759 59.8072 26.55 59.1306 26.1142C58.44 25.6634 57.9131 25.0016 57.5227 24.1299C57.1314 23.2427 56.9363 22.1753 56.9363 20.9122C56.9363 19.7244 57.1175 18.6719 57.4781 17.7848C57.8536 16.8832 58.3648 16.1908 59.0409 15.7098C59.7027 15.2131 60.4694 14.9882 61.3119 14.9882ZM118.066 14.9882H118.112C118.909 14.9882 119.646 15.2289 120.322 15.6954C120.999 16.1611 121.541 16.8377 121.946 17.7248C122.352 18.6119 122.548 19.6794 122.548 20.9127C122.548 22.2353 122.352 23.3324 121.946 24.2042C121.541 25.0765 120.998 25.7224 120.337 26.143C119.671 26.5622 118.899 26.7819 118.112 26.7759H118.098C117.286 26.7759 116.548 26.55 115.872 26.1142C115.196 25.6634 114.655 25.0016 114.264 24.1299C113.873 23.2427 113.677 22.1753 113.677 20.9122C113.677 19.7244 113.856 18.6723 114.233 17.7848C114.594 16.8832 115.12 16.1908 115.782 15.7098C116.46 15.2131 117.21 14.9882 118.066 14.9882ZM31.2417 15.1392C30.0382 15.8595 28.6254 16.2661 27.1221 16.2661C26.8071 16.2661 26.5059 16.2517 26.1899 16.221V27.2866C26.1899 28.309 26.4306 29.0757 26.8972 29.5874C27.3782 30.1134 27.9651 30.369 28.7017 30.369C29.4526 30.369 30.0702 30.1134 30.5349 29.6022C31.002 29.0911 31.2417 28.3243 31.2417 27.2866V15.1397V15.1392Z" fill="white"/>
</svg>
