<svg width="150" height="73" viewBox="0 0 150 73" fill="none" xmlns="http://www.w3.org/2000/svg">
<g clip-path="url(#clip0_61_546)">
<path fill-rule="evenodd" clip-rule="evenodd" d="M97.0106 26.3505C96.3015 25.4062 96.1789 23.7363 94.7411 23.588C93.3453 23.211 91.956 22.8088 90.5475 22.4828L82.2722 23.8297L81.3027 28.2898L94.6836 30.0349L98.1738 32.3624L107.288 33.3313L111.555 31.7805C107.133 30.3534 102.605 29.2169 98.3075 27.4395C97.7792 27.1963 97.4128 26.7511 97.0106 26.3505Z" fill="#C9C9C9"/>
<path d="M113.267 31.5872C112.969 31.1976 112.487 31.0422 112.154 30.8923C111.828 30.7384 111.875 30.421 111.602 30.3286C111.323 30.2393 110.835 30.8076 110.456 30.6895C110.078 30.5653 110.106 29.8578 109.79 29.7533C109.466 29.6514 108.903 30.1818 108.609 30.0874C108.312 30.0016 108.255 29.2583 107.969 29.1639C107.686 29.0776 107.085 29.606 106.792 29.5151C106.498 29.4162 106.479 28.6926 106.152 28.5851C105.827 28.4851 105.255 29.0261 104.971 28.9282C104.678 28.8379 104.649 28.1157 104.338 28.0108C104.022 27.9103 103.444 28.4407 103.153 28.3454C102.853 28.2485 102.772 27.5066 102.499 27.4168C102.22 27.3315 101.676 27.7695 101.232 27.7443C98.1596 27.4577 96.9843 25.5248 96.7748 26.0966C96.5699 26.6568 97.4157 28.0198 98.4785 28.4801C99.3264 28.8485 108.479 31.3829 108.719 31.4959C108.953 31.6115 109.531 31.8688 109.325 32.2024C109.007 32.6294 108.113 32.2075 107.885 32.0187C107.655 31.8275 107.708 31.7578 107.492 31.6998C107.001 31.5837 106.729 32.4775 106.21 32.3578C105.738 32.2519 105.771 31.3031 105.292 31.1921C104.762 31.0639 104.523 31.9632 104.019 31.8461C103.601 31.7518 103.544 30.7853 103.096 30.6774C102.581 30.5527 102.347 31.4545 101.811 31.3294C101.35 31.2214 101.375 30.2787 100.893 30.1626C100.411 30.0486 100.074 30.9226 99.6191 30.8192C99.1623 30.7132 99.0957 29.7503 98.6905 29.6544C98.2752 29.5621 97.9487 30.0516 97.391 30.1243C97.391 30.1243 95.7897 30.5572 93.2584 27.9129C90.722 25.274 89.6819 24.7613 88.2381 25.8362C85.8814 27.5919 84.4179 26.4312 83.991 25.9094C83.4787 25.3109 84.0152 24.7613 84.0152 24.7613C84.0152 24.7613 84.7636 25.917 85.7058 25.9371C87.2243 25.9826 88.3693 23.911 90.9713 23.8741C94.2677 23.7555 95.1271 24.9263 96.0279 25.0197C96.8626 25.1014 97.1412 24.9667 97.7185 24.6311H97.7155C98.1828 24.4651 98.5891 25.3679 99.0786 25.1862C99.5963 24.9909 99.2179 24.081 99.775 23.8711C100.296 23.6844 100.636 24.5993 101.135 24.4136C101.659 24.2218 101.325 23.2867 101.829 23.1045C102.347 22.9173 102.65 23.8413 103.188 23.644C103.728 23.4517 103.38 22.5257 103.871 22.3395C104.379 22.1543 104.746 23.0636 105.244 22.886C105.717 22.7175 105.447 21.749 105.938 21.5729C106.449 21.3897 106.779 22.3021 107.323 22.1023C107.77 21.9463 107.522 20.9769 107.986 20.8013C108.449 20.6282 108.879 21.527 109.362 21.3463C109.814 21.1798 109.55 20.2164 110.031 20.0362C110.54 19.8525 110.933 20.7508 111.415 20.5813C111.892 20.4102 111.53 19.633 112.152 19.3247C112.152 19.3247 113.013 19.0416 112.958 18.4097C112.951 18.3038 112.773 16.9533 111.356 16.6672C109.992 16.3931 99.2269 19.3706 99.0877 19.199C98.097 17.241 96.8273 17.7855 96.634 17.8289C96.4372 17.8793 95.2351 18.3906 93.9039 17.8793C91.2898 16.6959 89.2025 19.7052 87.7708 19.309C86.4522 18.9386 85.4444 19.1521 84.8913 19.3403C84.3851 19.5154 83.5645 20.1745 81.8255 19.5765C68.384 14.9872 57.8787 18.9992 57.8787 18.9992C51.9556 20.9779 51.1976 18.9992 51.1976 18.9992C51.1976 18.9992 49.2481 16.3513 62.9732 13.1931C82.7001 8.66135 83.2955 1.16221 83.0619 0.687832C82.7379 -1.08182e-05 82.6143 0.810462 81.9648 1.55584C81.4197 2.17555 80.7859 1.86922 80.7859 1.86922C80.1652 1.57148 79.768 2.28001 79.768 2.28001C79.768 2.28001 78.9697 3.51944 78.2636 2.81494C77.5849 2.13619 76.6841 3.66781 76.3475 3.72837C75.9443 3.79902 75.7474 3.6022 75.207 3.35391C74.3965 2.99561 73.5265 4.47223 73.0814 4.57669C72.3996 4.73313 71.9207 3.77328 71.3348 4.17801C69.5816 5.38918 69.306 5.55723 68.8337 5.08639C68.4855 4.7296 68.4335 4.34354 67.2627 5.46488C66.266 6.42019 65.7891 6.59934 65.3889 5.99174C64.9771 5.3801 65.0831 4.5449 63.3703 6.18855C62.5528 6.97329 62.1349 6.98843 61.6666 6.63567C61.3139 6.37073 61.3164 5.10658 60.0881 6.25113C58.9748 7.28062 58.1663 7.73229 57.8514 6.81785C57.5032 5.79038 56.1911 7.0071 55.8878 7.29374C55.5729 7.57988 54.8987 8.33737 54.4258 7.55566C53.9535 6.7689 52.8221 7.94323 52.1494 8.6881C51.6301 9.26694 51.2107 8.82032 50.6626 8.45293C50.0404 8.02599 48.1767 10.6275 48.0082 10.7829C47.8376 10.9313 47.7079 10.7829 47.281 10.4211C46.6249 9.86495 44.8551 12.9554 44.5685 13.1568C44.5685 13.1568 44.4473 13.4238 43.9649 12.963C43.2786 12.31 39.6334 17.1077 38.2578 22.5363C36.498 29.4955 39.3019 34.8327 39.3019 34.8327C39.3019 34.8327 40.1442 34.8579 40.503 34.2892L41.0485 33.0588C41.4911 32.0334 42.2163 32.3558 42.2163 32.3558L40.4974 37.4725C40.2259 38.1462 40.3899 39.0995 40.9905 40.0008C41.5562 40.9062 41.9463 41.5183 42.4 41.9392C43.7953 43.2533 43.6525 41.699 43.6888 41.5052C43.8524 40.673 44.7738 41.3119 45.497 41.7106C46.8096 42.4474 46.6638 40.8204 46.9514 40.29C47.1513 39.91 47.7967 39.8928 48.4972 40.4797C49.0422 40.9354 49.5847 39.3917 49.5847 39.3917C50.265 36.1014 48.6662 35.7209 47.8018 35.6724L46.0516 35.5927C46.0516 35.5927 46.1667 35.0921 46.3489 34.6232L46.4271 34.2912C48.3357 29.5348 45.1458 28.6169 44.1915 28.6926C43.1388 28.7864 43.2125 28.1157 43.2125 28.1157C43.2125 28.1157 48.9776 26.9803 47.9027 33.0946C47.9027 33.0946 47.6907 34.1595 47.5631 34.7146L49.1477 34.8998C50.5107 35.0699 50.753 36.6827 50.753 36.6827C50.753 36.6827 55.7677 38.0085 58.6119 37.4786C58.6119 37.4786 59.8832 37.1758 60.2359 36.3845C60.2359 36.3845 62.0779 32.0445 67.4555 31.8613C67.4555 31.8613 67.6447 32.4229 66.7853 32.7156C65.7558 33.0628 62.3232 33.3354 61.6101 37.2777V37.2934C61.5324 37.9403 61.706 39.318 63.1089 39.9564C64.3049 40.4959 64.7258 42.673 64.9741 43.2609C65.6705 44.9298 66.7126 43.3346 66.7126 43.3346C66.7126 43.3346 67.3737 41.9871 67.94 42.7345C68.8978 43.9946 69.3429 43.3598 69.5604 42.5574C69.7986 41.6914 70.1453 41.3134 71.148 42.3666C71.576 42.8239 72.4167 42.4706 72.5005 41.6884C72.6781 39.966 73.8414 41.3351 74.0079 41.4017C74.2072 41.4774 75.4255 41.2034 74.7437 39.261C74.7437 39.261 73.8227 37.4099 69.6704 36.6116C68.6964 36.4269 68.8514 35.7214 68.8514 35.7214L69.7658 35.85C70.0383 35.8945 72.4531 36.1624 72.7104 36.2033C82.8388 37.2025 90.5242 33.7668 90.7553 33.5221C98.6229 35.0295 109.322 34.5157 111.33 33.7921C113.349 33.0805 113.499 31.9016 113.267 31.5872H113.267ZM97.0221 19.032C97.1866 18.767 97.3421 18.6172 97.4849 18.545C98.0955 18.1978 98.4851 19.2843 98.4109 19.3242C98.4074 19.3262 98.3933 19.3307 98.3872 19.3333C98.3862 19.3348 98.3862 19.3388 98.3852 19.3403C98.2893 19.3867 97.1114 19.7208 96.9954 19.6441C96.7622 19.4826 97.0221 19.032 97.0221 19.032ZM92.5489 19.3756C92.5489 19.3756 92.7003 19.1839 92.995 19.0865C93.2857 18.9805 93.7242 18.9628 94.3056 19.3373C94.9742 19.7622 94.9571 20.0943 94.9571 20.0943C94.9293 20.1069 94.9008 20.118 94.8718 20.1276C94.3873 20.3153 92.399 20.5591 92.399 20.5591C92.2855 20.3742 92.2386 20.1562 92.2658 19.941C92.2931 19.7258 92.3929 19.5264 92.5489 19.3756ZM55.4669 9.75494C55.801 10.0123 55.4811 11.4955 55.2429 11.277L53.5261 10.3686C53.5261 10.3686 55.1248 9.50513 55.4669 9.75494ZM52.6747 10.7022C53.0123 10.9535 52.6959 12.4397 52.4567 12.2187L50.7444 11.3088C50.7449 11.3088 52.3356 10.4443 52.6747 10.7022ZM51.7088 13.6014C52.0479 13.8547 51.73 15.3435 51.4878 15.1285L49.7729 14.2075C49.7729 14.2075 51.3676 13.3496 51.7088 13.6014ZM50.0747 17.4943L48.3579 16.5824C48.3579 16.5824 49.9546 15.7174 50.2932 15.9718C50.6364 16.2251 50.3084 17.7128 50.0747 17.4943ZM49.7517 20.4309L48.0395 19.5185C48.0395 19.5185 49.6327 18.6575 49.9723 18.9063C50.3119 19.1576 49.9955 20.6393 49.7512 20.4304L49.7517 20.4309ZM49.72 11.7357C50.0606 11.9885 49.7391 13.4682 49.4999 13.2577L47.7821 12.3428C47.7821 12.3428 49.3818 11.4788 49.72 11.7357ZM48.2307 13.996C48.5668 14.2484 48.2484 15.7285 48.0117 15.5181L46.2969 14.6062C46.2969 14.6062 47.8916 13.7392 48.2307 13.9955V13.996ZM45.1705 17.5422C45.1705 17.5422 46.7703 16.6742 47.1048 16.9311C47.446 17.1824 47.125 18.6656 46.8853 18.4506L45.1705 17.5422ZM46.4846 21.2565L44.7738 20.341C44.7738 20.341 46.3696 19.4821 46.7067 19.7355C47.0473 19.9878 46.7279 21.4694 46.4846 21.2565ZM45.2644 15.0255C45.6025 15.2728 45.283 16.758 45.0433 16.5435L43.3346 15.6286C43.3346 15.6286 44.9217 14.7697 45.2644 15.0255ZM43.7222 18.0161C44.0618 18.2674 43.7433 19.7592 43.4981 19.5397L41.7873 18.6293C41.7878 18.6293 43.383 17.7719 43.7222 18.0161ZM41.4679 21.5588C41.4679 21.5588 43.0636 20.7009 43.4017 20.9532C43.7439 21.2035 43.4183 22.6912 43.1832 22.4752L41.4679 21.5588ZM44.5271 24.9097L42.8138 23.9968C42.8138 23.9968 44.4105 23.1323 44.7496 23.3861C45.0887 23.6405 44.7648 25.1221 44.5271 24.9102V24.9097ZM46.9837 26.9005L45.2704 25.9911C45.2704 25.9911 46.8677 25.1267 47.2068 25.3775C47.5429 25.6268 47.2184 27.1201 46.9837 26.9005ZM47.7518 23.7934L46.0375 22.8774C46.0375 22.8774 47.6342 22.0195 47.9733 22.2653C48.3125 22.5191 47.991 24.0018 47.7518 23.7934ZM50.0313 28.2414L48.3206 27.3295C48.3206 27.3295 49.9082 26.467 50.2508 26.7199C50.589 26.9747 50.2746 28.4508 50.0313 28.2414ZM50.8539 25.379L49.1421 24.4676C49.1421 24.4676 50.7353 23.6097 51.0734 23.863C51.4116 24.1123 51.0966 25.598 50.8539 25.379ZM51.4211 22.6741L49.7089 21.7606C49.7089 21.7606 51.3025 20.9027 51.6447 21.1551C51.9843 21.4099 51.6598 22.887 51.4211 22.6741ZM53.8299 27.8957L52.1171 26.9782C52.1171 26.9782 53.7113 26.1218 54.0529 26.3706C54.3961 26.623 54.0711 28.1122 53.8299 27.8957ZM54.5717 25.0459L52.8599 24.136C52.8599 24.136 54.4561 23.2685 54.7953 23.5254C55.1293 23.7702 54.8079 25.2589 54.5712 25.0459H54.5717ZM55.1924 22.0271L53.4801 21.1147C53.4801 21.1147 55.0748 20.2593 55.4165 20.5076C55.7531 20.7609 55.4316 22.2421 55.1924 22.0266V22.0271ZM57.5981 27.3613L55.8803 26.4489C55.8803 26.4489 57.477 25.5854 57.8196 25.8367C58.1557 26.0966 57.8312 27.5808 57.5981 27.3608V27.3613ZM58.1734 24.3132L56.4616 23.3962C56.4616 23.3962 58.0583 22.5363 58.396 22.7861C58.7361 23.042 58.4141 24.5191 58.1739 24.3127L58.1734 24.3132ZM58.7709 21.1833L57.0581 20.2699C57.0581 20.2699 58.6523 19.4105 58.993 19.6608C59.3311 19.9197 59.0111 21.3983 58.7709 21.1833ZM61.3487 26.1562L59.6344 25.2523C59.6344 25.2523 61.2306 24.3894 61.5657 24.6402C61.9099 24.8915 61.5884 26.3727 61.3487 26.1562ZM61.818 23.1535L60.1007 22.2461C60.1007 22.2461 61.6959 21.3847 62.033 21.633C62.3812 21.8878 62.0547 23.377 61.8175 23.1535H61.818ZM62.4125 20.2113L60.6941 19.304C60.6941 19.304 62.2939 18.437 62.63 18.6868C62.9686 18.9427 62.6482 20.4309 62.4125 20.2108V20.2113ZM65.0367 25.5218L63.3229 24.6084C63.3229 24.6084 64.9146 23.7449 65.2572 23.9978C65.6004 24.2526 65.2769 25.7323 65.0362 25.5218H65.0367ZM65.504 22.7185L63.7892 21.8091C63.7892 21.8091 65.3874 20.9396 65.7235 21.1985C66.0621 21.4437 65.7422 22.935 65.504 22.7185ZM66.0682 19.7274L64.3514 18.817C64.3514 18.817 65.9481 17.9455 66.2902 18.2054C66.6294 18.4592 66.3119 19.9388 66.0682 19.7274ZM68.4426 25.5738L66.7328 24.6619C66.7328 24.6619 68.3265 23.7959 68.6656 24.0543C69.0053 24.3036 68.6833 25.7868 68.4426 25.5738ZM69.0083 22.564L67.2905 21.6542C67.2905 21.6542 68.8902 20.7861 69.2298 21.0435C69.5659 21.2979 69.245 22.778 69.0083 22.564ZM69.6502 19.5679L67.9349 18.6575C67.9349 18.6575 69.5321 17.7895 69.8718 18.0479C70.2139 18.2987 69.8894 19.7844 69.6497 19.5679H69.6502ZM72.0135 25.5738L70.2987 24.6573C70.2987 24.6573 71.8934 23.7964 72.232 24.0548C72.5707 24.3036 72.2558 25.7868 72.0135 25.5738ZM72.5621 22.7311L70.8513 21.8156C70.8513 21.8156 72.444 20.9618 72.7826 21.205C73.1227 21.4609 72.8028 22.9476 72.5621 22.7311ZM73.2106 19.8213L71.5013 18.9104C71.5013 18.9104 73.0955 18.0504 73.4361 18.2987C73.7702 18.551 73.4498 20.0362 73.2106 19.8213ZM75.3705 26.0033L73.6557 25.0818C73.6557 25.0818 75.2524 24.2274 75.5915 24.4822C75.9342 24.7295 75.6137 26.2157 75.37 26.0033H75.3705ZM75.9761 23.2463L74.2628 22.3375C74.2628 22.3375 75.8615 21.4755 76.1976 21.7278C76.5403 21.9847 76.2092 23.4648 75.9761 23.2468V23.2463ZM76.6306 20.4304L74.9127 19.5225C74.9127 19.5225 76.511 18.6595 76.8521 18.9058C77.1897 19.1571 76.8637 20.6388 76.6306 20.4299V20.4304ZM79.3022 23.8413L77.5904 22.9385C77.5904 22.9385 79.1841 22.0735 79.5263 22.3213C79.8629 22.5767 79.5419 24.0593 79.3022 23.8413Z" fill="white"/>
<path d="M34.27 49.8113C33.9117 48.861 33.2319 48.4517 31.9869 48.4331C31.8734 48.4295 26.1128 48.4381 26.1128 48.4381L17.5851 71.6562H21.7359C22.0742 71.685 22.4143 71.6285 22.725 71.4917C23.5325 71.1233 23.9286 70.1871 24.0437 69.8677C24.0437 69.8758 25.2039 66.6329 25.2836 66.4209L33.8622 66.4179C34.0414 66.9649 35.6048 71.6461 35.6048 71.6461H41.2226L37.6592 60.3469L34.27 49.8113ZM32.54 61.6519L26.7592 61.653C27.383 59.9462 28.9353 55.6274 29.5979 53.8793C30.1707 55.6425 32.5249 61.5949 32.54 61.6519ZM74.6917 48.2524H74.6887C68.0439 48.2615 63.224 53.2495 63.224 60.1067C63.224 66.8262 68.1504 71.8954 74.6917 71.8954C81.2295 71.8954 86.3563 66.7207 86.3563 60.1067C86.3563 53.4584 81.2295 48.2524 74.6917 48.2524ZM74.8582 66.7156C71.471 66.7156 68.8165 63.7866 68.8165 60.0441C68.8165 56.3364 71.414 53.5432 74.8542 53.5432C78.2697 53.5432 80.7465 56.2754 80.7465 60.0441C80.746 63.8502 78.2132 66.7156 74.8582 66.7156ZM101.388 58.024L101.17 57.9604C101.176 57.9634 99.0094 57.3044 99.0039 57.2983L98.6804 57.1832C96.9106 56.5438 95.654 56.0074 95.654 54.9774V54.9017C95.8296 53.1914 99.0049 53.1733 99.0352 53.1733C100.786 53.1733 102.132 53.4407 103.836 54.1261L103.873 54.1397L103.946 54.1609C104.34 54.2406 104.684 54.2517 104.963 54.1896L105.435 54.011C106.113 53.6386 106.787 51.6644 107.045 50.8332L107.129 50.5667L106.92 50.375C106.839 50.2967 106.342 49.888 104.536 49.2143C102.699 48.5259 100.097 48.4184 100.097 48.4184L98.8136 48.4129C92.1103 48.4129 89.5512 52.5495 89.47 55.3276C89.4145 58.0957 90.9905 59.5203 93.372 60.8142C94.3681 61.3663 96.1879 61.874 97.5076 62.2429C97.501 62.2368 98.8737 62.6436 98.8737 62.6436C101.371 63.4278 102.325 64.2989 102.147 65.6503C102.068 66.0969 101.224 66.8363 99.3067 66.8363C97.8482 66.8363 96.5301 66.6122 95.1579 66.1333C94.4988 65.8714 93.8171 65.5332 93.0969 65.1058L93.0621 65.0841L92.9884 65.0523C92.5897 64.9034 92.233 64.8414 91.9266 64.8671L91.3993 64.9806C90.6297 65.2688 89.5593 67.2228 89.1314 68.0489L88.9628 68.3754L89.254 68.6061C89.3055 68.6409 90.4964 69.5876 91.5083 70.1801C92.6992 70.8402 94.0371 71.3181 95.6161 71.6375C96.253 71.7536 97.2643 71.8999 98.8484 71.8999C104.043 71.8999 107.816 69.2692 108.25 65.3511C108.439 61.7963 106.258 59.4769 101.388 58.024ZM112.493 48.4669C112.277 48.4633 111.144 48.4855 110.492 49.0881C110.193 49.3636 110.036 49.732 110.036 50.1469L110.032 53.8202C110.032 53.8202 116.299 53.8152 117.119 53.8152V71.6648L122.925 71.6597V53.8152C123.699 53.8142 127.487 53.8142 127.487 53.8142C127.701 53.8142 128.832 53.79 129.485 53.1899C129.632 53.0549 129.748 52.8906 129.827 52.7077C129.906 52.5248 129.946 52.3273 129.944 52.1281V48.4669H112.493ZM12.9105 66.4103H6.39345C6.39345 65.5544 6.37528 50.5844 6.37528 50.5844C6.37528 49.9273 6.17847 49.406 5.78332 49.0417C5.152 48.4487 4.21183 48.4517 3.8611 48.4593L0.436523 48.4517L0.445103 71.6557H14.9741L14.9842 67.9682C14.9842 67.4963 14.7828 66.4103 12.9105 66.4103ZM54.4511 53.3994C55.8591 53.3055 57.044 53.3994 58.1618 53.7052C58.7618 53.9055 59.3038 53.9454 59.7631 53.8157L60.2263 53.6098C60.8763 53.2096 61.3416 51.1698 61.5611 49.9945L61.6116 49.7189L61.3744 49.5483C61.3154 49.5055 61.1307 49.3763 59.0268 48.8085C57.571 48.4222 56.0708 48.2292 54.5646 48.2347L54.4718 48.2357C49.6634 48.2357 42.4227 51.4095 42.2153 60.1486V60.198C42.4227 68.9402 49.6639 72.1129 54.4753 72.1129L54.5646 72.1164C55.4054 72.12 57.1081 72.0508 59.0268 71.5361C61.1312 70.9729 61.3154 70.8422 61.3769 70.7983L61.6121 70.6318L61.5616 70.3547C61.3421 69.1728 60.8768 67.1375 60.2268 66.7343V66.7313L59.7651 66.5279C59.3043 66.4022 58.7618 66.4431 58.1532 66.6475C57.0415 66.9463 55.857 67.0432 54.4339 66.9493C50.7923 66.593 48.6052 64.1147 48.4402 60.1536C48.6047 56.2305 50.7923 53.7526 54.4506 53.3994H54.4511ZM147.143 71.6451C148.04 71.6254 149.564 71.097 149.564 69.3141L149.546 66.4023L139.316 66.4073C139.316 66.4073 139.333 63.0695 139.333 62.5164H147.778L147.763 57.1484C147.763 57.1484 140.184 57.1575 139.347 57.1575C139.345 56.5227 139.347 54.4591 139.347 53.8207C140.184 53.8207 147.1 53.8112 147.1 53.8112C147.313 53.8147 148.471 53.8157 149.097 53.1904C149.535 52.7514 149.556 51.9525 149.556 51.5362V48.4714H133.462L133.465 71.6638L147.143 71.6451Z" fill="white"/>
</g>
<defs>
<clipPath id="clip0_61_546">
<rect width="150" height="72.12" fill="white"/>
</clipPath>
</defs>
</svg>
