<svg width="152" height="41" viewBox="0 0 152 41" fill="none" xmlns="http://www.w3.org/2000/svg">
<path d="M15.8608 10.5737C9.25215 10.5737 3.60833 14.6843 1.32172 20.4868C3.60833 26.2892 9.25215 30.3998 15.8608 30.3998C22.4695 30.3998 28.1134 26.2892 30.4 20.4868C28.1134 14.6843 22.4695 10.5737 15.8608 10.5737ZM15.8608 27.0955C12.2128 27.0955 9.25215 24.1348 9.25215 20.4868C9.25215 16.8388 12.2128 13.8781 15.8608 13.8781C19.5088 13.8781 22.4695 16.8388 22.4695 20.4868C22.4695 24.1348 19.5088 27.0955 15.8608 27.0955ZM15.8608 16.5216C13.6668 16.5216 11.8956 18.2927 11.8956 20.4868C11.8956 22.6809 13.6668 24.452 15.8608 24.452C18.0549 24.452 19.8261 22.6809 19.8261 20.4868C19.8261 18.2927 18.0549 16.5216 15.8608 16.5216Z" fill="white"/>
<path d="M46.6838 32.1026C44.8863 32.1026 43.3319 31.6268 42.0207 30.6752C40.7307 29.7235 39.7368 28.3912 39.0389 26.6782C38.3622 24.9652 38.0238 22.9456 38.0238 20.6194C38.0238 18.3143 38.3622 16.3052 39.0389 14.5922C39.7368 12.8581 40.7307 11.5152 42.0207 10.5636C43.3319 9.61192 44.8863 9.1361 46.6838 9.1361C48.9678 9.1361 50.8077 9.77053 52.2034 11.0394C53.5992 12.2871 54.4134 13.9578 54.646 16.0514H51.6959C51.4844 14.8037 50.9557 13.7569 50.1098 12.911C49.2639 12.0651 48.1219 11.6421 46.6838 11.6421C44.844 11.6421 43.3954 12.4457 42.338 14.053C41.2806 15.6391 40.7519 17.8279 40.7519 20.6194C40.7519 23.432 41.2806 25.6314 42.338 27.2175C43.3954 28.8036 44.844 29.5966 46.6838 29.5966C48.1853 29.5966 49.3379 29.1948 50.1415 28.3912C50.9663 27.5876 51.4844 26.5513 51.6959 25.2825H54.646C54.3076 27.3972 53.4617 29.0679 52.1083 30.2945C50.7759 31.4999 48.9678 32.1026 46.6838 32.1026ZM58.694 31.722V29.438H62.7226V19.065C62.7226 18.5363 62.4688 18.272 61.9613 18.272H59.1063V15.988H62.9447C63.6425 15.988 64.203 16.1783 64.6259 16.559C65.0489 16.9396 65.2603 17.5001 65.2603 18.2402V18.9064H65.3872C65.641 17.849 66.1168 17.0348 66.8147 16.4638C67.5337 15.8928 68.5277 15.6073 69.7966 15.6073H72.6832V18.4306H69.4159C68.1259 18.4306 67.1319 18.8641 66.4341 19.7312C65.7362 20.5771 65.3872 21.6662 65.3872 22.9985V29.438H70.3358V31.722H58.694ZM84.8521 32.1026C83.3929 32.1026 82.0817 31.8383 80.9186 31.3096C79.7766 30.7598 78.8567 29.9667 78.1588 28.9305C77.4609 27.8942 77.0803 26.6253 77.0168 25.1239H79.7449C79.7872 26.3927 80.2524 27.4713 81.1406 28.3595C82.0289 29.2265 83.266 29.6601 84.8521 29.6601C86.3959 29.6601 87.5907 29.2688 88.4366 28.4864C89.2826 27.6827 89.7055 26.5936 89.7055 25.219C89.7055 24.2674 89.4623 23.4849 88.9759 22.8716C88.4895 22.2372 87.8339 21.7719 87.0092 21.4759C86.2056 21.1586 85.3068 21 84.3128 21H82.3778V18.5892H84.059C85.4971 18.5892 86.6391 18.2825 87.485 17.6692C88.3521 17.056 88.7856 16.1572 88.7856 14.9729C88.7856 13.979 88.4367 13.1648 87.7388 12.5303C87.062 11.8959 86.0892 11.5787 84.8204 11.5787C83.5938 11.5787 82.5998 11.9276 81.8385 12.6255C81.0772 13.3022 80.6437 14.1904 80.5379 15.2901H77.8733C77.9156 14.0847 78.2328 13.0273 78.825 12.1179C79.4171 11.1874 80.2207 10.4578 81.2358 9.92914C82.2721 9.40045 83.4669 9.1361 84.8204 9.1361C86.2796 9.1361 87.4956 9.38987 88.4684 9.89742C89.4623 10.405 90.2131 11.0923 90.7206 11.9593C91.2282 12.8052 91.4819 13.7463 91.4819 14.7826C91.4819 15.8823 91.1436 16.8551 90.4668 17.701C89.7901 18.5257 88.9865 19.1073 88.056 19.4457V19.636C89.3037 20.0167 90.34 20.6617 91.1647 21.571C91.9895 22.4804 92.4019 23.6964 92.4019 25.219C92.4019 26.509 92.0952 27.6722 91.4819 28.7084C90.8898 29.7447 90.0227 30.5694 88.8808 31.1827C87.7599 31.796 86.417 32.1026 84.8521 32.1026ZM105.237 31.722C103.799 31.722 102.667 31.373 101.843 30.6752C101.018 29.9773 100.605 28.719 100.605 26.9003V18.272H96.6084V15.988H98.9876C100.066 15.988 100.69 15.4593 100.859 14.4019L101.303 11.9593H103.27V15.988H109.551V18.272H103.27V26.9003C103.27 27.7885 103.471 28.4123 103.873 28.7719C104.296 29.1314 105.015 29.3111 106.03 29.3111H109.551V31.722H105.237ZM122.418 13.1965C121.783 13.1965 121.254 12.985 120.831 12.562C120.408 12.1391 120.197 11.6315 120.197 11.0394C120.197 10.4261 120.408 9.91857 120.831 9.51676C121.254 9.0938 121.783 8.88232 122.418 8.88232C123.031 8.88232 123.549 9.0938 123.972 9.51676C124.416 9.91857 124.638 10.4261 124.638 11.0394C124.638 11.6315 124.416 12.1391 123.972 12.562C123.549 12.985 123.031 13.1965 122.418 13.1965ZM116.263 31.722V29.438H121.276V19.065C121.276 18.5363 121.011 18.272 120.482 18.272H116.803V15.988H121.117C122.999 15.988 123.94 16.9291 123.94 18.8112V29.438H128.952V31.722H116.263ZM140.074 31.722L133.159 15.988H136.204L141.628 28.8036L147.084 15.988H150.098L143.151 31.722H140.074Z" fill="white"/>
</svg>
