<svg width="150" height="42" viewBox="0 0 150 42" fill="none" xmlns="http://www.w3.org/2000/svg">
<g clip-path="url(#clip0_61_423)">
<path d="M0 0V40.95H6.75V22.725C19.05 39.525 39 41.85 47.4 40.95V0H40.725V34.05C12.825 31.05 6.45 10.125 6.75 0H0ZM57.675 0H50.775C50.25 17.55 64.725 24.375 72 25.5V40.875H79.275V25.5C97.35 22.05 101.025 7.05 100.65 0H93.675C93.675 25.95 56.85 24.6 57.675 0ZM109.725 0H103.05C101.7 10.725 110.175 17.925 114.525 20.175C104.025 26.1 102.3 36.375 102.75 40.8H109.725C110.925 16.425 144.3 20.175 143.25 40.8H149.85C150.75 30.525 142.725 22.8 138.525 20.175C149.025 14.175 150.45 4.2 149.85 0H143.25C142.2 24.9 108.3 20.025 109.725 0Z" fill="white"/>
</g>
<defs>
<clipPath id="clip0_61_423">
<rect width="150" height="41.1" fill="white"/>
</clipPath>
</defs>
</svg>
