<svg width="150" height="20" viewBox="0 0 150 20" fill="none" xmlns="http://www.w3.org/2000/svg">
<g clip-path="url(#clip0_60_145)">
<path d="M74.01 7.815H64.59V0.585H61.74V18.945H64.59V10.245H74.01V18.945H76.83V0.585H74.01M46.215 0.525C45.18 0.495 43.08 0.495 41.22 0.495V18.93H44.1V11.94C44.82 11.94 46.305 11.88 47.505 11.85C49.185 11.82 53.565 10.98 53.535 5.925C53.58 0.225 47.265 0.525 46.215 0.525ZM46.065 9.495H44.16V2.85H45.78C46.53 2.85 50.955 2.52 51.09 5.955C51.27 9.33 47.775 9.495 46.065 9.495ZM19.635 0.495L19.665 18.93H31.23V16.53H22.545V10.275H28.695C28.695 9.75 28.665 8.985 28.695 7.98H22.545V2.955H31.23C31.2 1.5 31.23 0.495 31.23 0.495H19.635ZM2.82 4.995C2.82 1.98 6.81 1.86 9.165 3.795C9.975 1.47 10.035 1.305 10.035 1.305C3.165 -1.995 0.03 2.37 0.03 5.16C0.03 11.835 9.495 10.41 8.13 15.105C7.65 16.815 4.605 17.79 1.095 15.66C0.84 16.38 0.42 17.25 0 18.12C4.635 20.55 10.65 19.38 10.845 14.37C11.115 8.07 2.82 8.52 2.82 4.995ZM124.38 5.67C123.96 0.195 118.65 0.615 117.48 0.555C116.505 0.525 114.435 0.495 112.65 0.495V18.9H115.53V11.16C116.505 11.16 116.82 11.16 118.29 11.1L123.54 18.9H127.035L121.23 10.62C122.79 10.05 124.605 8.715 124.38 5.67ZM117.315 9C116.67 9 116.175 9 115.53 8.97V2.745H117.045C117.765 2.745 121.545 2.52 121.875 5.535C122.28 9.105 118.095 9 117.315 9ZM143.385 0.525H140.055L134.025 18.96H136.875C137.775 15.63 138.075 14.685 138.075 14.685L145.53 14.655C146.4 17.115 147.045 18.99 147.045 18.99H150L143.385 0.525ZM138.735 12.57L141.645 3.465H141.675L144.72 12.54L138.735 12.57ZM94.71 0C88.845 0 85.02 4.335 85.02 9.72C85.02 15.105 88.845 19.44 94.71 19.44C100.575 19.44 104.4 15.105 104.4 9.72C104.4 4.335 100.575 0 94.71 0ZM94.71 16.785C90.405 16.785 87.975 13.65 87.975 9.72C87.975 5.835 90.405 2.655 94.71 2.655C98.985 2.655 101.445 5.79 101.445 9.72C101.445 13.605 99.015 16.785 94.71 16.785Z" fill="white"/>
</g>
<defs>
<clipPath id="clip0_60_145">
<rect width="150" height="19.44" fill="white"/>
</clipPath>
</defs>
</svg>
