<svg width="240" height="59" viewBox="0 0 240 59" fill="none" xmlns="http://www.w3.org/2000/svg">
<g clip-path="url(#clip0_68_3164)">
<path d="M8.60363 41.8458C8.60363 41.8458 30.1484 17.7673 42.0603 15.9927C53.9731 14.2189 21.0233 51.2247 30.4014 47.4225C39.7796 43.6196 81.6007 12.1913 90.2189 10.6706C98.8363 9.1491 75.0109 35.0029 77.5454 41.592C80.08 48.1825 121.141 13.0756 130.012 10.6058C138.883 8.13528 107.201 44.8873 121.394 43.3665C135.588 41.8451 168.791 2.30546 173.1 14.7251C177.409 27.1447 160.174 50.4633 174.621 45.1404C189.068 39.8175 216.403 9.86401 219.617 14.0575C222.833 18.2502 204.023 44.8873 216.696 39.3113C229.369 33.7345 228.748 33.7745 231.396 31.7076" stroke="#FE7735" stroke-width="22" stroke-miterlimit="10" stroke-linecap="round"/>
</g>
<defs>
<clipPath id="clip0_68_3164">
<rect width="240" height="58.1818" fill="white"/>
</clipPath>
</defs>
</svg>
