<svg width="230" height="95" viewBox="0 0 230 95" fill="none" xmlns="http://www.w3.org/2000/svg">
<rect y="10" width="230" height="85" rx="8" fill="black"/>
<rect width="220" height="85" rx="8" fill="#31BD64"/>
<g clip-path="url(#clip0_23_2909)">
<path d="M182.9 66.1C182.8 64.5 182.7 62.9 182.5 61.3C182 58 180.6 55.2 178 53.1C175.3 50.9 172.7 48.6 169.2 47.9C168.7 47.8 168.1 47.5 167.8 47.1C167.4 46.5 166.8 45.7 166.9 45.1C167 44.5 167.8 43.7 168.5 43.6C177.7 41.9 182 35.5 184.5 27.3C185.1 25.3 185.4 23.1 185.8 21C186.1 20.3 186 19.6 186.3 19C186.6 18.5 187.2 17.9 187.6 18C188 18 188.5 18.7 188.8 19.2C189 19.6 188.9 20.1 188.9 20.6C188.8 22.7 188.7 24.7 188.6 26.8C188.5 29.1 188.3 31.4 188.3 33.7C188.2 37.5 190.6 39.8 193.6 41.3C195.5 42.2 197.6 42.7 199.9 42.4C201.3 42.2 202.7 42.6 204.2 42.8C204.7 42.9 205.2 43 205.5 43.3C205.9 43.8 206.4 44.5 206.4 45C206.4 45.9 205.5 46 204.7 45.9C203.4 45.8 202.2 45.7 200.9 45.5C198.5 45.2 196.3 45.8 194.1 46.6C193.1 47 192.1 47.8 191.6 48.7C190.5 50.4 189.4 52.1 188.9 54C187.7 58.4 186.9 62.9 185.9 67.3C185.7 68.2 185.7 69.1 185.3 69.9C185.1 70.4 184.4 71 184 71C183.6 71 182.9 70.3 182.9 69.8C182.8 68.6 182.9 67.3 182.9 66.1Z" fill="white"/>
</g>
<path d="M25.436 41.216C24.38 41.216 23.48 40.946 22.736 40.406C22.004 39.866 21.44 39.11 21.044 38.138C20.66 37.154 20.468 36.014 20.468 34.718C20.468 33.41 20.66 32.27 21.044 31.298C21.44 30.314 22.01 29.552 22.754 29.012C23.498 28.46 24.392 28.184 25.436 28.184C26.792 28.184 27.872 28.556 28.676 29.3C29.48 30.032 29.948 31.028 30.08 32.288H27.974C27.866 31.628 27.596 31.082 27.164 30.65C26.744 30.206 26.162 29.984 25.418 29.984C24.47 29.984 23.732 30.404 23.204 31.244C22.676 32.084 22.412 33.242 22.412 34.718C22.412 36.182 22.676 37.334 23.204 38.174C23.732 39.002 24.47 39.416 25.418 39.416C26.186 39.416 26.774 39.218 27.182 38.822C27.59 38.414 27.854 37.88 27.974 37.22H30.08C29.888 38.456 29.402 39.434 28.622 40.154C27.842 40.862 26.78 41.216 25.436 41.216ZM36.193 41.216C35.341 41.216 34.579 41.024 33.907 40.64C33.235 40.256 32.707 39.716 32.323 39.02C31.939 38.312 31.747 37.484 31.747 36.536C31.747 35.588 31.939 34.766 32.323 34.07C32.707 33.362 33.235 32.816 33.907 32.432C34.579 32.048 35.347 31.856 36.211 31.856C37.075 31.856 37.837 32.048 38.497 32.432C39.169 32.816 39.691 33.362 40.063 34.07C40.447 34.766 40.639 35.588 40.639 36.536C40.639 37.484 40.447 38.312 40.063 39.02C39.679 39.716 39.151 40.256 38.479 40.64C37.819 41.024 37.057 41.216 36.193 41.216ZM36.193 39.398C36.649 39.398 37.069 39.296 37.453 39.092C37.837 38.888 38.143 38.576 38.371 38.156C38.611 37.724 38.731 37.184 38.731 36.536C38.731 35.876 38.611 35.336 38.371 34.916C38.143 34.496 37.837 34.184 37.453 33.98C37.081 33.776 36.667 33.674 36.211 33.674C35.755 33.674 35.335 33.776 34.951 33.98C34.567 34.184 34.255 34.496 34.015 34.916C33.787 35.336 33.673 35.876 33.673 36.536C33.673 37.52 33.919 38.246 34.411 38.714C34.915 39.17 35.509 39.398 36.193 39.398ZM42.9899 41V32.072H44.6459L44.8079 33.404H44.8979C45.1379 32.972 45.5099 32.606 46.0139 32.306C46.5179 32.006 47.0999 31.856 47.7599 31.856C48.8519 31.856 49.6739 32.186 50.2259 32.846C50.7779 33.506 51.0539 34.478 51.0539 35.762V41H49.1459V35.996C49.1459 35.252 48.9899 34.676 48.6779 34.268C48.3659 33.86 47.8739 33.656 47.2019 33.656C46.5419 33.656 45.9899 33.878 45.5459 34.322C45.1139 34.766 44.8979 35.408 44.8979 36.248V41H42.9899ZM58.7509 41C57.8749 41 57.1789 40.79 56.6629 40.37C56.1469 39.938 55.8889 39.176 55.8889 38.084V33.692H53.6389V32.072H54.9709C55.5829 32.072 55.9429 31.772 56.0509 31.172L56.3209 29.732H57.7969V32.072H61.3249V33.692H57.7969V38.048C57.7969 38.516 57.8989 38.846 58.1029 39.038C58.3189 39.218 58.6849 39.308 59.2009 39.308H61.2889V41H58.7509ZM68.6799 41.216C67.8159 41.216 67.0539 41.024 66.3939 40.64C65.7339 40.244 65.2179 39.698 64.8459 39.002C64.4739 38.306 64.2879 37.496 64.2879 36.572C64.2879 35.636 64.4679 34.814 64.8279 34.106C65.1999 33.398 65.7159 32.846 66.3759 32.45C67.0479 32.054 67.8219 31.856 68.6979 31.856C69.5619 31.856 70.3059 32.054 70.9299 32.45C71.5539 32.834 72.0339 33.35 72.3699 33.998C72.7179 34.646 72.8919 35.36 72.8919 36.14C72.8919 36.26 72.8919 36.392 72.8919 36.536C72.8919 36.668 72.8859 36.818 72.8739 36.986H66.1599C66.2199 37.814 66.4899 38.444 66.9699 38.876C67.4499 39.296 68.0139 39.506 68.6619 39.506C69.2259 39.506 69.6699 39.392 69.9939 39.164C70.3299 38.924 70.5759 38.6 70.7319 38.192H72.6579C72.4419 39.044 71.9919 39.764 71.3079 40.352C70.6239 40.928 69.7479 41.216 68.6799 41.216ZM68.6799 33.512C68.0919 33.512 67.5699 33.692 67.1139 34.052C66.6579 34.4 66.3639 34.892 66.2319 35.528H70.9839C70.9359 34.928 70.7019 34.442 70.2819 34.07C69.8619 33.698 69.3279 33.512 68.6799 33.512ZM75.3688 41V32.072H77.0248L77.1868 33.404H77.2768C77.5168 32.972 77.8888 32.606 78.3928 32.306C78.8968 32.006 79.4788 31.856 80.1388 31.856C81.2308 31.856 82.0528 32.186 82.6048 32.846C83.1568 33.506 83.4328 34.478 83.4328 35.762V41H81.5248V35.996C81.5248 35.252 81.3688 34.676 81.0568 34.268C80.7448 33.86 80.2528 33.656 79.5808 33.656C78.9208 33.656 78.3688 33.878 77.9248 34.322C77.4928 34.766 77.2768 35.408 77.2768 36.248V41H75.3688ZM91.1298 41C90.2538 41 89.5578 40.79 89.0418 40.37C88.5258 39.938 88.2678 39.176 88.2678 38.084V33.692H86.0178V32.072H87.3498C87.9618 32.072 88.3218 31.772 88.4298 31.172L88.6998 29.732H90.1758V32.072H93.7038V33.692H90.1758V38.048C90.1758 38.516 90.2778 38.846 90.4818 39.038C90.6978 39.218 91.0638 39.308 91.5798 39.308H93.6678V41H91.1298ZM107.586 44.96V43.286H109.044C109.464 43.286 109.764 43.196 109.944 43.016C110.136 42.848 110.232 42.56 110.232 42.152V33.692H107.964V32.072H110.232V30.83C110.232 29.834 110.478 29.12 110.97 28.688C111.462 28.256 112.164 28.04 113.076 28.04H115.254V29.714H113.31C112.89 29.714 112.59 29.798 112.41 29.966C112.23 30.134 112.14 30.428 112.14 30.848V32.072H115.254V33.692H112.14V42.17C112.14 43.166 111.894 43.88 111.402 44.312C110.91 44.744 110.202 44.96 109.278 44.96H107.586ZM118.523 41V39.344H120.701V34.322C120.701 33.926 120.509 33.728 120.125 33.728H118.703V32.072H120.845C121.337 32.072 121.739 32.216 122.051 32.504C122.363 32.78 122.519 33.17 122.519 33.674V33.89H122.609C122.741 33.218 123.023 32.714 123.455 32.378C123.899 32.03 124.541 31.856 125.381 31.856H126.767V33.872H124.823C124.115 33.872 123.569 34.118 123.185 34.61C122.801 35.102 122.609 35.69 122.609 36.374V39.344H125.381V41H118.523ZM133.33 41.216C132.478 41.216 131.716 41.024 131.044 40.64C130.372 40.256 129.844 39.716 129.46 39.02C129.076 38.312 128.884 37.484 128.884 36.536C128.884 35.588 129.076 34.766 129.46 34.07C129.844 33.362 130.372 32.816 131.044 32.432C131.716 32.048 132.484 31.856 133.348 31.856C134.212 31.856 134.974 32.048 135.634 32.432C136.306 32.816 136.828 33.362 137.2 34.07C137.584 34.766 137.776 35.588 137.776 36.536C137.776 37.484 137.584 38.312 137.2 39.02C136.816 39.716 136.288 40.256 135.616 40.64C134.956 41.024 134.194 41.216 133.33 41.216ZM133.33 39.398C133.786 39.398 134.206 39.296 134.59 39.092C134.974 38.888 135.28 38.576 135.508 38.156C135.748 37.724 135.868 37.184 135.868 36.536C135.868 35.876 135.748 35.336 135.508 34.916C135.28 34.496 134.974 34.184 134.59 33.98C134.218 33.776 133.804 33.674 133.348 33.674C132.892 33.674 132.472 33.776 132.088 33.98C131.704 34.184 131.392 34.496 131.152 34.916C130.924 35.336 130.81 35.876 130.81 36.536C130.81 37.52 131.056 38.246 131.548 38.714C132.052 39.17 132.646 39.398 133.33 39.398ZM139.173 41V32.072H140.757L140.919 33.116H141.009C141.165 32.744 141.405 32.444 141.729 32.216C142.053 31.976 142.437 31.856 142.881 31.856C143.313 31.856 143.691 31.964 144.015 32.18C144.339 32.396 144.579 32.708 144.735 33.116H144.807C144.963 32.756 145.209 32.456 145.545 32.216C145.881 31.976 146.295 31.856 146.787 31.856C147.447 31.856 147.945 32.072 148.281 32.504C148.629 32.936 148.803 33.542 148.803 34.322V41H146.967V34.7C146.967 34.34 146.889 34.058 146.733 33.854C146.589 33.638 146.355 33.53 146.031 33.53C145.707 33.53 145.437 33.656 145.221 33.908C145.017 34.16 144.915 34.514 144.915 34.97V41H143.061V34.7C143.061 34.34 142.989 34.058 142.845 33.854C142.701 33.638 142.467 33.53 142.143 33.53C141.819 33.53 141.549 33.656 141.333 33.908C141.117 34.16 141.009 34.514 141.009 34.97V41H139.173ZM21.386 64V62.344H23.564V57.322C23.564 56.926 23.372 56.728 22.988 56.728H21.566V55.072H23.708C24.2 55.072 24.602 55.216 24.914 55.504C25.226 55.78 25.382 56.17 25.382 56.674V56.89H25.472C25.604 56.218 25.886 55.714 26.318 55.378C26.762 55.03 27.404 54.856 28.244 54.856H29.63V56.872H27.686C26.978 56.872 26.432 57.118 26.048 57.61C25.664 58.102 25.472 58.69 25.472 59.374V62.344H28.244V64H21.386ZM36.301 64.216C35.437 64.216 34.675 64.024 34.015 63.64C33.355 63.244 32.839 62.698 32.467 62.002C32.095 61.306 31.909 60.496 31.909 59.572C31.909 58.636 32.089 57.814 32.449 57.106C32.821 56.398 33.337 55.846 33.997 55.45C34.669 55.054 35.443 54.856 36.319 54.856C37.183 54.856 37.927 55.054 38.551 55.45C39.175 55.834 39.655 56.35 39.991 56.998C40.339 57.646 40.513 58.36 40.513 59.14C40.513 59.26 40.513 59.392 40.513 59.536C40.513 59.668 40.507 59.818 40.495 59.986H33.781C33.841 60.814 34.111 61.444 34.591 61.876C35.071 62.296 35.635 62.506 36.283 62.506C36.847 62.506 37.291 62.392 37.615 62.164C37.951 61.924 38.197 61.6 38.353 61.192H40.279C40.063 62.044 39.613 62.764 38.929 63.352C38.245 63.928 37.369 64.216 36.301 64.216ZM36.301 56.512C35.713 56.512 35.191 56.692 34.735 57.052C34.279 57.4 33.985 57.892 33.853 58.528H38.605C38.557 57.928 38.323 57.442 37.903 57.07C37.483 56.698 36.949 56.512 36.301 56.512ZM46.1759 64.216C45.4679 64.216 44.8739 64.096 44.3939 63.856C43.9139 63.604 43.5539 63.274 43.3139 62.866C43.0739 62.446 42.9539 61.99 42.9539 61.498C42.9539 60.622 43.2719 59.938 43.9079 59.446C44.5559 58.954 45.4679 58.708 46.6439 58.708H48.9479V58.51C48.9479 57.166 48.3239 56.494 47.0759 56.494C46.5599 56.494 46.1219 56.608 45.7619 56.836C45.4139 57.052 45.1799 57.406 45.0599 57.898H43.1519C43.2479 56.962 43.6499 56.224 44.3579 55.684C45.0779 55.132 45.9839 54.856 47.0759 54.856C48.3959 54.856 49.3559 55.18 49.9559 55.828C50.5559 56.476 50.8559 57.37 50.8559 58.51V64H49.2359L49.0739 62.686H48.9479C48.6839 63.106 48.3539 63.466 47.9579 63.766C47.5619 64.066 46.9679 64.216 46.1759 64.216ZM46.5359 62.614C47.3159 62.614 47.8979 62.38 48.2819 61.912C48.6779 61.432 48.8939 60.826 48.9299 60.094H46.8419C46.1579 60.094 45.6719 60.208 45.3839 60.436C45.1079 60.652 44.9699 60.958 44.9699 61.354C44.9699 61.75 45.1079 62.062 45.3839 62.29C45.6719 62.506 46.0559 62.614 46.5359 62.614ZM53.6029 64V62.344H56.5909V53.29C56.5909 52.894 56.3989 52.696 56.0149 52.696H53.8549V51.04H56.3569C57.0529 51.04 57.5809 51.226 57.9409 51.598C58.3129 51.958 58.4989 52.486 58.4989 53.182V62.344H61.5049V64H53.6029ZM78.5728 64.216C77.4928 64.216 76.6708 63.886 76.1068 63.226C75.5548 62.554 75.2788 61.582 75.2788 60.31V55.072H77.1868V60.076C77.1868 60.808 77.3428 61.384 77.6548 61.804C77.9788 62.212 78.4708 62.416 79.1308 62.416C79.7908 62.416 80.3428 62.194 80.7868 61.75C81.2308 61.306 81.4528 60.664 81.4528 59.824V55.072H83.3608V64H81.7048L81.5428 62.668H81.4528C81.2128 63.1 80.8408 63.466 80.3368 63.766C79.8328 64.066 79.2448 64.216 78.5728 64.216ZM90.2298 64.216C89.0538 64.216 88.1178 63.94 87.4218 63.388C86.7258 62.836 86.3298 62.104 86.2338 61.192H88.1958C88.2678 61.612 88.4778 61.954 88.8258 62.218C89.1858 62.482 89.6598 62.614 90.2478 62.614C90.8118 62.614 91.2438 62.5 91.5438 62.272C91.8558 62.032 92.0118 61.756 92.0118 61.444C92.0118 60.988 91.8258 60.676 91.4538 60.508C91.0938 60.34 90.5598 60.214 89.8518 60.13C89.2398 60.058 88.6818 59.92 88.1778 59.716C87.6858 59.5 87.2958 59.212 87.0078 58.852C86.7198 58.48 86.5758 58.018 86.5758 57.466C86.5758 56.686 86.8818 56.056 87.4938 55.576C88.1058 55.096 88.9578 54.856 90.0498 54.856C91.1418 54.856 91.9878 55.102 92.5878 55.594C93.1878 56.086 93.5358 56.758 93.6318 57.61H91.7958C91.7478 57.25 91.5618 56.968 91.2378 56.764C90.9138 56.548 90.5118 56.44 90.0318 56.44C89.5398 56.44 89.1498 56.536 88.8618 56.728C88.5738 56.908 88.4298 57.148 88.4298 57.448C88.4298 58.096 89.1258 58.492 90.5178 58.636C91.1778 58.708 91.7658 58.834 92.2818 59.014C92.7978 59.182 93.2058 59.452 93.5058 59.824C93.8058 60.184 93.9558 60.694 93.9558 61.354C93.9678 61.894 93.8118 62.38 93.4878 62.812C93.1758 63.244 92.7378 63.586 92.1738 63.838C91.6218 64.09 90.9738 64.216 90.2298 64.216ZM101.059 64.216C100.195 64.216 99.4328 64.024 98.7728 63.64C98.1128 63.244 97.5968 62.698 97.2248 62.002C96.8528 61.306 96.6668 60.496 96.6668 59.572C96.6668 58.636 96.8468 57.814 97.2068 57.106C97.5788 56.398 98.0948 55.846 98.7548 55.45C99.4268 55.054 100.201 54.856 101.077 54.856C101.941 54.856 102.685 55.054 103.309 55.45C103.933 55.834 104.413 56.35 104.749 56.998C105.097 57.646 105.271 58.36 105.271 59.14C105.271 59.26 105.271 59.392 105.271 59.536C105.271 59.668 105.265 59.818 105.253 59.986H98.5388C98.5988 60.814 98.8688 61.444 99.3488 61.876C99.8288 62.296 100.393 62.506 101.041 62.506C101.605 62.506 102.049 62.392 102.373 62.164C102.709 61.924 102.955 61.6 103.111 61.192H105.037C104.821 62.044 104.371 62.764 103.687 63.352C103.003 63.928 102.127 64.216 101.059 64.216ZM101.059 56.512C100.471 56.512 99.9488 56.692 99.4928 57.052C99.0368 57.4 98.7428 57.892 98.6108 58.528H103.363C103.315 57.928 103.081 57.442 102.661 57.07C102.241 56.698 101.707 56.512 101.059 56.512ZM107.73 64V62.344H109.908V57.322C109.908 56.926 109.716 56.728 109.332 56.728H107.91V55.072H110.052C110.544 55.072 110.946 55.216 111.258 55.504C111.57 55.78 111.726 56.17 111.726 56.674V56.89H111.816C111.948 56.218 112.23 55.714 112.662 55.378C113.106 55.03 113.748 54.856 114.588 54.856H115.974V56.872H114.03C113.322 56.872 112.776 57.118 112.392 57.61C112.008 58.102 111.816 58.69 111.816 59.374V62.344H114.588V64H107.73ZM122.609 64.216C121.433 64.216 120.497 63.94 119.801 63.388C119.105 62.836 118.709 62.104 118.613 61.192H120.575C120.647 61.612 120.857 61.954 121.205 62.218C121.565 62.482 122.039 62.614 122.627 62.614C123.191 62.614 123.623 62.5 123.923 62.272C124.235 62.032 124.391 61.756 124.391 61.444C124.391 60.988 124.205 60.676 123.833 60.508C123.473 60.34 122.939 60.214 122.231 60.13C121.619 60.058 121.061 59.92 120.557 59.716C120.065 59.5 119.675 59.212 119.387 58.852C119.099 58.48 118.955 58.018 118.955 57.466C118.955 56.686 119.261 56.056 119.873 55.576C120.485 55.096 121.337 54.856 122.429 54.856C123.521 54.856 124.367 55.102 124.967 55.594C125.567 56.086 125.915 56.758 126.011 57.61H124.175C124.127 57.25 123.941 56.968 123.617 56.764C123.293 56.548 122.891 56.44 122.411 56.44C121.919 56.44 121.529 56.536 121.241 56.728C120.953 56.908 120.809 57.148 120.809 57.448C120.809 58.096 121.505 58.492 122.897 58.636C123.557 58.708 124.145 58.834 124.661 59.014C125.177 59.182 125.585 59.452 125.885 59.824C126.185 60.184 126.335 60.694 126.335 61.354C126.347 61.894 126.191 62.38 125.867 62.812C125.555 63.244 125.117 63.586 124.553 63.838C124.001 64.09 123.353 64.216 122.609 64.216Z" fill="white"/>
<defs>
<clipPath id="clip0_23_2909">
<rect width="41" height="54" fill="white" transform="translate(166 17)"/>
</clipPath>
</defs>
</svg>
