<svg width="150" height="23" viewBox="0 0 150 23" fill="none" xmlns="http://www.w3.org/2000/svg">
<g clip-path="url(#clip0_61_439)">
<path d="M9.08333 5.33331H12.6667L13.75 0.583313H1.04167L0 5.33331H2.83333L0.458333 16C0.333333 16.7083 0.166667 17.5 0.166667 18.2083C0.166667 20.2916 1.08333 21.5 2.375 22.125H9.375L10.375 17.6666H9.16667C8.04167 17.625 6.83333 17.5416 6.83333 15.7916C6.83333 15.375 7 14.625 7.125 14L9.08333 5.33331Z" fill="white"/>
<path d="M15.4166 22H25.7916C28.4999 20.7083 29.8333 18.5 30.7499 17.0416L25.5416 15.1666C24.9166 16.2083 23.7083 18.2916 20.4583 18.2916C19.0416 18.2916 17.8749 17.75 17.1249 16.6666C16.4999 15.75 16.4583 14.8333 16.4583 13.2083H31.5833C31.6666 12.2916 31.7499 11.375 31.7499 10.4583C31.7499 3.62498 26.9999 0.958313 22.1249 0.958313C13.8333 0.958313 10.3333 8.16665 10.3333 13.0833C10.3333 16.5416 11.8333 20.2083 15.4166 22ZM22.2083 5.33331C22.9583 5.33331 23.7499 5.54165 24.3749 5.91665C26.1249 6.87498 26.1666 8.54165 26.1666 9.29165H17.2916C17.9583 7.74998 19.0833 5.33331 22.2083 5.33331ZM53.2916 10.4583C53.2916 3.62498 48.5416 0.958313 43.6666 0.958313C35.4166 0.958313 31.9166 8.20831 31.9166 13.0833C31.9166 16.5416 33.4166 20.2083 36.9999 22H47.4166C50.1249 20.7083 51.4583 18.5 52.3749 17.0416L47.1666 15.1666C46.5416 16.2083 45.3333 18.2916 42.0833 18.2916C40.6666 18.2916 39.4999 17.75 38.7499 16.6666C38.0833 15.75 38.0833 14.8333 38.0833 13.2083H53.2083C53.2083 12.2916 53.2916 11.375 53.2916 10.4583ZM38.8333 9.29165C39.4999 7.74998 40.6666 5.33331 43.7499 5.33331C44.4999 5.33331 45.2916 5.54165 45.9166 5.91665C47.6666 6.87498 47.7083 8.54165 47.7083 9.29165H38.8333ZM67.7916 1.16665C64.5833 1.16665 62.7916 3.08331 61.7499 4.20831L62.3749 1.70831H56.1249L51.4999 22H57.7083L60.1249 11.4166C60.4999 9.74998 60.9999 8.12498 62.0416 7.08331C62.6666 6.45831 63.5833 5.95831 64.5416 5.95831C65.2916 5.95831 66.8749 6.37498 66.8749 8.29165C66.8749 8.91665 66.7499 9.54165 66.6249 10.2083L64.0416 21.9583H70.2499L73.2499 8.83331C73.3749 8.08331 73.5416 7.29165 73.5416 6.54165C73.5416 3.04165 70.9583 1.16665 67.7916 1.16665Z" fill="white"/>
<path d="M144.958 15.9583C144.542 12.875 143.833 11.375 141.625 11.0833H140.083V21.5416H142.708C145.75 21.3333 149.292 19 150 14.0833V21.7916H134.417V21.5416H136.708V1.12498H135.083V17.0416C134.958 18.75 134.25 19.75 133.542 20.6666C132.583 21.7916 131.458 22.0416 130.917 22.2083C127.667 22.9166 123.958 22.25 122.292 19.7916C121.875 19 121.583 18.5833 121.542 16V1.12498H119.625V0.87498H126.833V1.12498H124.875V18.7916C124.833 19.7083 125.458 20.9166 127.167 21.875C128.083 22.2916 129.625 22.1666 130.5 22C131.208 21.9166 131.625 21.7083 132.208 21.4166C133.375 20.8333 134.875 18.5833 134.833 17.0416V1.08331H132.333V0.833313H149.083V7.79165C148.875 6.95831 148.75 5.62498 148.042 4.29165C146.833 1.91665 145.292 0.958313 142.625 1.04165H140.083V10.75H141.667C143.917 10.5416 144.625 9.37498 144.958 6.54165V15.9583Z" fill="white"/>
<path d="M121.083 13.4167H119.833V21.6667C119.333 20.7917 118.75 20.3334 117.5 20.6667C115.75 21.5 113.625 22.375 112.417 22.3334C111.125 22.375 109.875 21.9167 108.667 21.3334C104.5 18.5417 103 13.2917 104.083 8.25003C104.875 5.04169 107.167 1.45836 110.542 0.375027C113.917 -0.874973 116.208 2.70836 118.5 0.20836V8.00003C117.708 5.20836 116.417 1.58336 113.25 0.500027C111.333 0.0833601 109.583 0.95836 108.792 2.41669C107.042 6.25003 106.958 16.2084 109.125 20.3334C109.417 20.9584 110.583 22.1667 112.417 22.0834C114.25 22 116.5 20.8334 116.5 19.2084V13.4167H115.25V13.1667H121.083V13.4167ZM98.7084 20.9167C96.9168 22.1667 94.6668 22.7917 92.3334 22.2917C89.4168 21.6667 86.7501 18.9167 85.7501 16.125C84.4584 12 84.9584 6.83336 87.7918 3.58336C90.0001 1.37503 92.7084 -0.0416399 95.9168 0.666693C98.8334 1.29169 101.833 4.25003 102.625 7.12503C104.292 12.0834 102.958 17.7084 98.7084 20.9167ZM97.2084 1.83336C96.2084 0.750027 94.1251 0.416693 92.4584 1.04169C89.4584 2.58336 89.2501 6.62503 89.0001 9.95836C88.8334 12.25 88.7501 18.1667 91.2084 21.25C92.2084 22.25 94.1251 22.375 95.3751 22.0417C99.0834 20.6667 99.2084 16.4584 99.5001 13V12.9167C99.6668 9.04169 99.2501 4.29169 97.2084 1.83336Z" fill="white"/>
<path d="M89.0001 1.125H86.9584C84.7917 7.95833 82.5417 15.1667 80.3751 21.9167C79.9167 20.8333 79.5417 19.8333 79.0834 18.625L72.5418 1.125H71.0417V0.875H77.7501V1.125H76.1667L81.7501 16.2083L81.8334 16.5C83.4167 11.5 85.1251 6.25 86.7501 1.125H84.5001V0.875H89.0001V1.125Z" fill="white"/>
</g>
<defs>
<clipPath id="clip0_61_439">
<rect width="150" height="22.5" fill="white"/>
</clipPath>
</defs>
</svg>
