<svg width="142" height="52" viewBox="0 0 142 52" fill="none" xmlns="http://www.w3.org/2000/svg">
<g clip-path="url(#clip0_61_234)">
<path d="M20.8531 0.0189667C21.1943 0.178216 21.4104 0.50809 21.6834 0.769713C22.1271 1.15646 22.457 1.66833 22.8893 2.06646C23.4239 2.57833 23.7652 3.2267 24.2088 3.80682C24.9823 4.97844 25.6648 6.22968 26.0174 7.59468C26.3814 8.52742 26.4383 9.53979 26.4155 10.5408C26.4383 11.4508 26.188 12.3494 25.7784 13.1684C25.0733 14.4083 23.7993 15.2386 22.4683 15.6823C20.8076 16.0804 18.9762 16.1486 17.3723 15.4434C16.7921 15.1249 16.1325 14.9088 15.6661 14.4083C14.5855 13.521 13.9598 12.0764 14.1646 10.6773C14.4831 8.18617 15.9732 6.04769 17.5657 4.20495C17.7136 4.47794 17.5883 4.79644 17.6908 5.08081C17.8273 5.68369 18.0434 6.32068 18.4984 6.75293C19.0558 6.24106 19.6474 5.72919 20.1252 5.13769C20.5574 4.50069 20.9099 3.79545 21.0578 3.0447C21.092 2.08921 21.183 1.08821 20.8189 0.178215L20.8531 0.0189667ZM0.0141607 11.3825C2.6759 11.4053 5.34901 11.3598 8.01086 11.4053C8.01086 14.0556 8.0335 16.706 7.99937 19.3564C9.88773 19.3905 11.7759 19.3677 13.6755 19.3677C13.6982 19.5725 13.7096 19.7772 13.7096 19.982C13.6868 22.166 13.721 24.3386 13.6868 26.5226C11.7872 26.5453 9.89899 26.5226 7.99937 26.534C8.0335 30.4583 7.988 34.3713 8.02212 38.2956C8.09037 38.6369 8.13587 38.9781 8.1245 39.3308C8.09026 39.6494 8.28363 39.911 8.35199 40.2066C8.49987 40.8891 8.87524 41.5034 9.30738 42.0381C9.94449 42.6751 10.7634 43.1187 11.6392 43.312C12.4355 43.4372 13.2317 43.5054 14.0395 43.4485C14.0849 43.585 14.1077 43.7215 14.1077 43.8694C14.0963 45.9169 14.0963 47.9643 14.1077 50.0005C14.1077 50.2848 14.0508 50.5692 14.0053 50.8421C12.8565 50.8421 11.7077 50.9217 10.5587 50.8421C9.87624 50.6942 9.14835 50.7625 8.48849 50.4667C6.65713 50.0345 4.90539 49.1245 3.59727 47.7481C1.6749 45.8941 0.639783 43.2779 0.21891 40.6844C0.10516 40.4 0.17341 40.0701 0.127796 39.763C-0.031339 39.1374 0.0367969 38.4775 0.014047 37.8406C0.0027858 29.0251 0.00278574 20.1981 0.0141607 11.3825ZM38.871 18.7535C39.3486 18.6284 39.8605 18.7194 40.3382 18.617C41.3392 18.4919 42.3288 18.6511 43.3185 18.6852C44.0123 18.6739 44.6835 18.8786 45.366 19.0151C47.9026 19.6294 50.3027 20.983 52.043 22.9622C52.3502 23.4741 52.8165 23.8495 53.1122 24.3727C53.8515 25.5443 54.3408 26.8524 54.7615 28.1719C55.0233 29.1388 55.1597 30.1398 55.2849 31.1294C55.3418 33.3248 55.3077 35.5315 55.319 37.7269C55.3077 42.1062 55.3304 46.4856 55.3077 50.8649C52.6459 50.8308 49.9956 50.8536 47.3452 50.8422C47.3224 50.8308 47.2656 50.7853 47.2428 50.7626C47.2314 44.6316 47.2428 38.5004 47.2428 32.3807C47.2542 31.6299 47.1177 30.9019 46.9584 30.1853C46.6741 29.4573 46.3101 28.7634 45.8096 28.1719C45.5137 27.8193 45.1043 27.5918 44.7743 27.2847C44.2625 26.9435 43.6596 26.7842 43.0796 26.625C42.7725 26.6022 42.4653 26.625 42.181 26.5226C40.9638 26.443 39.724 26.5453 38.5865 27.0117C37.756 27.4098 36.9825 27.9558 36.4366 28.7179C35.538 29.7872 35.2423 31.2432 35.265 32.6082C35.265 38.6824 35.2764 44.768 35.265 50.8422C32.5804 50.8649 29.896 50.8308 27.2115 50.8649C27.166 45.0069 27.2115 39.1374 27.1888 33.2793C27.2002 32.5284 27.1774 31.7778 27.2343 31.0269C27.3822 30.6516 27.2797 30.2422 27.3934 29.8781C27.5982 28.4903 28.1214 27.1708 28.7015 25.9082C29.2703 24.8048 29.9528 23.747 30.84 22.8711C31.534 22.1659 32.2505 21.4265 33.1265 20.9374C34.8215 19.7545 36.8235 19.0379 38.871 18.7535ZM134.193 18.6852C135.183 18.6625 136.161 18.4691 137.15 18.6284C137.685 18.6966 138.231 18.6852 138.766 18.708C138.868 19.6976 138.788 20.6986 138.811 21.6882V25.6695C138.811 25.9197 138.845 26.1813 138.743 26.4202C138.481 26.2269 138.129 26.2951 137.833 26.2155C136.627 26.1132 135.387 26.1701 134.25 26.6251C132.896 27.0914 131.713 28.0811 131.053 29.3664C130.86 29.6053 130.86 29.9465 130.644 30.174C130.291 31.448 130.268 32.7789 130.291 34.087C130.28 39.6835 130.325 45.2686 130.268 50.8651C127.618 50.8309 124.956 50.8651 122.294 50.8423C122.272 50.8196 122.238 50.7741 122.215 50.7513V32.4945C122.181 31.7324 122.351 30.993 122.34 30.2423C122.522 29.8783 122.477 29.4574 122.59 29.0821C123.159 26.2042 124.672 23.4856 126.97 21.6315C127.413 21.131 128.05 20.8921 128.574 20.494C130.269 19.4587 132.237 18.9582 134.193 18.6852ZM16.2917 19.3564C18.9762 19.4019 21.6607 19.345 24.3452 19.3791C24.3452 29.7872 24.3338 40.1838 24.3452 50.5806C24.3452 50.6829 24.3452 50.8877 24.1859 50.8536H16.3146C16.2462 49.136 16.3031 47.407 16.2803 45.6894C16.2917 36.9193 16.2803 28.1378 16.2917 19.3564ZM100.523 40.4683C101.206 40.2066 101.865 39.8654 102.559 39.6266C103.56 39.2399 104.538 38.7735 105.539 38.3868C107.61 37.4314 109.748 36.6351 111.841 35.7364C112.342 35.4634 112.91 35.3383 113.399 35.0425C113.957 34.8264 114.514 34.6329 115.06 34.3827C115.538 34.0983 116.084 33.9845 116.573 33.7344C117.221 33.4727 117.847 33.177 118.507 32.9382C119.178 32.5627 119.929 32.3808 120.6 32.0167C120.782 31.8915 121.077 31.9257 121.191 31.7096C120.998 31.4367 121.1 31.0954 120.998 30.7996C120.85 30.265 120.702 29.7417 120.577 29.2185C120.065 27.6374 119.326 26.1246 118.325 24.8051C117.108 23.042 115.436 21.6201 113.581 20.5736C112.364 19.8342 110.999 19.4134 109.634 19.0494C108.793 18.947 107.985 18.6512 107.132 18.6626C106.358 18.5602 105.562 18.5147 104.8 18.6512C103.446 18.674 102.15 19.0039 100.864 19.3792C98.6234 20.1641 96.4963 21.3585 94.7787 23.0078C94.2668 23.4856 93.846 24.043 93.3568 24.5321C92.5947 25.5103 91.9007 26.5454 91.3776 27.6602C90.6382 29.3323 89.933 31.084 89.8534 32.9382C89.6032 33.8254 89.6827 34.7581 89.6714 35.6681C89.6486 36.2483 89.7396 36.817 89.8534 37.3744C89.8192 37.9658 90.0467 38.5119 90.1264 39.0806C90.3197 40.2864 90.8544 41.401 91.3435 42.5157C92.6857 45.2685 94.8013 47.6572 97.4518 49.2156C99.1922 50.2848 101.126 51.0469 103.151 51.3313C104.8 51.5931 106.495 51.6384 108.156 51.4224C108.724 51.4678 109.27 51.2176 109.839 51.1834C112.262 50.6147 114.639 49.591 116.471 47.8733C117.017 47.4411 117.529 46.9292 117.961 46.3831C118.689 45.6437 119.212 44.7452 119.735 43.858C120.236 42.9138 120.645 41.9128 120.941 40.8778C120.782 40.8094 120.6 40.8322 120.441 40.8322C117.779 40.8437 115.129 40.8209 112.467 40.8322C112.217 40.8322 112.217 41.1735 112.057 41.31C111.602 41.9697 111.022 42.5271 110.408 43.0504C109.521 43.6875 108.474 44.0287 107.439 44.3357C107.166 44.37 106.905 44.3585 106.654 44.461C106.017 44.5064 105.369 44.4837 104.721 44.4723C104.004 44.3358 103.287 44.1766 102.593 43.9491C101.524 43.4031 100.478 42.7775 99.6702 41.8901C99.4653 41.64 99.1355 41.4466 99.0672 41.1166C99.2493 41.037 99.4199 40.9119 99.6245 40.8778C99.9544 40.8209 100.205 40.5593 100.523 40.4683ZM97.2471 34.7125C97.0879 34.3144 97.2357 33.848 97.2129 33.4272C97.3951 32.8469 97.4519 32.2328 97.6679 31.6526C98.2139 30.3672 98.8851 29.1047 99.8633 28.0922C100.318 27.7168 100.705 27.2618 101.228 26.9775C101.615 26.7727 101.99 26.5452 102.389 26.3632C103.128 26.1472 103.845 25.806 104.618 25.806C105.323 25.6353 106.051 25.7263 106.768 25.7376C108.645 25.9993 110.533 26.8068 111.75 28.297C111.875 28.5928 111.454 28.6156 111.284 28.7293C110.544 29.1388 109.714 29.3434 108.975 29.7644C108.645 29.8213 108.36 30.0261 108.042 30.1284C105.687 31.1522 103.287 32.0507 100.955 33.12C99.7042 33.6092 98.4643 34.1324 97.2471 34.7125ZM88.7727 5.45619C86.2817 5.43344 83.7905 5.45619 81.2995 5.44481C81.1174 5.46756 80.9014 5.38794 80.7534 5.52444C80.7761 10.8707 80.7534 16.2283 80.7649 21.5745C80.7534 21.7679 80.799 21.9612 80.7194 22.1432C80.4919 22.1091 80.3781 21.893 80.2075 21.7679C79.0586 20.7782 77.7734 19.9365 76.34 19.4474C75.3732 19.072 74.3609 18.8786 73.3372 18.6966C72.1769 18.6739 71.0053 18.6397 69.8336 18.708C69.7084 18.7421 69.5947 18.7762 69.4697 18.7876C66.8648 19.1516 64.4305 20.3687 62.4286 22.0409C61.3139 23.0873 60.1991 24.1793 59.4142 25.4988C58.4929 26.8069 57.9014 28.3084 57.3326 29.7872C57.071 30.7199 56.8093 31.6413 56.6955 32.5968C56.4794 34.0642 56.5704 35.5657 56.5931 37.0444C56.65 37.4311 56.7751 37.7951 56.7865 38.1819C56.9913 39.4331 57.3553 40.6616 57.8556 41.8332C58.2765 42.9594 58.959 43.9831 59.5846 45.0069C60.0283 45.5756 60.4605 46.1671 60.9951 46.6676C61.7914 47.4525 62.5761 48.3056 63.5771 48.8516C64.7601 49.7502 66.1592 50.2849 67.5242 50.8081C68.0247 50.8991 68.4911 51.1834 69.003 51.1948C69.4352 51.229 69.8333 51.4337 70.2657 51.4108C70.4932 51.3881 70.698 51.5473 70.9367 51.5246C72.0401 51.5587 73.1548 51.5587 74.2582 51.5246C74.4402 51.5246 74.6222 51.445 74.8156 51.4336C75.5776 51.445 76.2828 51.1492 77.0222 51.0468C77.9891 50.6942 79.0243 50.4667 79.9228 49.9436C81.2537 49.3293 82.4594 48.4648 83.54 47.4865C84.905 46.3036 86.0084 44.8249 86.8274 43.2095C87.18 42.4929 87.5781 41.799 87.8056 41.0255C88.238 39.9563 88.4313 38.8188 88.5792 37.6927C88.8294 36.703 88.7499 35.6679 88.7725 34.6442C88.7727 24.9187 88.7727 15.1931 88.7727 5.45619ZM80.6853 36.2595C80.617 37.4654 80.162 38.6141 79.6274 39.6948C78.7288 41.3896 77.2159 42.6864 75.4983 43.5054C75.2365 43.6419 74.8953 43.6306 74.7134 43.8807C74.3949 43.8807 74.0764 43.8922 73.7693 44.006C72.7909 44.0287 71.7787 44.1197 70.8232 43.8467C70.4137 43.6534 69.9587 43.5738 69.5492 43.3576C69.0373 43.0732 68.4572 42.8799 68.0363 42.4476C67.2401 41.8902 66.6259 41.1281 66.0685 40.3432C65.6248 39.5811 65.1812 38.7962 64.9765 37.9318C64.749 37.4768 64.7716 36.9649 64.6466 36.4871C64.6125 35.2701 64.5442 34.0189 64.8286 32.8358C64.9538 32.4604 65.0335 32.0623 65.1698 31.6869C65.4997 31.0839 65.7045 30.4129 66.1367 29.8669C66.3642 29.3892 66.7623 29.0364 67.0809 28.6271C67.9341 27.6488 69.1057 27.0232 70.2886 26.5341C70.7322 26.4318 71.1644 26.2043 71.6309 26.2043C72.575 25.9653 73.5532 26.1588 74.486 26.3294C75.7145 26.7731 76.9316 27.3873 77.8871 28.2973C78.2398 28.6272 78.5013 29.0367 78.854 29.3665C80.3099 31.3228 80.9809 33.8367 80.6853 36.2595ZM134.125 46.861H137.105C137.116 47.0885 137.116 47.316 137.105 47.5435C136.764 47.589 136.423 47.5321 136.093 47.5776C136.047 48.6013 136.093 49.6137 136.07 50.6375C135.763 50.6147 135.456 50.6147 135.16 50.6261C135.126 49.8183 135.137 48.9993 135.149 48.1918C135.149 47.9757 135.194 47.7255 135.001 47.5776C134.705 47.5322 134.409 47.5891 134.113 47.5435C134.102 47.316 134.102 47.0885 134.125 46.861ZM137.651 46.8723C138.072 46.8609 138.493 46.8381 138.914 46.895C138.891 47.2249 139.164 47.4524 139.243 47.7596C139.357 48.1462 139.528 48.5103 139.642 48.8971C139.733 49.0677 139.892 49.2156 139.835 49.4317C140.062 48.5443 140.415 47.7027 140.768 46.8723C141.166 46.8609 141.575 46.8496 141.985 46.8723C142.007 48.0894 141.985 49.3293 141.985 50.5465C141.712 50.5692 141.439 50.5692 141.154 50.5465C141.166 49.6933 141.154 48.8402 141.177 47.9985C141.075 48.0895 140.972 48.1691 140.893 48.2828C140.745 49.0563 140.347 49.7616 140.153 50.5351C139.926 50.5693 139.71 50.5693 139.482 50.5466C139.414 50.1143 139.107 49.7617 139.107 49.3181C138.8 48.9426 138.788 48.4081 138.55 47.9872C138.39 48.2943 138.515 48.6582 138.481 48.9882C138.436 49.5228 138.538 50.0688 138.436 50.6034C138.163 50.6034 137.856 50.6944 137.64 50.5011C137.674 49.2952 137.64 48.0895 137.651 46.8723Z" fill="white" stroke="white" stroke-width="0.188247"/>
</g>
<defs>
<clipPath id="clip0_61_234">
<rect width="142" height="51.5744" fill="white"/>
</clipPath>
</defs>
</svg>
