<svg width="200" height="33" viewBox="0 0 200 33" fill="none" xmlns="http://www.w3.org/2000/svg">
<g clip-path="url(#clip0_61_250)">
<path fill-rule="evenodd" clip-rule="evenodd" d="M19.0708 17.0435C19.0708 16.7939 19.0797 16.3038 19.0797 16.3038C11.7158 15.148 6.39404 11.9767 6.24694 8.24827C4.43393 10.5096 3.40525 13.0991 3.40525 15.8583C3.40525 23.9775 12.3178 30.6301 23.6461 31.223C21.0217 29.5688 19.0708 23.8446 19.0708 17.0435ZM0 16.4507C0 7.36588 11.3055 0 25.2525 0C39.1992 0 50.5051 7.36588 50.5051 16.4507C50.5051 25.5355 39.199 32.9016 25.2525 32.9016C11.3055 32.9016 0 25.5353 0 16.4507ZM31.085 12.1526C36.3245 11.3329 39.9919 9.45207 39.9919 7.26342C39.9919 4.32587 33.3921 1.94729 25.2525 1.94729C17.1123 1.94729 10.5132 4.32607 10.5132 7.26342C10.5132 9.45207 14.18 11.3329 19.4201 12.1526C20.27 6.45848 22.5607 2.37417 25.2525 2.37417C27.9449 2.37417 30.235 6.45828 31.085 12.1526ZM26.8591 31.2228C38.1869 30.6301 47.1006 23.9773 47.1006 15.8581C47.1006 13.0991 46.0707 10.5096 44.2577 8.24807C44.1104 11.9765 38.7901 15.1478 31.4254 16.3036C31.4254 16.3036 31.4346 16.7937 31.4346 17.0433C31.4346 23.8444 29.4823 29.5686 26.8591 31.2228H26.8591ZM28.7525 12.4309C28.1933 8.77881 26.8372 6.20071 25.2526 6.20071C23.6679 6.20071 22.312 8.77881 21.7522 12.4309C24.1174 12.6252 26.448 12.6283 28.7525 12.4309ZM21.4791 16.6011C21.5717 21.8897 23.2248 26.1081 25.2525 26.1081C27.2795 26.1081 28.933 21.8899 29.0266 16.6011C26.4359 16.8262 23.9067 16.826 21.4791 16.6011Z" fill="white"/>
<path fill-rule="evenodd" clip-rule="evenodd" d="M113.996 28.4531H119.368V19.4505L128.61 4.74455H122.425L116.682 14.7098L110.94 4.74455H104.753L113.996 19.4505V28.4531ZM79.3608 16.4507C79.3608 9.50691 84.9909 3.87758 91.9355 3.87758C98.8797 3.87758 104.509 9.50671 104.509 16.4507C104.509 23.3953 98.8797 29.0239 91.9355 29.0239C84.9909 29.0239 79.3608 23.3953 79.3608 16.4507ZM91.9355 24.4134C95.8119 24.4134 98.9558 20.848 98.9558 16.4507C98.9558 12.0536 95.8121 8.48784 91.9355 8.48784C88.0585 8.48784 84.9147 12.0536 84.9147 16.4507C84.9147 20.8478 88.0585 24.4134 91.9355 24.4134ZM70.6156 28.4531H65.3179V9.11625H57.9268V4.74455H78.0059V9.11625H70.6156V28.4531ZM182.068 23.1187L180.031 28.4531H173.844L183.625 4.74437H190.218L200 28.4531H193.812L191.775 23.1187L182.068 23.1187ZM186.945 10.4408H186.899L183.588 19.1178H190.255L186.945 10.4408ZM168.269 28.4531H162.972V9.11625H155.581V4.74455H175.659V9.11625H168.269V28.4531ZM128.855 16.4507C128.855 9.50691 134.486 3.87758 141.428 3.87758C148.374 3.87758 154.003 9.50671 154.003 16.4507C154.003 23.3953 148.374 29.0239 141.428 29.0239C134.486 29.0239 128.855 23.3953 128.855 16.4507ZM141.428 24.4134C145.306 24.4134 148.45 20.848 148.45 16.4507C148.45 12.0536 145.306 8.48784 141.428 8.48784C137.552 8.48784 134.409 12.0536 134.409 16.4507C134.409 20.8478 137.552 24.4134 141.428 24.4134Z" fill="white"/>
</g>
<defs>
<clipPath id="clip0_61_250">
<rect width="200" height="32.9016" fill="white"/>
</clipPath>
</defs>
</svg>
