<svg width="120" height="39" viewBox="0 0 120 39" fill="none" xmlns="http://www.w3.org/2000/svg">
<g clip-path="url(#clip0_61_416)">
<path d="M51.9999 38.2763H42.2791L48.3592 0.681458H58.0795L51.9999 38.2763Z" fill="white"/>
<path d="M87.2387 1.60056C85.3213 0.839883 82.2802 0 78.5199 0C68.9203 0 62.1603 5.11903 62.1188 12.4377C62.0391 17.8374 66.9587 20.8365 70.6383 22.637C74.3991 24.4767 75.6776 25.6775 75.6776 27.3174C75.6393 29.836 72.6386 30.997 69.8399 30.997C65.9589 30.997 63.8794 30.3984 60.7192 28.9972L59.4391 28.3965L58.0789 36.8358C60.3588 37.8744 64.5592 38.7962 68.9202 38.8366C79.12 38.8366 85.7604 33.7968 85.8391 25.9975C85.8779 21.7179 83.2801 18.4386 77.6795 15.759C74.2795 14.0388 72.1974 12.8789 72.1974 11.1189C72.2373 9.51884 73.9585 7.88001 77.7964 7.88001C80.9566 7.79974 83.2785 8.55936 85.0375 9.3195L85.9167 9.71871L87.2387 1.60056Z" fill="white"/>
<path d="M100.159 24.9578C100.959 22.798 104.04 14.439 104.04 14.439C103.999 14.5193 104.839 12.2394 105.319 10.8398L105.998 14.0792C105.998 14.0792 107.839 23.0781 108.239 24.9578C106.719 24.9578 102.079 24.9578 100.159 24.9578ZM112.158 0.681458H104.639C102.32 0.681458 100.558 1.36081 99.558 3.80072L85.1189 38.2758H95.3187C95.3187 38.2758 96.9979 33.6357 97.3589 32.6363C98.4778 32.6363 108.4 32.6363 109.84 32.6363C110.119 33.9562 110.999 38.2758 110.999 38.2758H120L112.158 0.681458Z" fill="white"/>
<path d="M34.1598 0.681458L24.6399 26.3175L23.5996 21.1182C21.8396 15.1189 16.3198 8.6008 10.1599 5.35982L18.8798 38.2364H29.1593L44.4388 0.681458H34.1598Z" fill="white"/>
<path d="M15.7999 0.681458H0.160002L0 1.44107C12.2001 4.56086 20.28 12.081 23.5996 21.1198L20.1997 3.84165C19.64 1.44054 17.9198 0.760662 15.7999 0.681458Z" fill="#FAFAFA"/>
</g>
<defs>
<clipPath id="clip0_61_416">
<rect width="120" height="38.8366" fill="white"/>
</clipPath>
</defs>
</svg>
