<svg width="150" height="36" viewBox="0 0 150 36" fill="none" xmlns="http://www.w3.org/2000/svg">
<g clip-path="url(#clip0_58_4)">
<path d="M87 19.1396C87 15.5877 85.4796 12.4495 80.3375 12.4495C77.6993 12.4495 75.6036 13.2014 74.4674 13.8596L75.3002 16.7092C76.3463 16.0528 78.0155 15.5123 79.5911 15.5123C82.1943 15.5087 82.6208 16.9812 82.6208 17.928V18.156C76.9382 18.1468 73.3459 20.1103 73.3459 24.1089C73.3459 26.5521 75.1697 28.8428 78.3575 28.8428C80.3026 28.8428 81.9461 28.0578 82.9278 26.8187H83.0234C83.0234 26.8187 83.6706 29.5267 87.25 28.4917C87.068 27.3574 87 26.1624 87 24.71V19.1396ZM82.7606 22.89C82.7606 23.1768 82.7367 23.4746 82.6521 23.7301C82.3248 24.824 81.1961 25.7395 79.7915 25.7395C78.6058 25.7395 77.6754 25.0685 77.6754 23.6621C77.6754 21.5111 80.0507 20.9192 82.7606 20.9339" fill="white"/>
<path d="M0 7.61682C0 7.61682 3.71176 22.8023 4.30193 25.2621C4.99684 28.1374 6.24146 29.2 9.83378 28.4922L12.1539 19.0758C12.7403 16.7428 13.1392 15.0698 13.518 12.6927H13.5823C13.8452 15.0937 14.224 16.7428 14.7038 19.0831C14.7038 19.0831 15.6505 23.3612 16.1414 25.6022C16.6194 27.8433 17.9651 29.257 21.4894 28.4922L27.0121 7.61682H22.5539L20.6585 16.6472C20.1566 19.2633 19.7006 21.3242 19.3458 23.7215H19.2815C18.9616 21.3499 18.5553 19.3736 18.0332 16.8108L16.0697 7.61682H11.4185L9.32267 16.5755C8.72516 19.3111 8.1663 21.5043 7.81514 23.8263H7.75449C7.39234 21.6477 6.90148 18.8736 6.38116 16.2409C6.38116 16.2409 5.13654 9.82662 4.69719 7.61682" fill="white"/>
<path d="M39.4363 19.1396C39.4363 15.5877 37.9121 12.4495 32.77 12.4495C30.1393 12.4495 28.0398 13.2014 26.9037 13.8596L27.7364 16.7092C28.7789 16.0528 30.4464 15.5123 32.0274 15.5123C34.6306 15.5087 35.0571 16.9812 35.0571 17.928V18.156C29.3745 18.1468 25.7786 20.1103 25.7786 24.1089C25.7786 26.5521 27.6096 28.8428 30.7828 28.8428C32.7461 28.8428 34.3751 28.0578 35.3568 26.8187H35.456C35.456 26.8187 36.1068 29.5267 39.6826 28.4917C39.4988 27.3574 39.4363 26.1624 39.4363 24.71V19.1396ZM35.1932 22.89C35.1932 23.1768 35.1693 23.4746 35.0884 23.7301C34.7574 24.824 33.6287 25.7395 32.2204 25.7395C31.042 25.7395 30.108 25.0685 30.108 23.6621C30.108 21.5111 32.4832 20.9192 35.1932 20.9339" fill="white"/>
<path d="M41.7498 7.61682V28.4849H45.9928V24.0598V7.61682H41.7498Z" fill="white"/>
<path d="M100.023 7.61682V23.0137C100.023 25.1389 100.422 26.6207 101.28 27.5289C102.034 28.3249 103.267 28.8434 104.736 28.8434C105.998 28.8434 107.231 28.6007 107.814 28.3893L107.762 25.0746C107.327 25.1757 106.829 25.2621 106.145 25.2621C104.696 25.2621 104.218 24.3447 104.218 22.4364V16.5424H107.913V12.5549H104.218V7.61682" fill="white"/>
<path d="M89.0557 12.8117V28.4917H93.4421V20.4614C93.4421 20.0294 93.4696 19.6562 93.5377 19.3105C93.8649 17.6173 95.15 16.5455 97.0013 16.5455C97.5179 16.5455 97.869 16.6025 98.2588 16.6632V12.5525C97.9315 12.4936 97.7091 12.4624 97.3065 12.4624C95.6648 12.4624 93.8042 13.5048 93.0192 15.7752H92.9108V12.8117" fill="white"/>
<path d="M48.4568 12.8117V28.4917H52.7311V19.2885C52.7311 18.8565 52.7789 18.4152 52.9315 18.0163C53.279 17.0842 54.1412 16.005 55.5255 16.005C57.2462 16.005 58.0589 17.4574 58.0589 19.5532V28.4917H62.3222V19.1782C62.3222 18.7719 62.3792 18.2737 62.4986 17.9133C62.8406 16.8562 63.7746 16.005 65.0652 16.005C66.8043 16.005 67.6463 17.4261 67.6463 19.897V28.4917H71.9059V19.2462C71.9059 14.3891 69.4351 12.4624 66.6296 12.4624C65.3961 12.4624 64.4144 12.7657 63.5319 13.3099C62.7854 13.7677 62.131 14.413 61.5445 15.2568H61.4802C60.8055 13.5691 59.2208 12.4624 57.1506 12.4624C54.496 12.4624 53.29 13.8026 52.5804 14.9351H52.516V12.8117" fill="white"/>
<path d="M130.87 12.1079C131.708 12.1079 132.414 11.6704 132.506 11.1078L133.337 1.69504C133.337 0.762952 132.239 0 130.87 0C129.493 0 128.402 0.762952 128.402 1.69504L129.241 11.1078C129.329 11.6704 130.031 12.1079 130.87 12.1079Z" fill="white"/>
<path d="M125.771 15.0533C126.186 14.3179 126.163 13.5016 125.714 13.1376L117.956 7.71241C117.149 7.24178 115.941 7.8025 115.25 8.99013C114.56 10.1759 114.7 11.5069 115.49 11.9684L124.08 15.9504C124.629 16.1563 125.348 15.7739 125.771 15.0459" fill="white"/>
<path d="M135.967 15.0456C136.406 15.7736 137.125 16.156 137.66 15.9611L146.249 11.968C147.047 11.4974 147.167 10.1792 146.492 8.99343C145.802 7.80581 144.587 7.24876 143.782 7.71021L136.022 13.1299C135.592 13.4994 135.561 14.3194 135.976 15.0529" fill="white"/>
<path d="M130.87 23.8656C131.708 23.8656 132.414 24.3032 132.506 24.8657L133.337 34.2785C133.337 35.2106 132.239 35.9662 130.87 35.9662C129.493 35.9662 128.402 35.2106 128.402 34.2785L129.241 24.8657C129.329 24.3032 130.031 23.8656 130.87 23.8656Z" fill="white"/>
<path d="M135.967 20.9285C136.406 20.1987 137.125 19.8089 137.66 20.0204L146.249 24.0061C147.047 24.4675 147.167 25.7967 146.492 26.9843C145.802 28.1628 144.587 28.7235 143.782 28.2621L136.022 22.835C135.592 22.4692 135.561 21.6529 135.976 20.9285" fill="white"/>
<path d="M125.771 20.9205C126.186 21.654 126.163 22.4684 125.714 22.8361L117.956 28.254C117.149 28.7246 115.941 28.1621 115.25 26.9836C114.56 25.7978 114.7 24.4668 115.49 24.0054L124.08 20.0196C124.629 19.81 125.348 20.1961 125.771 20.9205Z" fill="white"/>
<path d="M148.763 27.4361H148.869C149.015 27.4361 149.073 27.482 149.09 27.5978C149.121 27.7265 149.138 27.8129 149.169 27.8497H149.445C149.421 27.8221 149.39 27.7523 149.373 27.5905C149.342 27.4508 149.27 27.3717 149.169 27.3441V27.3184C149.309 27.2871 149.39 27.1934 149.39 27.0776C149.39 26.9728 149.342 26.8974 149.294 26.8496C149.202 26.8055 149.114 26.7705 148.919 26.7705C148.746 26.7705 148.619 26.7852 148.518 26.8091V27.8497H148.763V27.4361ZM148.77 26.9617L148.895 26.9452C149.042 26.9452 149.121 27.0132 149.121 27.1088C149.121 27.2154 149.015 27.2651 148.879 27.2651H148.77V26.9617ZM148.926 26.2558C148.323 26.2558 147.845 26.7264 147.845 27.3037C147.845 27.8957 148.323 28.3663 148.926 28.3663C149.537 28.3663 150 27.8957 150 27.3037C150 26.7264 149.537 26.2558 148.926 26.2558ZM148.926 26.4672C149.39 26.4672 149.733 26.8422 149.733 27.3037C149.733 27.7688 149.39 28.1549 148.926 28.1475C148.463 28.1475 148.112 27.7688 148.112 27.3037C148.112 26.8422 148.463 26.4672 148.919 26.4672" fill="white"/>
</g>
<defs>
<clipPath id="clip0_58_4">
<rect width="150" height="35.9662" fill="white"/>
</clipPath>
</defs>
</svg>
